<svg width="118" height="118" viewBox="0 0 118 118" fill="none" xmlns="http://www.w3.org/2000/svg">
<path d="M89.7406 102.632C91.9579 113.127 78.2801 119.301 71.8758 110.695V110.695C67.4964 104.81 58.4265 105.491 54.9746 111.964V111.964C49.9267 121.429 35.4806 117.366 36.1063 106.657V106.657C36.5341 99.3344 29.1486 94.0258 22.3438 96.7653V96.7653C12.3927 100.771 3.93771 88.3735 11.3006 80.5722V80.5722C16.3355 75.2374 14.0901 66.4235 7.1164 64.148V64.148C-3.08168 60.8204 -1.58929 45.8883 9.06563 44.6449V44.6449C16.3517 43.7946 20.2971 35.5994 16.4176 29.3737V29.3737C10.7443 20.2694 21.4857 9.79006 30.4471 15.6864V15.6864C36.5752 19.7185 44.8653 15.9766 45.8952 8.71373V8.71373C47.4014 -1.90723 62.3658 -3.03045 65.4405 7.24667V7.24667C67.5431 14.2744 76.2989 16.7368 81.7564 11.8351V11.8351C89.7371 4.66713 101.923 13.4256 97.6719 23.2748V23.2748C94.7652 30.0099 99.8898 37.5243 107.221 37.2774V37.2774C117.942 36.9163 121.647 51.4583 112.06 56.271V56.271C105.504 59.562 104.6 68.6123 110.374 73.1357V73.1357C118.819 79.7505 112.31 93.2717 101.872 90.796V90.796C94.7348 89.103 88.2244 95.4545 89.7406 102.632V102.632Z" fill="#FFE9BE"/>
</svg>
