<svg width="178" height="129" viewBox="0 0 178 129" fill="none" xmlns="http://www.w3.org/2000/svg">
<path  d="M75.405 90.293C75.4471 93.6944 74.6024 96.4713 72.9613 98.734C71.3196 100.998 69.5293 101.926 67.5499 101.95L27.7454 102.442C25.766 102.466 23.9533 101.583 22.2562 99.3606C20.5597 97.1391 19.6466 94.3839 19.6046 90.9826C19.5599 87.3681 19.747 84.0225 20.1602 80.9419C20.571 77.8793 21.2664 74.9161 22.2455 72.0503C23.168 69.3503 24.5378 67.3159 26.3077 65.8488C27.8367 64.5814 29.6301 63.8565 31.7555 63.6858C31.7604 63.6899 31.7657 63.6948 31.7714 63.7004C36.0638 67.9785 41.2596 70.115 47.2503 70.041C53.2409 69.9669 58.3823 67.7027 62.5678 63.3198C62.5733 63.3141 62.5785 63.3091 62.5833 63.3048C64.7123 63.423 66.5231 64.1033 68.0829 65.3325C69.8885 66.7554 71.3082 68.7554 72.297 71.4318C73.3467 74.2725 74.1151 77.2176 74.6015 80.2691C75.0907 83.3386 75.3604 86.6785 75.405 90.293ZM62.8814 44.8366C62.9434 49.8478 61.4161 54.0351 58.3255 57.5179C55.2413 60.9935 51.5552 62.7002 47.1602 62.7545C42.7653 62.8088 39.0381 61.1938 35.869 57.7954C32.6933 54.39 31.063 50.2417 31.0011 45.2306C30.9391 40.2194 32.4664 36.0321 35.557 32.5492C38.6412 29.0736 42.3273 27.367 46.7223 27.3127C51.1172 27.2584 54.8444 28.8734 58.0135 32.2717C61.1892 35.6771 62.8195 39.8254 62.8814 44.8366ZM122.885 60.5315L122.966 67.1051C122.973 67.6462 122.831 67.9308 122.658 68.1257C122.498 68.3059 122.33 68.4001 121.992 68.4043L92.0916 68.7738C91.7529 68.778 91.5827 68.6879 91.4185 68.5118C91.2407 68.3211 91.0922 68.0402 91.0855 67.4991L91.0043 60.9255C90.9976 60.3844 91.1391 60.0999 91.3121 59.9049C91.472 59.7248 91.6399 59.6305 91.9785 59.6263L121.879 59.2568C122.217 59.2527 122.387 59.3428 122.552 59.5189C122.729 59.7095 122.878 59.9905 122.885 60.5315ZM158.765 60.0882L158.846 66.6617C158.853 67.2028 158.711 67.4874 158.538 67.6823C158.378 67.8625 158.21 67.9567 157.872 67.9609L139.932 68.1826C139.593 68.1868 139.423 68.0967 139.259 67.9206C139.081 67.7299 138.932 67.449 138.926 66.9079L138.844 60.3343C138.838 59.7932 138.979 59.5087 139.152 59.3137C139.312 59.1336 139.48 59.0393 139.819 59.0351L157.759 58.8134C158.097 58.8093 158.268 58.8994 158.432 59.0755C158.61 59.2661 158.758 59.5471 158.765 60.0882ZM158.44 33.7938L158.521 40.3674C158.528 40.9085 158.386 41.193 158.213 41.388C158.053 41.5681 157.885 41.6624 157.547 41.6666L91.7666 42.4795C91.428 42.4837 91.2578 42.3936 91.0935 42.2175C90.9158 42.0268 90.7673 41.7459 90.7606 41.2048L90.6794 34.6312C90.6727 34.0901 90.8142 33.8056 90.9872 33.6106C91.147 33.4305 91.3149 33.3362 91.6536 33.332L157.434 32.5191C157.772 32.5149 157.943 32.605 158.107 32.7812C158.285 32.9718 158.433 33.2527 158.44 33.7938ZM175.456 119.053L174.059 6.01534C174.031 3.80637 172.219 2.03778 170.01 2.06507L6.56888 4.08481C4.35991 4.11211 2.59132 5.92497 2.61862 8.13394L4.0155 121.172C4.03256 122.553 4.52501 123.799 5.46887 124.811C6.41585 125.827 7.64565 126.414 9.07068 126.397L170.531 124.401C171.956 124.384 173.171 123.766 174.093 122.727C175.011 121.692 175.473 120.434 175.456 119.053Z" stroke="#ffe9be" stroke-width="4"/>
</svg>
