<svg width="171" height="171" viewBox="0 0 171 171" fill="none" xmlns="http://www.w3.org/2000/svg">
<path d="M68.9057 0C65.3178 0 61.4878 1.23707 58.7329 3.9919C55.9781 6.74672 54.741 10.5768 54.741 14.1647V16.247C54.741 17.3516 53.8456 18.247 52.741 18.247H6C2.68628 18.247 0 20.9333 0 24.247L0 137.894C0 141.207 2.68629 143.894 6 143.894H82V139.894H6C4.89543 139.894 4 138.998 4 137.894L4 24.247C4 23.1424 4.89543 22.247 6 22.247H52.741C56.0547 22.247 58.741 19.5607 58.741 16.247V14.1647C58.741 11.4269 59.6936 8.68807 61.5614 6.82032C63.4291 4.95258 66.1679 4 68.9057 4L93.2351 4C95.9728 4 98.7117 4.95258 100.579 6.82032C102.447 8.68807 103.4 11.4269 103.4 14.1647V16.247C103.4 19.5607 106.086 22.247 109.4 22.247H156.141C157.245 22.247 158.141 23.1424 158.141 24.247V91H162.141V24.247C162.141 20.9333 159.454 18.247 156.141 18.247H109.4C108.295 18.247 107.4 17.3516 107.4 16.247V14.1647C107.4 10.5768 106.163 6.74673 103.408 3.9919C100.653 1.23707 96.8229 0 93.2351 0L68.9057 0ZM90.1939 12.1647H71.9469C69.1627 12.1647 66.9057 14.4217 66.9057 17.2058C66.9057 19.99 69.1627 22.247 71.9469 22.247H90.1939C92.9781 22.247 95.2351 19.99 95.2351 17.2058C95.2351 14.4217 92.9781 12.1647 90.1939 12.1647ZM168.223 129.729C168.223 108.431 151.027 91.2351 129.729 91.2351C108.431 91.2351 91.2351 108.431 91.2351 129.729C91.2351 151.027 108.431 168.223 129.729 168.223C151.027 168.223 168.223 151.027 168.223 129.729ZM125.647 131.811V103.317C125.647 102.213 126.542 101.317 127.647 101.317H131.811C132.916 101.317 133.811 102.213 133.811 103.317V119.647C133.811 122.96 136.498 125.647 139.811 125.647H150.058C151.163 125.647 152.058 126.542 152.058 127.647V131.811C152.058 132.916 151.163 133.811 150.058 133.811H127.647C126.542 133.811 125.647 132.916 125.647 131.811Z" stroke="#FFE9BE" stroke-width="4"/>
</svg>
