<svg width="171" height="155" viewBox="0 0 171 155" fill="none" xmlns="http://www.w3.org/2000/svg">
<path d="M127.766 40.2671L165.352 70.5C166.365 71.2592 167.192 72.239 167.769 73.3653C168.347 74.4915 168.66 75.7346 168.686 77V110.333C168.686 112.543 167.808 114.663 166.245 116.226C164.682 117.789 162.563 118.667 160.352 118.667C159.542 118.667 158.977 119.473 159.202 120.251C160.16 123.564 160.424 127.045 159.97 130.476C159.443 134.458 157.964 138.255 155.658 141.545C153.353 144.834 150.288 147.52 146.725 149.374C143.161 151.228 139.203 152.196 135.186 152.196C131.169 152.196 127.211 151.228 123.647 149.374C120.083 147.52 117.019 144.834 114.713 141.545C112.408 138.255 110.929 134.458 110.402 130.476C110 127.439 110.161 124.363 110.867 121.399C111.189 120.049 110.22 118.667 108.832 118.667H61.5303C60.1455 118.667 59.1765 120.044 59.4941 121.392C60.2025 124.399 60.3495 127.519 59.9188 130.594C59.3561 134.611 57.8246 138.43 55.4562 141.723C53.0879 145.016 49.9539 147.683 46.3247 149.495C42.6955 151.306 38.6801 152.207 34.6249 152.12C30.5697 152.033 26.5966 150.961 23.0483 148.996C19.5 147.031 16.4832 144.232 14.2581 140.84C12.033 137.449 10.6664 133.567 10.2764 129.53C9.94909 126.143 10.3175 122.731 11.3512 119.503C11.6825 118.468 11.216 117.33 10.2777 116.782C7.99987 115.452 6.06171 113.596 4.63257 111.357C2.85161 108.567 1.94181 105.309 2.01915 102L2.01915 18.6667C1.81392 14.4851 3.26445 10.3911 6.05648 7.27153C8.84851 4.15194 12.7572 2.258 16.9358 2L111.936 2C116.144 2.21567 120.095 4.09127 122.923 7.21556C125.75 10.3398 127.223 14.4578 127.019 18.6667V38.7087C127.019 39.3144 127.294 39.8875 127.766 40.2671Z" stroke="#FFE9BE" stroke-width="4"/>
</svg>
