<svg width="618" height="28" viewBox="0 0 618 28" fill="none" xmlns="http://www.w3.org/2000/svg">
<path d="M1 22.2347C18.3488 16.5278 36.6038 10.5322 55.0797 10.5322C61.2817 10.5322 67.5623 10.2565 73.7564 10.5913C79.7595 10.9158 81.5327 14.4523 85.8727 17.5064C94.0922 23.2905 110.423 17.5438 118.143 14.2557C129.283 9.51118 143.464 3.78372 152.01 15.3196C157.791 23.1246 163.669 25.9108 173.582 23.8896C187.545 21.0429 199.576 14.2988 214.009 12.6008C220.249 11.8667 221.884 9.16739 227.13 13.4874C229.974 15.8291 232.381 18.6427 235.05 21.1708C237.693 23.6748 244.933 22.3435 248.112 22.1165C261.45 21.1638 272.152 15.8396 284.342 11.2414C289.451 9.31447 300.087 5.8709 305.029 9.11371C309.814 12.2541 311.954 19.2885 316.376 23.1804C320.582 26.8813 323.837 26.6905 329.379 26.4902C344.129 25.957 353.398 11.5961 367.56 11.5961C370.924 11.5961 374.229 11.4895 377.549 12.128C381.996 12.9832 384.347 16.9154 389.074 16.9154C399.148 16.9154 408.195 12.1398 417.857 10.2367C423.832 9.05974 437.634 6.76518 441.676 12.4235C447.627 20.7552 459.542 18.5703 468.745 18.5703C480.097 18.5703 490.671 16.6255 500.72 11.1823C506.737 7.92311 509.441 16.0102 515.969 14.4921C527.317 11.853 552.999 -6.14025 564.848 4.14902C567.978 6.86712 570.395 8.40447 574.6 8.40447C588.833 8.40447 602.957 10.4167 616.977 12.6599" stroke="#201F2E" stroke-linecap="round"/>
</svg>
