<svg width="545" height="545" viewBox="0 0 545 545" fill="none" xmlns="http://www.w3.org/2000/svg">
<path d="M23.3615 198.747L17.9907 190.312L23.3615 198.747L33.6497 192.197C44.2929 185.42 49.5584 172.708 46.8243 160.39L44.1815 148.483C43.0575 143.42 45.9919 138.337 50.9393 136.779L62.5723 133.114C74.6068 129.323 82.983 118.407 83.5302 105.801L84.0591 93.6161C84.284 88.4339 88.4339 84.284 93.616 84.0591L105.801 83.5302C118.407 82.983 129.323 74.6068 133.114 62.5723L136.779 50.9393C138.337 45.9919 143.42 43.0575 148.483 44.1815L160.39 46.8243C172.708 49.5584 185.42 44.2929 192.197 33.6497L198.747 23.3615L190.312 17.9907L198.747 23.3615C201.533 18.9861 207.202 17.4672 211.802 19.8634L222.619 25.4979C233.81 31.3269 247.452 29.5309 256.752 21.0043L265.742 12.7621C269.566 9.25684 275.434 9.25684 279.258 12.7621L288.248 21.0043C297.548 29.5309 311.19 31.3269 322.381 25.4979L333.198 19.8634C337.798 17.4672 343.467 18.9861 346.253 23.3615L352.803 33.6497C359.58 44.2929 372.292 49.5584 384.61 46.8243L396.517 44.1815C401.58 43.0575 406.663 45.9919 408.221 50.9393L411.886 62.5723C415.677 74.6068 426.593 82.983 439.199 83.5302L451.384 84.0591C456.566 84.284 460.716 88.4339 460.941 93.616L461.47 105.801C462.017 118.407 470.393 129.323 482.428 133.114L494.061 136.779C499.008 138.337 501.942 143.42 500.819 148.484L498.176 160.39C495.442 172.708 500.707 185.42 511.35 192.197L521.638 198.747C526.014 201.533 527.533 207.202 525.137 211.802L519.502 222.619C513.673 233.81 515.469 247.452 523.996 256.752L532.238 265.742C535.743 269.566 535.743 275.434 532.238 279.258L523.996 288.248C515.469 297.548 513.673 311.19 519.502 322.381L525.137 333.198C527.533 337.798 526.014 343.467 521.638 346.253L511.35 352.803C500.707 359.58 495.442 372.292 498.176 384.61L500.819 396.517C501.942 401.58 499.008 406.663 494.061 408.221L482.428 411.886C470.393 415.677 462.017 426.593 461.47 439.199L460.941 451.384C460.716 456.566 456.566 460.716 451.384 460.941L439.199 461.47C426.593 462.017 415.677 470.393 411.886 482.428L408.221 494.061C406.663 499.008 401.58 501.942 396.517 500.819L384.61 498.176C372.292 495.442 359.58 500.707 352.803 511.35L346.253 521.638C343.467 526.014 337.798 527.533 333.198 525.137L322.38 519.502C311.19 513.673 297.548 515.469 288.248 523.996L279.258 532.238C275.434 535.743 269.566 535.743 265.742 532.238L256.752 523.996C247.452 515.469 233.81 513.673 222.62 519.502L211.802 525.137C207.202 527.533 201.533 526.014 198.747 521.638L192.197 511.35C185.42 500.707 172.708 495.442 160.39 498.176L148.483 500.819C143.42 501.942 138.337 499.008 136.779 494.061L133.114 482.428C129.323 470.393 118.407 462.017 105.801 461.47L93.616 460.941C88.4339 460.716 84.284 456.566 84.0591 451.384L83.5302 439.199C82.983 426.593 74.6068 415.677 62.5723 411.886L50.9393 408.221C45.9919 406.663 43.0575 401.58 44.1815 396.517L46.8243 384.61C49.5584 372.292 44.2929 359.58 33.6497 352.803L23.3615 346.253C18.9861 343.467 17.4672 337.798 19.8634 333.198L25.4979 322.381C31.3269 311.19 29.5309 297.548 21.0043 288.248L12.7621 279.258C9.25684 275.434 9.25684 269.566 12.7621 265.742L21.0043 256.752C29.5309 247.452 31.3269 233.81 25.4979 222.619L19.8634 211.802C17.4672 207.202 18.9861 201.533 23.3615 198.747Z" stroke="white" stroke-width="20"/>
</svg>
