<svg width="585" height="584" viewBox="0 0 585 584" fill="none" xmlns="http://www.w3.org/2000/svg">
<path d="M218.838 10.125C218.75 4.79684 225.946 3.04535 228.316 7.81785L301.335 154.852C305.944 164.132 318.348 166.056 325.551 158.609L439.69 40.6117C443.395 36.7816 449.722 40.6313 448.023 45.682L395.686 201.284C392.383 211.104 399.794 221.236 410.153 221.064L574.298 218.335C579.626 218.246 581.377 225.442 576.605 227.812L429.57 300.832C420.291 305.44 418.367 317.844 425.813 325.048L543.811 439.186C547.641 442.891 543.792 449.218 538.741 447.519L383.139 395.183C373.319 391.88 363.187 399.29 363.359 409.649L366.088 573.794C366.177 579.122 358.981 580.874 356.611 576.101L283.591 429.067C278.983 419.787 266.578 417.863 259.375 425.31L145.237 543.307C141.532 547.137 135.205 543.288 136.904 538.237L189.24 382.635C192.543 372.815 185.133 362.683 174.774 362.855L10.6287 365.584C5.30061 365.673 3.54912 358.477 8.32162 356.107L155.356 283.087C164.635 278.479 166.56 266.075 159.113 258.871L41.1155 144.733C37.2853 141.028 41.1351 134.701 46.1857 136.4L201.787 188.736C211.608 192.039 221.74 184.629 221.567 174.27L218.838 10.125Z" stroke="#6A79CA" stroke-width="10"/>
</svg>
