<svg width="279" height="279" viewBox="0 0 279 279" fill="none" xmlns="http://www.w3.org/2000/svg">
<path d="M70.0242 18.6573C67.5988 8.27945 80.9251 1.81352 87.5757 10.1412L126.554 58.9487C130.864 64.3459 139.218 63.8521 142.863 57.9848L175.82 4.92532C181.443 -4.12787 195.438 0.72313 194.252 11.3144L187.302 73.3883C186.534 80.2525 192.79 85.8105 199.516 84.2387L260.339 70.0242C270.717 67.5989 277.182 80.9252 268.855 87.5758L220.047 126.554C214.65 130.864 215.144 139.218 221.011 142.863L274.071 175.82C283.124 181.443 278.273 195.438 267.682 194.253L205.608 187.302C198.743 186.534 193.185 192.79 194.757 199.516L208.972 260.339C211.397 270.717 198.071 277.182 191.42 268.855L152.442 220.047C148.132 214.65 139.778 215.144 136.133 221.011L103.176 274.071C97.5528 283.124 83.5576 278.273 84.7435 267.682L91.6938 205.608C92.4624 198.743 86.2061 193.185 79.4802 194.757L18.6573 208.972C8.27942 211.397 1.81349 198.071 10.1412 191.42L58.9487 152.442C64.3459 148.132 63.8521 139.778 57.9847 136.133L4.92529 103.176C-4.1279 97.5528 0.723103 83.5576 11.3144 84.7435L73.3883 91.6938C80.2525 92.4624 85.8105 86.2061 84.2386 79.4802L70.0242 18.6573Z" fill="white"/>
</svg>
