<svg width="293" height="215" viewBox="0 0 293 215" fill="none" xmlns="http://www.w3.org/2000/svg">
<path d="M0.500491 214.5C19.7181 207.735 28.7063 195.89 48.5007 203C52.162 204.316 69.0005 217.5 76.5005 211.5C97.5005 200.5 112.764 187.879 117.536 183.391C123.325 177.947 125.343 173.736 133.534 175.205C145.451 177.342 155.483 179.363 166.685 183.819C171.296 185.653 182.799 190.178 187.244 187.085C194.332 182.153 198.679 166.196 200.741 158.261C203.201 148.793 205.416 139.216 208.131 129.817C211.873 116.865 220.139 118.193 231.264 118.133C259.436 117.98 263.866 105.462 268.207 79.782C269.267 73.5144 269.543 67.4963 271.174 61.2198C274.078 50.0417 288.57 53.5087 291.171 44.7891C293.245 37.8354 291.98 31.5876 289.355 24.8751C287.827 20.9695 283.283 15.9437 284.094 11.4934C284.707 8.12538 285.35 2.04293 288.7 1.33093" stroke="#201F2E" stroke-linecap="round"/>
</svg>
