<svg width="191" height="142" viewBox="0 0 191 142" fill="none" xmlns="http://www.w3.org/2000/svg">
<path d="M5.87823 38.3353C3.90765 36.3403 2.80075 33.6479 2.7974 30.8416C2.79405 28.0353 3.89452 25.3413 5.86033 23.3433C6.81 22.3484 15.9113 13.5975 31.1994 7.87121C46.4875 2.14495 68.3498 -1.04414 95.1412 12.686C132.945 32.1763 159.482 6.18781 159.715 5.89528C160.696 4.91017 161.861 4.12844 163.144 3.59474C164.427 3.06105 165.803 2.78582 167.192 2.78479C168.582 2.78376 169.958 3.05694 171.242 3.58874C172.526 4.12053 173.693 4.90053 174.677 5.88419C175.661 6.86785 176.441 8.03591 176.975 9.32168C177.508 10.6074 177.783 11.9857 177.785 13.3779C177.786 14.77 177.514 16.1487 176.984 17.4353C176.454 18.7218 175.676 19.8911 174.695 20.8762C173.745 21.8711 164.644 30.622 149.356 36.3483C143.613 38.5278 137.621 39.9822 131.519 40.6779C118.668 42.1352 102.905 40.5514 85.4141 31.5335C47.61 12.0432 21.0729 38.0317 20.8405 38.3242C18.8503 40.2978 16.1637 41.4057 13.363 41.4078C10.5623 41.4098 7.87312 40.3059 5.87823 38.3353V38.3353ZM165.278 54.9487C165.045 55.2412 138.508 81.2297 100.704 61.7394C73.9127 48.0093 51.1087 51.4826 36.7624 56.9246C22.416 62.3667 12.373 71.4019 11.4233 72.3968C10.442 73.3819 9.66412 74.5511 9.13396 75.8377C8.60381 77.1242 8.3318 78.5029 8.33346 79.8951C8.33512 81.2872 8.61042 82.6655 9.14365 83.9513C9.67688 85.237 10.4576 86.4051 11.4412 87.3888C12.4248 88.3724 13.5921 89.1524 14.8763 89.6842C16.1606 90.216 17.5367 90.4892 18.926 90.4882C20.3154 90.4871 21.6908 90.2119 22.9738 89.6782C24.2568 89.1445 25.4222 88.3628 26.4035 87.3777C26.6359 87.0851 53.173 61.0967 90.977 80.587C108.468 89.6048 124.231 91.1887 137.082 89.7314C143.184 89.0356 149.176 87.5812 154.919 85.4018C170.207 79.6755 179.308 70.9245 180.258 69.9296C182.24 67.9401 183.351 65.2429 183.348 62.4313C183.344 59.6198 182.226 56.9242 180.24 54.9376C178.254 52.951 175.561 51.8361 172.755 51.8382C169.949 51.8403 167.259 52.9592 165.278 54.9487V54.9487ZM170.841 104.002C170.608 104.295 144.071 130.283 106.267 110.793C79.4757 97.0627 56.6717 100.536 42.3253 105.978C27.979 111.42 17.9359 120.455 16.9863 121.45C15.0045 123.44 13.8931 126.137 13.8964 128.949C13.8998 131.76 15.0177 134.456 17.0042 136.442C18.9907 138.429 21.683 139.544 24.489 139.542C27.295 139.54 29.9847 138.421 31.9664 136.431C32.1989 136.139 58.736 110.15 96.54 129.64C114.031 138.658 129.794 140.242 142.645 138.785C148.747 138.089 154.739 136.635 160.482 134.455C175.77 128.729 184.871 119.978 185.821 118.983C187.803 116.994 188.914 114.296 188.911 111.485C188.907 108.673 187.789 105.978 185.803 103.991C183.816 102.004 181.124 100.89 178.318 100.892C175.512 100.894 172.822 102.013 170.841 104.002V104.002Z" stroke="#FFE9BE" stroke-width="4"/>
</svg>
