<svg width="197" height="177" viewBox="0 0 197 177" fill="none" xmlns="http://www.w3.org/2000/svg">
<path d="M152.327 22.5459L24.4491 58.3652C22.7533 58.8402 20.9384 58.6225 19.4036 57.7599C17.8689 56.8974 16.7399 55.4606 16.2652 53.7658C15.7905 52.0709 16.0088 50.2568 16.8722 48.7225C17.7356 47.1882 19.1733 46.0594 20.8691 45.5844L129.566 15.138C131.261 14.663 132.699 13.5341 133.562 11.9998C134.426 10.4655 134.644 8.65142 134.169 6.95658C133.695 5.26174 132.566 3.82501 131.031 2.96245C129.496 2.09988 127.681 1.88215 125.986 2.35715L17.2891 32.8036C12.2142 34.2478 7.91513 37.6376 5.3282 42.2347C2.74127 46.8318 2.07603 52.2638 3.47738 57.3477L32.1172 159.594C33.5606 164.666 36.9507 168.962 41.5493 171.547C46.1478 174.131 51.5821 174.795 56.6689 173.393L184.547 137.573C187.939 136.623 190.814 134.366 192.541 131.297C194.268 128.228 194.704 124.6 193.755 121.21L168.695 31.7447C167.746 28.355 165.488 25.4816 162.418 23.7565C159.349 22.0313 155.719 21.5959 152.327 22.5459ZM142.35 97.7045C140.453 98.2358 138.441 98.193 136.569 97.5815C134.696 96.97 133.048 95.8173 131.831 94.2691C130.615 92.7208 129.885 90.8467 129.734 88.8836C129.583 86.9205 130.018 84.9567 130.984 83.2404C131.95 81.5241 133.403 80.1325 135.16 79.2415C136.917 78.3505 138.898 78.0002 140.854 78.2349C142.81 78.4695 144.652 79.2785 146.147 80.5597C147.643 81.8408 148.724 83.5365 149.255 85.4324C149.967 87.9747 149.64 90.6958 148.345 92.9973C147.05 95.2987 144.893 96.992 142.35 97.7045Z" stroke="#FFE9BE" stroke-width="4"/>
</svg>
