<svg width="198" height="238" viewBox="0 0 198 238" fill="none" xmlns="http://www.w3.org/2000/svg">
<path d="M105.993 127.257L104.424 127.697L104.538 129.323C104.767 132.566 104.739 135.798 104.645 138.981C92.4729 145.501 82.0052 155.852 75.7223 169.509C72.0218 177.553 70.1984 185.91 69.7383 194.138C64.0744 194.961 57.4498 193.988 50.5747 190.825C29.2803 181.029 23.0679 167.971 24.6754 157.857C26.3049 147.605 36.0926 139.178 49.3189 138.748C61.8848 138.34 71.2443 129.632 77.3683 121.496L78.3786 120.154L77.2309 118.927C73.6162 115.064 71.0558 110.368 69.8274 105.425L69.4258 103.809L67.7639 103.911C45.9071 105.253 26.6946 99.7314 14.9601 89.9167C9.11308 85.0263 5.15276 79.102 3.555 72.4352C1.95958 65.7781 2.67821 58.2085 6.48166 49.9407C16.2813 28.6388 29.3065 22.3854 39.3626 23.9561C49.5461 25.5466 57.9056 35.2866 58.2689 48.5415L58.2692 48.5506L58.2695 48.5597C58.734 61.2756 67.5947 70.5814 75.8747 76.6527L77.2269 77.6442L78.4392 76.4858C82.1374 72.9516 86.7691 70.4852 91.8142 69.2956L93.4582 68.9079L93.3512 67.2222C91.9619 45.3466 97.4937 26.1112 107.331 14.3583C112.233 8.50174 118.172 4.533 124.852 2.92966C131.521 1.32871 139.099 2.04468 147.366 5.84765C168.664 15.6455 174.857 28.6677 173.24 38.7416C171.6 48.9543 161.804 57.3521 148.574 57.7837C135.9 58.1459 126.493 66.9607 120.416 75.2484L119.443 76.5763L120.559 77.7868C124.075 81.6 126.502 86.12 127.831 91.1439L128.252 92.7341L129.893 92.6282C151.84 91.2133 171.134 96.7438 182.922 106.598C188.797 111.508 192.777 117.46 194.385 124.156C195.991 130.842 195.273 138.441 191.459 146.732C189.936 150.043 188.26 152.958 186.572 155.608C180.399 147.99 172.592 141.839 163.714 137.621C154.31 133.152 143.983 130.985 133.587 131.289C130.249 126.68 126.124 122.789 121.961 119.738L120.634 118.765L119.423 119.881C115.611 123.395 111.084 125.83 105.993 127.257ZM140.281 199.208L139.445 201.025C146.453 204.249 149.506 212.504 146.282 219.512L144.062 224.338C139.595 234.049 128.24 238.249 118.529 233.781L91.3878 221.296L98.5971 205.624L125.738 218.11L127.555 218.946L128.391 217.129L132.831 207.476L133.667 205.66L131.85 204.824L114.362 196.778L121.571 181.107L139.059 189.152L140.876 189.988L141.712 188.171L146.153 178.519L146.989 176.702L145.172 175.866L118.031 163.38L125.24 147.709L152.381 160.195C157.019 162.328 160.62 166.217 162.391 171.006C164.162 175.794 163.958 181.09 161.824 185.728L159.604 190.554C156.38 197.563 148.125 200.615 141.117 197.391L140.281 199.208ZM87.5008 93.0599C84.6078 99.3485 87.1648 106.802 93.6939 109.806C99.898 112.66 107.531 109.937 110.44 103.613C113.349 97.2885 110.451 89.7209 104.247 86.8668C97.7175 83.8631 90.3937 86.7714 87.5008 93.0599Z" stroke="#D4FFC6" stroke-width="4"/>
</svg>
