<svg width="216" height="217" viewBox="0 0 216 217" fill="none" xmlns="http://www.w3.org/2000/svg">
<path d="M71.3665 151.44L61.7364 112.191C60.6776 107.876 60.5086 103.531 61.1313 99.3061M155.973 130.681L149.361 103.734M73.0087 76.9C79.1446 71.0299 86.7289 66.8938 94.9866 64.9145C114.277 60.1814 133.308 67.4421 142.179 81.5908M98.8245 153.673L94.3052 135.254M132.667 145.369L121.982 101.822C119.859 93.167 110.563 88.0026 101.214 90.2965C91.8653 92.5904 86.016 101.471 88.1397 110.126L89.788 116.844" stroke="#D4FFC6" stroke-width="4" stroke-linecap="round" stroke-linejoin="round"/>
<path d="M126.125 191.825C79.3968 203.29 32.2245 174.706 20.7592 127.977C9.29389 81.249 37.8784 34.0767 84.6067 22.6114C131.335 11.1461 178.507 39.7306 189.973 86.4589C192.095 95.0652 192.888 103.945 192.325 112.792M152.623 171.868L173.697 184.638L205.62 131.955" stroke="#D4FFC6" stroke-width="4" stroke-linecap="round" stroke-linejoin="round"/>
</svg>
