<svg width="56" height="55" viewBox="0 0 56 55" fill="none" xmlns="http://www.w3.org/2000/svg">
<path d="M23.1049 3.40467C25.0538 -0.73771 30.9462 -0.73771 32.8951 3.40467C34.1609 6.09511 37.3607 7.25975 40.0597 6.01238C44.2153 4.09184 48.7292 7.87944 47.5594 12.3054C46.7997 15.18 48.5023 18.129 51.3716 18.9083C55.7895 20.1083 56.8127 25.9112 53.0717 28.5498C50.6419 30.2635 50.0506 33.617 51.7477 36.0584C54.3607 39.8173 51.4145 44.9204 46.8526 44.5369C43.8898 44.2879 41.2812 46.4767 41.012 49.4378C40.5974 53.9969 35.0603 56.0123 31.8122 52.7863C29.7026 50.691 26.2974 50.691 24.1878 52.7863C20.9397 56.0123 15.4026 53.9969 14.988 49.4378C14.7188 46.4767 12.1103 44.2879 9.14737 44.5369C4.58553 44.9204 1.6393 39.8173 4.25227 36.0584C5.94938 33.617 5.35808 30.2635 2.9283 28.5498C-0.812726 25.9112 0.210486 20.1083 4.62835 18.9083C7.49772 18.129 9.20031 15.18 8.44057 12.3054C7.27082 7.87944 11.7847 4.09184 15.9403 6.01238C18.6393 7.25975 21.8391 6.09511 23.1049 3.40467Z" fill="#6A79CA"/>
</svg>
