<svg width="147" height="147" viewBox="0 0 147 147" fill="none" xmlns="http://www.w3.org/2000/svg">
<path d="M53.5255 9.54286C54.4797 5.59169 59.4994 4.36975 62.1629 7.44033L72.374 19.2123C77.1752 24.7475 85.2729 26.0038 91.5256 22.1836L104.824 14.059C108.292 11.9398 112.706 14.6252 112.418 18.6798L111.314 34.2242C110.795 41.5331 115.633 48.1474 122.755 49.8674L137.903 53.5255C141.855 54.4797 143.076 59.4994 140.006 62.1629L128.234 72.374C122.699 77.1752 121.442 85.2729 125.263 91.5256L133.387 104.824C135.506 108.292 132.821 112.706 128.766 112.418L113.222 111.314C105.913 110.795 99.2989 115.633 97.5788 122.755L93.9207 137.903C92.9665 141.855 87.9468 143.076 85.2834 140.006L75.0723 128.234C70.271 122.699 62.1734 121.442 55.9207 125.263L42.6227 133.387C39.1541 135.506 34.7406 132.821 35.0284 128.766L36.1322 113.222C36.6511 105.913 31.8136 99.2989 24.691 97.5788L9.54286 93.9207C5.59169 92.9665 4.36975 87.9468 7.44033 85.2834L19.2123 75.0723C24.7475 70.271 26.0038 62.1734 22.1836 55.9207L14.059 42.6227C11.9398 39.1541 14.6252 34.7405 18.6798 35.0284L34.2242 36.1322C41.5332 36.6511 48.1474 31.8136 49.8674 24.6909L53.5255 9.54286Z" stroke="#6A79CA" stroke-width="10"/>
</svg>
