<svg width="120" height="129" viewBox="0 0 120 129" fill="none" xmlns="http://www.w3.org/2000/svg">
<path d="M60.6612 129H51.3289C48.8539 129 46.4802 128.011 44.73 126.251C42.9799 124.491 41.9967 122.104 41.9967 119.615L42.0113 94.447C42.0116 94.2409 41.9579 94.0384 41.8556 93.8599C41.7534 93.6813 41.6061 93.533 41.4287 93.4298C41.2514 93.3266 41.0501 93.2723 40.8452 93.2722C40.6403 93.2721 40.4389 93.3263 40.2615 93.4294L18.5815 106.058C16.473 107.282 13.9673 107.613 11.6156 106.98C9.26394 106.346 7.25881 104.799 6.04126 102.679L1.22932 94.2798L1.21182 94.2505C0.0270822 92.1312 -0.283458 89.629 0.346956 87.2818C0.977371 84.9347 2.49841 82.9299 4.5831 81.6986L26.3418 69.0147C26.5186 68.9116 26.6653 68.7636 26.7673 68.5855C26.8693 68.4074 26.923 68.2055 26.923 68C26.923 67.7945 26.8693 67.5926 26.7673 67.4145C26.6653 67.2364 26.5186 67.0884 26.3418 66.9853L4.60351 54.3131C3.55685 53.7096 2.63906 52.904 1.90286 51.9428C1.16667 50.9815 0.626565 49.8835 0.313577 48.7117C0.000589864 47.5399 -0.0791164 46.3175 0.0790352 45.1147C0.237187 43.9118 0.630082 42.7523 1.23515 41.7025L6.0296 33.3297C6.63542 32.2712 7.44408 31.3441 8.40874 30.602C9.37339 29.86 10.4749 29.3178 11.6494 29.0069C12.8105 28.6936 14.0219 28.6152 15.2134 28.7763C16.4048 28.9374 17.5527 29.3348 18.5902 29.9454L40.2615 42.556C40.4389 42.659 40.6403 42.7132 40.8452 42.7131C41.0501 42.713 41.2514 42.6587 41.4287 42.5555C41.6061 42.4524 41.7534 42.304 41.8556 42.1255C41.9579 41.9469 42.0116 41.7444 42.0113 41.5383L41.9967 16.3846C41.9967 13.8957 42.9799 11.5086 44.73 9.74869C46.4802 7.98873 48.8539 7 51.3289 7H60.6612C63.1363 7 65.51 7.98873 67.2601 9.74869C69.0102 11.5086 69.9935 13.8957 69.9935 16.3846V41.5237C69.9931 41.7297 70.0468 41.9322 70.1491 42.1108C70.2514 42.2894 70.3986 42.4377 70.576 42.5409C70.7534 42.644 70.9546 42.6984 71.1596 42.6985C71.3645 42.6985 71.5658 42.6443 71.7432 42.5413L93.4232 29.9131C95.5323 28.6914 98.0371 28.361 100.388 28.9944C102.739 29.6278 104.744 31.1732 105.963 33.2916L110.772 41.6908L110.79 41.7172C111.988 43.8388 112.304 46.3507 111.668 48.7053C111.032 51.0599 109.496 53.0662 107.395 54.2867L85.66 66.956C85.4832 67.0591 85.3365 67.2071 85.2345 67.3852C85.1325 67.5633 85.0788 67.7652 85.0788 67.9707C85.0788 68.1762 85.1325 68.3781 85.2345 68.5562C85.3365 68.7343 85.4832 68.8823 85.66 68.9854L107.395 81.6546C108.442 82.2582 109.36 83.0637 110.096 84.0249C110.832 84.9861 111.373 86.084 111.686 87.2557C111.999 88.4274 112.079 89.6497 111.921 90.8526C111.764 92.0555 111.371 93.2152 110.767 94.2652L105.972 102.638C105.366 103.697 104.558 104.624 103.593 105.366C102.628 106.108 101.527 106.65 100.352 106.961C99.1913 107.274 97.9799 107.353 96.7884 107.191C95.597 107.03 94.4492 106.633 93.4116 106.022L71.7403 93.4118C71.5631 93.3089 71.362 93.2547 71.1574 93.2546C70.9527 93.2546 70.7516 93.3087 70.5743 93.4115C70.397 93.5143 70.2497 93.6622 70.1473 93.8404C70.0448 94.0185 69.9907 94.2207 69.9905 94.4265L69.9935 119.615C69.9935 122.104 69.0102 124.491 67.2601 126.251C65.51 128.011 63.1363 129 60.6612 129Z" fill="#D4FFC6"/>
<mask id="path-2-inside-1_109_318" fill="white">
<path d="M68.6612 121H59.3289C56.8539 121 54.4802 120.019 52.73 118.274C50.9799 116.528 49.9967 114.161 49.9967 111.692L50.0113 86.7302C50.0116 86.5259 49.9579 86.325 49.8556 86.1479C49.7534 85.9708 49.6061 85.8237 49.4287 85.7214C49.2514 85.619 49.0501 85.5651 48.8452 85.5651C48.6403 85.565 48.4389 85.6187 48.2615 85.7209L26.5815 98.2456C24.473 99.4597 21.9673 99.7887 19.6156 99.1603C17.2639 98.5319 15.2588 96.9976 14.0413 94.8948L9.22932 86.5644L9.21182 86.5354C8.02708 84.4334 7.71654 81.9517 8.34696 79.6238C8.97737 77.2959 10.4984 75.3076 12.5831 74.0863L34.3418 61.5064C34.5186 61.4041 34.6653 61.2573 34.7673 61.0807C34.8693 60.9041 34.923 60.7038 34.923 60.5C34.923 60.2962 34.8693 60.0959 34.7673 59.9193C34.6653 59.7427 34.5186 59.5959 34.3418 59.4936L12.6035 46.9253C11.5568 46.3267 10.6391 45.5278 9.90286 44.5744C9.16667 43.621 8.62656 42.532 8.31358 41.3698C8.00059 40.2076 7.92088 38.9952 8.07904 37.8022C8.23719 36.6093 8.63008 35.4592 9.23515 34.4181L14.0296 26.1139C14.6354 25.064 15.4441 24.1445 16.4087 23.4086C17.3734 22.6726 18.4749 22.1349 19.6494 21.8265C20.8105 21.5158 22.0219 21.438 23.2134 21.5978C24.4048 21.7575 25.5527 22.1517 26.5902 22.7573L48.2615 35.2645C48.4389 35.3667 48.6403 35.4205 48.8452 35.4204C49.0501 35.4203 49.2514 35.3664 49.4287 35.2641C49.6061 35.1618 49.7534 35.0147 49.8556 34.8375C49.9579 34.6604 50.0116 34.4596 50.0113 34.2552L49.9967 9.30769C49.9967 6.83914 50.9799 4.47169 52.73 2.72616C54.4802 0.980629 56.8539 0 59.3289 0H68.6612C71.1363 0 73.51 0.980629 75.2601 2.72616C77.0102 4.47169 77.9934 6.83914 77.9934 9.30769V34.2407C77.9931 34.445 78.0468 34.6459 78.1491 34.823C78.2514 35.0001 78.3986 35.1472 78.576 35.2495C78.7534 35.3519 78.9546 35.4058 79.1596 35.4059C79.3645 35.4059 79.5658 35.3522 79.7432 35.25L101.423 22.7253C103.532 21.5136 106.037 21.1859 108.388 21.8141C110.739 22.4423 112.744 23.9751 113.963 26.0761L118.772 34.4065L118.79 34.4326C119.988 36.5368 120.304 39.0282 119.668 41.3635C119.032 43.6988 117.496 45.6886 115.395 46.8991L93.66 59.4645C93.4832 59.5668 93.3365 59.7136 93.2345 59.8902C93.1325 60.0668 93.0788 60.2671 93.0788 60.4709C93.0788 60.6747 93.1325 60.875 93.2345 61.0516C93.3365 61.2282 93.4832 61.375 93.66 61.4773L115.395 74.0427C116.442 74.6413 117.36 75.4402 118.096 76.3935C118.832 77.3469 119.373 78.4358 119.686 79.5979C119.999 80.76 120.079 81.9723 119.921 83.1653C119.764 84.3583 119.371 85.5085 118.767 86.5499L113.972 94.8541C113.366 95.904 112.558 96.8235 111.593 97.5594C110.628 98.2954 109.527 98.8331 108.352 99.1415C107.191 99.4522 105.98 99.53 104.788 99.3702C103.597 99.2105 102.449 98.8163 101.412 98.2107L79.7403 85.7035C79.5631 85.6014 79.362 85.5477 79.1574 85.5476C78.9527 85.5476 78.7516 85.6012 78.5743 85.7032C78.397 85.8052 78.2497 85.9519 78.1473 86.1286C78.0448 86.3053 77.9907 86.5057 77.9905 86.7099L77.9934 111.692C77.9934 114.161 77.0102 116.528 75.2601 118.274C73.51 120.019 71.1363 121 68.6612 121Z"/>
</mask>
<path d="M49.9967 111.692L43.9967 111.689V111.692H49.9967ZM50.0113 86.7302L44.0113 86.7214V86.7267L50.0113 86.7302ZM48.2615 85.7209L45.2674 80.5214L45.2601 80.5256L48.2615 85.7209ZM26.5815 98.2456L29.5754 103.445L29.5829 103.441L26.5815 98.2456ZM14.0413 94.8948L8.84575 97.896L8.84886 97.9013L14.0413 94.8948ZM9.22932 86.5644L14.4248 83.5633L14.3981 83.517L14.3705 83.4711L9.22932 86.5644ZM9.21182 86.5354L3.9849 89.4814L4.02674 89.5557L4.07067 89.6287L9.21182 86.5354ZM12.5831 74.0863L9.57996 68.892L9.5651 68.9006L9.55028 68.9093L12.5831 74.0863ZM34.3418 61.5064L37.345 66.7007L37.3465 66.6998L34.3418 61.5064ZM34.3418 59.4936L37.3465 54.3002L37.345 54.2993L34.3418 59.4936ZM12.6035 46.9253L15.6067 41.731L15.5945 41.7239L15.5823 41.7169L12.6035 46.9253ZM9.23515 34.4181L14.4227 37.433L14.427 37.4256L14.4313 37.4181L9.23515 34.4181ZM14.0296 26.1139L19.2257 29.1139L19.2264 29.1127L14.0296 26.1139ZM19.6494 21.8265L21.173 27.6299L21.1869 27.6262L21.2007 27.6225L19.6494 21.8265ZM26.5902 22.7573L23.5656 27.9392L23.5783 27.9466L23.5911 27.9539L26.5902 22.7573ZM48.2615 35.2645L45.2623 40.4612L45.2674 40.4641L48.2615 35.2645ZM50.0113 34.2552L44.0113 34.2587L44.0113 34.2641L50.0113 34.2552ZM49.9967 9.30769H43.9967V9.3112L49.9967 9.30769ZM59.3289 0V-6V0ZM68.6612 0V-6V0ZM77.9934 34.2407L83.9934 34.2495V34.2407H77.9934ZM79.7432 35.25L82.7373 40.4495L82.7446 40.4453L79.7432 35.25ZM101.423 22.7253L98.4343 17.5228L98.4281 17.5264L98.4219 17.53L101.423 22.7253ZM113.963 26.0761L119.16 23.0763L119.153 23.0646L113.963 26.0761ZM118.772 34.4065L113.576 37.4062L113.675 37.5768L113.784 37.7405L118.772 34.4065ZM118.79 34.4326L124.004 31.4634L123.898 31.277L123.778 31.0986L118.79 34.4326ZM115.395 46.8991L112.4 41.7004L112.392 41.7047L115.395 46.8991ZM93.66 59.4645L90.657 54.2701L90.6553 54.2711L93.66 59.4645ZM93.66 61.4773L90.6553 66.6707L90.657 66.6718L93.66 61.4773ZM115.395 74.0427L112.392 79.2371L112.404 79.2441L112.416 79.2509L115.395 74.0427ZM118.767 86.5499L113.578 83.5375L113.574 83.5437L113.571 83.5499L118.767 86.5499ZM113.972 94.8541L108.776 91.8541L108.775 91.8553L113.972 94.8541ZM108.352 99.1415L106.829 93.3382L106.815 93.3418L106.801 93.3455L108.352 99.1415ZM101.412 98.2107L104.436 93.0288L104.423 93.0214L104.411 93.0141L101.412 98.2107ZM79.7403 85.7035L82.7395 80.5068L82.7344 80.5039L79.7403 85.7035ZM77.9905 86.7099L71.9905 86.7037L71.9905 86.7106L77.9905 86.7099ZM77.9934 111.692H83.9934V111.692L77.9934 111.692ZM68.6612 115H59.3289V127H68.6612V115ZM59.3289 115C58.4401 115 57.5908 114.648 56.9671 114.026L48.493 122.522C51.3696 125.391 55.2677 127 59.3289 127V115ZM56.9671 114.026C56.3439 113.404 55.9967 112.564 55.9967 111.692H43.9967C43.9967 115.757 45.6159 119.653 48.493 122.522L56.9671 114.026ZM55.9967 111.696L56.0113 86.7337L44.0113 86.7267L43.9967 111.689L55.9967 111.696ZM56.0113 86.7391C56.0131 85.4777 55.6817 84.239 55.0517 83.1477L44.6596 89.1481C44.234 88.4111 44.01 87.574 44.0113 86.7214L56.0113 86.7391ZM55.0517 83.1477C54.4216 82.0564 53.5156 81.1521 52.4266 80.524L46.4308 90.9187C45.6967 90.4953 45.0852 89.8851 44.6596 89.1481L55.0517 83.1477ZM52.4266 80.524C51.3377 79.8959 50.1033 79.5655 48.8474 79.5651L48.843 91.5651C47.9969 91.5648 47.165 91.3422 46.4308 90.9187L52.4266 80.524ZM48.8474 79.5651C47.5915 79.5646 46.3568 79.894 45.2674 80.5214L51.2556 90.9205C50.521 91.3435 49.689 91.5654 48.843 91.5651L48.8474 79.5651ZM45.2601 80.5256L23.5801 93.0502L29.5829 103.441L51.2629 90.9163L45.2601 80.5256ZM23.5876 93.0459C22.8555 93.4675 21.9834 93.5825 21.1645 93.3637L18.0668 104.957C21.9512 105.995 26.0905 105.452 29.5754 103.445L23.5876 93.0459ZM21.1645 93.3637C20.346 93.1449 19.6528 92.6122 19.2337 91.8883L8.84886 97.9013C10.8648 101.383 14.1819 103.919 18.0668 104.957L21.1645 93.3637ZM19.2368 91.8937L14.4248 83.5633L4.03381 89.5656L8.84576 97.896L19.2368 91.8937ZM14.3705 83.4711L14.353 83.442L4.07067 89.6287L4.08817 89.6578L14.3705 83.4711ZM14.4387 83.5893C14.0271 82.859 13.9199 81.9987 14.1384 81.1921L2.55556 78.0554C1.51316 81.9047 2.02705 86.0078 3.9849 89.4814L14.4387 83.5893ZM14.1384 81.1921C14.3569 80.3852 14.8854 79.6913 15.6159 79.2634L9.55028 68.9093C6.11139 70.9238 3.59786 74.2065 2.55556 78.0554L14.1384 81.1921ZM15.5862 79.2807L37.345 66.7007L31.3387 56.3121L9.57996 68.892L15.5862 79.2807ZM37.3465 66.6998C38.4319 66.0719 39.3347 65.1694 39.9631 64.0813L29.5715 58.0801C29.9959 57.3452 30.6053 56.7364 31.3371 56.313L37.3465 66.6998ZM39.9631 64.0813C40.5916 62.9931 40.923 61.758 40.923 60.5H28.923C28.923 59.6496 29.1471 58.8151 29.5715 58.0801L39.9631 64.0813ZM40.923 60.5C40.923 59.242 40.5916 58.0069 39.9631 56.9187L29.5715 62.9199C29.1471 62.1849 28.923 61.3504 28.923 60.5H40.923ZM39.9631 56.9187C39.3347 55.8306 38.4319 54.9281 37.3465 54.3002L31.3371 64.687C30.6053 64.2636 29.9959 63.6548 29.5715 62.9199L39.9631 56.9187ZM37.345 54.2993L15.6067 41.731L9.60035 52.1196L31.3387 64.6879L37.345 54.2993ZM15.5823 41.7169C15.2207 41.5101 14.9047 41.2347 14.6518 40.9073L5.15392 48.2415C6.37346 49.8208 7.89303 51.1433 9.62477 52.1337L15.5823 41.7169ZM14.6518 40.9073C14.399 40.5799 14.2141 40.2067 14.1072 39.8095L2.52 42.9301C3.039 44.8572 3.93436 46.6621 5.15392 48.2415L14.6518 40.9073ZM14.1072 39.8095C14.0002 39.4123 13.973 38.9982 14.027 38.5908L2.13107 37.0137C1.86878 38.9923 2.001 41.0029 2.52 42.9301L14.1072 39.8095ZM14.027 38.5908C14.081 38.1833 14.2153 37.7899 14.4227 37.433L4.04763 31.4032C3.0449 33.1285 2.39336 35.0352 2.13107 37.0137L14.027 38.5908ZM14.4313 37.4181L19.2257 29.1139L8.83345 23.1139L4.039 31.4181L14.4313 37.4181ZM19.2264 29.1127C19.435 28.7513 19.714 28.4337 20.048 28.1789L12.7695 18.6383C11.1742 19.8553 9.83587 21.3768 8.83278 23.115L19.2264 29.1127ZM20.048 28.1789C20.3821 27.924 20.7644 27.7371 21.173 27.6299L18.1257 16.0232C16.1853 16.5327 14.3647 17.4213 12.7695 18.6383L20.048 28.1789ZM21.2007 27.6225C21.5964 27.5166 22.0096 27.49 22.4159 27.5445L24.0108 15.651C22.0342 15.3859 20.0245 15.5149 18.098 16.0306L21.2007 27.6225ZM22.4159 27.5445C22.8223 27.599 23.213 27.7334 23.5656 27.9392L29.6149 17.5755C27.8923 16.57 25.9874 15.9161 24.0108 15.651L22.4159 27.5445ZM23.5911 27.9539L45.2623 40.4612L51.2606 30.0679L29.5894 17.5607L23.5911 27.9539ZM45.2674 40.4641C46.3569 41.0915 47.5916 41.4209 48.8474 41.4204L48.843 29.4204C49.6889 29.4201 50.521 29.642 51.2556 30.065L45.2674 40.4641ZM48.8474 41.4204C50.1032 41.4199 51.3377 41.0896 52.4266 40.4615L46.4308 30.0667C47.165 29.6432 47.9969 29.4207 48.843 29.4204L48.8474 41.4204ZM52.4266 40.4615C53.5157 39.8333 54.4217 38.9289 55.0517 37.8377L44.6596 31.8374C45.0851 31.1004 45.6965 30.4903 46.4308 30.0667L52.4266 40.4615ZM55.0517 37.8377C55.6817 36.7465 56.0131 35.5078 56.0113 34.2463L44.0113 34.2641C44.01 33.4114 44.2341 32.5743 44.6596 31.8374L55.0517 37.8377ZM56.0113 34.2517L55.9967 9.30418L43.9967 9.3112L44.0113 34.2587L56.0113 34.2517ZM55.9967 9.30769C55.9967 8.43555 56.3439 7.59592 56.9671 6.97439L48.493 -1.52207C45.6159 1.34746 43.9967 5.24273 43.9967 9.30769H55.9967ZM56.9671 6.97439C57.5908 6.35232 58.4401 6 59.3289 6V-6C55.2677 -6 51.3696 -4.39106 48.493 -1.52207L56.9671 6.97439ZM59.3289 6H68.6612V-6H59.3289V6ZM68.6612 6C69.5501 6 70.3993 6.35232 71.023 6.97439L79.4971 -1.52207C76.6206 -4.39106 72.7225 -6 68.6612 -6V6ZM71.023 6.97439C71.6462 7.59592 71.9934 8.43554 71.9934 9.30769H83.9934C83.9934 5.24273 82.3742 1.34746 79.4971 -1.52207L71.023 6.97439ZM71.9934 9.30769V34.2407H83.9934V9.30769H71.9934ZM71.9935 34.2318C71.9916 35.4933 72.323 36.732 72.953 37.8232L83.3451 31.8228C83.7707 32.5598 83.9947 33.3968 83.9934 34.2495L71.9935 34.2318ZM72.953 37.8232C73.583 38.9143 74.4889 39.8187 75.5781 40.4469L81.5739 30.0522C82.3082 30.4758 82.9197 31.086 83.3451 31.8228L72.953 37.8232ZM75.5781 40.4469C76.667 41.075 77.9015 41.4054 79.1573 41.4059L79.1618 29.4059C80.0078 29.4062 80.8397 29.6287 81.5739 30.0522L75.5781 40.4469ZM79.1573 41.4059C80.4132 41.4063 81.6479 41.0769 82.7373 40.4495L76.7492 30.0504C77.4836 29.6275 78.3157 29.4055 79.1618 29.4059L79.1573 41.4059ZM82.7446 40.4453L104.425 27.9207L98.4219 17.53L76.7419 30.0546L82.7446 40.4453ZM104.412 27.9278C105.146 27.5063 106.019 27.3916 106.839 27.6107L109.937 16.0175C106.055 14.9802 101.919 15.5209 98.4343 17.5228L104.412 27.9278ZM106.839 27.6107C107.659 27.8298 108.353 28.3629 108.774 29.0875L119.153 23.0646C117.135 19.5872 113.819 17.0548 109.937 16.0175L106.839 27.6107ZM108.767 29.0758L113.576 37.4062L123.969 31.4067L119.16 23.0763L108.767 29.0758ZM113.784 37.7405L113.802 37.7667L123.778 31.0986L123.761 31.0724L113.784 37.7405ZM113.576 37.4019C113.989 38.1273 114.097 38.9842 113.879 39.7871L125.457 42.9398C126.51 39.0721 125.987 34.9463 124.004 31.4634L113.576 37.4019ZM113.879 39.7871C113.66 40.5903 113.13 41.2794 112.4 41.7004L118.391 52.0979C121.862 50.0978 124.404 46.8072 125.457 42.9398L113.879 39.7871ZM112.392 41.7047L90.657 54.2701L96.6629 64.659L118.398 52.0936L112.392 41.7047ZM90.6553 54.2711C89.57 54.899 88.6671 55.8014 88.0387 56.8896L98.4303 62.8908C98.0058 63.6258 97.3964 64.2346 96.6647 64.658L90.6553 54.2711ZM88.0387 56.8896C87.4102 57.9779 87.0788 59.2129 87.0788 60.4709H99.0788C99.0788 61.3213 98.8547 62.1558 98.4303 62.8908L88.0387 56.8896ZM87.0788 60.4709C87.0788 61.7289 87.4102 62.964 88.0387 64.0522L98.4303 58.051C98.8547 58.786 99.0788 59.6206 99.0788 60.4709H87.0788ZM88.0387 64.0522C88.6671 65.1405 89.57 66.0429 90.6553 66.6707L96.6647 56.2839C97.3963 56.7072 98.0058 57.316 98.4303 58.051L88.0387 64.0522ZM90.657 66.6718L112.392 79.2371L118.398 68.8482L96.6629 56.2829L90.657 66.6718ZM112.416 79.2509C112.778 79.4579 113.094 79.7334 113.347 80.061L122.845 72.726C121.625 71.1471 120.106 69.8248 118.374 68.8345L112.416 79.2509ZM113.347 80.061C113.6 80.3886 113.785 80.762 113.893 81.1594L125.479 78.0363C124.96 76.1096 124.064 74.305 122.845 72.726L113.347 80.061ZM113.893 81.1594C114 81.5568 114.027 81.9712 113.973 82.3789L125.87 83.9518C126.131 81.9734 125.998 79.9631 125.479 78.0363L113.893 81.1594ZM113.973 82.3789C113.919 82.7866 113.785 83.1803 113.578 83.5375L123.956 89.5623C124.957 87.8367 125.608 85.9301 125.87 83.9518L113.973 82.3789ZM113.571 83.5499L108.776 91.8541L119.168 97.8541L123.963 89.5499L113.571 83.5499ZM108.775 91.8553C108.567 92.2167 108.288 92.5343 107.954 92.7891L115.232 102.33C116.828 101.113 118.166 99.5912 119.169 97.853L108.775 91.8553ZM107.954 92.7891C107.62 93.044 107.237 93.2309 106.829 93.3382L109.876 104.945C111.816 104.435 113.637 103.547 115.232 102.33L107.954 92.7891ZM106.801 93.3455C106.405 93.4514 105.992 93.478 105.586 93.4235L103.991 105.317C105.968 105.582 107.977 105.453 109.904 104.937L106.801 93.3455ZM105.586 93.4235C105.18 93.369 104.789 93.2346 104.436 93.0288L98.3869 103.393C100.11 104.398 102.014 105.052 103.991 105.317L105.586 93.4235ZM104.411 93.0141L82.7395 80.5068L76.7412 90.9001L98.4124 103.407L104.411 93.0141ZM82.7344 80.5039C81.6463 79.8773 80.4132 79.5479 79.1589 79.5476L79.1558 91.5476C78.3108 91.5474 77.4799 91.3255 76.7463 90.9031L82.7344 80.5039ZM79.1589 79.5476C77.9046 79.5473 76.6713 79.8761 75.5829 80.5021L81.5657 90.9043C80.8319 91.3264 80.0008 91.5478 79.1558 91.5476L79.1589 79.5476ZM75.5829 80.5021C74.4943 81.1282 73.5881 82.0301 72.9569 83.1186L83.3377 89.1385C82.9114 89.8736 82.2998 90.4821 81.5657 90.9043L75.5829 80.5021ZM72.9569 83.1186C72.3255 84.2073 71.9918 85.4437 71.9905 86.7037L83.9905 86.716C83.9897 87.5677 83.7641 88.4032 83.3377 89.1385L72.9569 83.1186ZM71.9905 86.7106L71.9934 111.693L83.9934 111.692L83.9905 86.7092L71.9905 86.7106ZM71.9934 111.692C71.9934 112.564 71.6462 113.404 71.023 114.026L79.4971 122.522C82.3742 119.653 83.9934 115.757 83.9934 111.692H71.9934ZM71.023 114.026C70.3993 114.648 69.5501 115 68.6612 115V127C72.7225 127 76.6206 125.391 79.4971 122.522L71.023 114.026Z" fill="#201F2E" mask="url(#path-2-inside-1_109_318)"/>
</svg>
