<svg width="32" height="35" viewBox="0 0 32 35" fill="none" xmlns="http://www.w3.org/2000/svg">
<path d="M16.9341 34.0575H14.329C13.638 34.0575 12.9754 33.7814 12.4868 33.2901C11.9982 32.7988 11.7238 32.1325 11.7238 31.4377L11.7278 24.4117C11.7279 24.3541 11.7129 24.2976 11.6844 24.2478C11.6558 24.1979 11.6147 24.1565 11.5652 24.1277C11.5157 24.0989 11.4595 24.0837 11.4023 24.0837C11.3451 24.0837 11.2889 24.0988 11.2394 24.1276L5.1872 27.6529C4.59859 27.9946 3.89912 28.0872 3.24262 27.9103C2.58612 27.7334 2.02636 27.3016 1.68648 26.7097L0.343176 24.365L0.338292 24.3568C0.00756026 23.7652 -0.0791301 23.0667 0.0968562 22.4114C0.272842 21.7562 0.697454 21.1966 1.27942 20.8528L7.35357 17.312C7.40292 17.2832 7.44388 17.2419 7.47236 17.1922C7.50083 17.1425 7.51582 17.0861 7.51582 17.0287C7.51582 16.9714 7.50083 16.915 7.47236 16.8653C7.44388 16.8156 7.40292 16.7743 7.35357 16.7455L1.28511 13.2079C0.992927 13.0394 0.736718 12.8145 0.531202 12.5462C0.325686 12.2779 0.174911 11.9713 0.0875381 11.6442C0.000164666 11.3171 -0.0220861 10.9759 0.0220634 10.6401C0.0662129 10.3043 0.175893 9.98058 0.344805 9.68755L1.68322 7.35019C1.85234 7.05469 2.07809 6.79588 2.34738 6.58873C2.61667 6.38159 2.92416 6.23024 3.25203 6.14344C3.57617 6.05597 3.91435 6.03408 4.24696 6.07905C4.57957 6.12402 4.89999 6.23496 5.18964 6.40542L11.2394 9.92579C11.2889 9.95455 11.3451 9.96968 11.4023 9.96966C11.4595 9.96964 11.5157 9.95446 11.5652 9.92566C11.6147 9.89686 11.6558 9.85546 11.6844 9.80561C11.7129 9.75576 11.7279 9.69922 11.7278 9.6417L11.7238 2.6198C11.7238 1.92499 11.9982 1.25863 12.4868 0.767323C12.9754 0.276014 13.638 0 14.329 0H16.9341C17.6251 0 18.2877 0.276014 18.7763 0.767323C19.2649 1.25863 19.5393 1.92499 19.5393 2.6198V9.63761C19.5393 9.69513 19.5542 9.75166 19.5828 9.80151C19.6113 9.85136 19.6524 9.89277 19.702 9.92157C19.7515 9.95037 19.8077 9.96554 19.8649 9.96557C19.9221 9.96559 19.9783 9.95045 20.0278 9.92169L26.08 6.39642C26.6687 6.05536 27.368 5.96313 28.0243 6.13994C28.6806 6.31676 29.2404 6.74818 29.5807 7.33955L30.9232 9.68427L30.9281 9.69164C31.2626 10.2839 31.3507 10.9851 31.1732 11.6424C30.9957 12.2997 30.5669 12.8598 29.9804 13.2005L23.9128 16.7373C23.8634 16.7661 23.8225 16.8074 23.794 16.8571C23.7655 16.9068 23.7505 16.9632 23.7505 17.0205C23.7505 17.0779 23.7655 17.1343 23.794 17.184C23.8225 17.2337 23.8634 17.275 23.9128 17.3038L29.9804 20.8405C30.2726 21.009 30.5288 21.2339 30.7344 21.5022C30.9399 21.7706 31.0907 22.0771 31.1782 22.4041C31.2656 22.7312 31.2879 23.0725 31.2439 23.4083C31.1999 23.7441 31.0903 24.0678 30.9216 24.3609L29.5831 26.6983C29.414 26.9938 29.1883 27.2526 28.919 27.4597C28.6497 27.6669 28.3422 27.8182 28.0143 27.905C27.6902 27.9925 27.352 28.0144 27.0194 27.9694C26.6868 27.9244 26.3664 27.8135 26.0767 27.643L20.027 24.1227C19.9775 24.0939 19.9214 24.0788 19.8643 24.0788C19.8071 24.0788 19.751 24.0939 19.7015 24.1226C19.652 24.1513 19.6109 24.1926 19.5823 24.2423C19.5537 24.2921 19.5386 24.3485 19.5385 24.4059L19.5393 31.4377C19.5393 32.1325 19.2649 32.7988 18.7763 33.2901C18.2877 33.7814 17.6251 34.0575 16.9341 34.0575Z" fill="#D4FFC6"/>
</svg>
