<svg width="767" height="767" viewBox="0 0 767 767" fill="none" xmlns="http://www.w3.org/2000/svg">
<path d="M388.906 14.2363L410.936 34.4332C420.856 43.5282 435.408 45.4439 447.344 39.2264L473.85 25.4194C477.531 23.5024 482.066 24.7176 484.294 28.2179L500.346 53.4283C507.575 64.7811 521.134 70.3976 534.273 67.4813L563.45 61.0052C567.501 60.106 571.567 62.4535 572.814 66.4114L581.794 94.9172C585.838 107.754 597.481 116.689 610.927 117.272L640.786 118.568C644.932 118.748 648.252 122.068 648.432 126.214L649.728 156.073C650.311 169.519 659.246 181.162 672.083 185.206L700.589 194.186C704.547 195.433 706.894 199.499 705.995 203.55L699.519 232.727C696.602 245.866 702.219 259.425 713.572 266.654L738.782 282.706C742.282 284.934 743.498 289.469 741.581 293.15L727.774 319.656C721.556 331.592 723.472 346.144 732.567 356.064L752.764 378.094C755.568 381.152 755.568 385.848 752.764 388.906L732.567 410.936C723.472 420.856 721.556 435.408 727.774 447.344L741.581 473.85C743.498 477.531 742.282 482.066 738.782 484.294L713.572 500.346C702.219 507.575 696.602 521.134 699.519 534.273L705.995 563.45C706.894 567.501 704.546 571.567 700.589 572.814L672.083 581.794C659.246 585.838 650.311 597.481 649.728 610.927L648.432 640.786C648.252 644.932 644.932 648.252 640.786 648.432L610.927 649.728C597.481 650.311 585.838 659.246 581.794 672.083L572.814 700.589C571.567 704.547 567.501 706.894 563.45 705.995L534.273 699.519C521.134 696.602 507.575 702.219 500.346 713.572L484.294 738.782C482.066 742.282 477.531 743.498 473.85 741.581L447.344 727.774C435.408 721.556 420.856 723.472 410.936 732.567L388.906 752.764C385.848 755.568 381.152 755.568 378.094 752.764L356.064 732.567C346.144 723.472 331.592 721.556 319.656 727.774L293.15 741.581C289.469 743.498 284.934 742.282 282.706 738.782L266.654 713.572C259.425 702.219 245.866 696.602 232.727 699.519L203.55 705.995C199.499 706.894 195.433 704.546 194.186 700.589L185.206 672.083C181.162 659.246 169.519 650.311 156.073 649.728L126.214 648.432C122.068 648.252 118.748 644.932 118.568 640.786L117.272 610.927C116.689 597.481 107.754 585.838 94.9172 581.794L66.4114 572.814C62.4535 571.567 60.106 567.501 61.0051 563.45L67.4813 534.273C70.3976 521.134 64.7811 507.575 53.4283 500.346L28.2179 484.294C24.7176 482.066 23.5024 477.531 25.4194 473.85L39.2264 447.344C45.444 435.408 43.5282 420.856 34.4332 410.936L14.2363 388.906C11.4321 385.848 11.4321 381.152 14.2363 378.094L34.4332 356.064C43.5282 346.144 45.4439 331.592 39.2264 319.656L25.4194 293.15C23.5024 289.469 24.7176 284.934 28.2179 282.706L53.4283 266.654C64.7811 259.425 70.3976 245.866 67.4813 232.727L61.0052 203.55C60.106 199.499 62.4535 195.433 66.4114 194.186L94.9172 185.206C107.754 181.162 116.689 169.519 117.272 156.073L118.568 126.214C118.748 122.068 122.068 118.748 126.214 118.568L156.073 117.272C169.519 116.689 181.162 107.754 185.206 94.9172L194.186 66.4114C195.433 62.4535 199.499 60.106 203.55 61.0051L232.727 67.4813C245.866 70.3976 259.425 64.7811 266.654 53.4283L282.706 28.2179C284.934 24.7176 289.469 23.5024 293.15 25.4194L319.656 39.2264C331.592 45.444 346.144 43.5282 356.064 34.4332L378.094 14.2363C381.152 11.4321 385.848 11.4321 388.906 14.2363Z" stroke="#E1E4F4" stroke-width="24"/>
</svg>
