<svg width="134" height="138" viewBox="0 0 134 138" fill="none" xmlns="http://www.w3.org/2000/svg">
<path d="M59.825 7.175C61.0319 -1.09716 72.9681 -1.09716 74.175 7.175C75.1316 13.7306 83.6542 15.6758 87.3604 10.1845C92.037 3.25519 102.791 8.43409 100.289 16.4107C98.3068 22.7321 105.141 28.1826 110.863 24.8431C118.083 20.6291 125.525 29.9612 119.81 36.0624C115.281 40.8976 119.074 48.7737 125.678 48.2475C134.012 47.5835 136.668 59.2204 128.872 62.2378C122.693 64.6291 122.693 73.3709 128.872 75.7622C136.668 78.7796 134.012 90.4165 125.678 89.7525C119.074 89.2263 115.281 97.1024 119.81 101.938C125.525 108.039 118.083 117.371 110.863 113.157C105.141 109.817 98.3068 115.268 100.289 121.589C102.791 129.566 92.037 134.745 87.3604 127.816C83.6542 122.324 75.1316 124.269 74.175 130.825C72.9681 139.097 61.0319 139.097 59.825 130.825C58.8684 124.269 50.3458 122.324 46.6396 127.816C41.963 134.745 31.2089 129.566 33.7106 121.589C35.6932 115.268 28.8586 109.817 23.1368 113.157C15.9169 117.371 8.4748 108.039 14.1897 101.938C18.7187 97.1024 14.9257 89.2263 8.32168 89.7525C-0.0116577 90.4165 -2.66769 78.7796 5.12849 75.7622C11.3069 73.3709 11.3069 64.6291 5.12849 62.2378C-2.66769 59.2204 -0.0116539 47.5835 8.32169 48.2475C14.9257 48.7737 18.7187 40.8976 14.1897 36.0624C8.4748 29.9612 15.9169 20.6291 23.1368 24.8431C28.8586 28.1826 35.6932 22.7321 33.7106 16.4107C31.2089 8.43409 41.963 3.25518 46.6396 10.1845C50.3458 15.6758 58.8684 13.7306 59.825 7.175Z" fill="white"/>
</svg>
