<svg width="215" height="232" viewBox="0 0 215 232" fill="none" xmlns="http://www.w3.org/2000/svg">
<path d="M74.9659 46.5258L26.402 74.5642C21.5352 77.374 17.984 82.0021 16.5295 87.4303C15.075 92.8585 15.8364 98.6421 18.6463 103.509L82.2133 213.61C85.0231 218.477 89.6512 222.028 95.0794 223.483C100.508 224.937 106.291 224.176 111.158 221.366L184.559 178.988C189.426 176.178 192.977 171.55 194.431 166.122C195.886 160.694 195.125 154.91 192.315 150.043L143.087 64.7789C141.682 62.346 139.368 60.571 136.654 59.8442L83.0048 45.469C80.291 44.7414 77.3993 45.1215 74.9659 46.5258V46.5258ZM95.4055 77.5422L84.811 59.192L128.228 70.8255L109.878 81.42C107.444 82.825 104.553 83.2057 101.839 82.4784C99.1245 81.7512 96.8104 79.9756 95.4055 77.5422ZM78.4747 111.784L81.8331 117.601L85.191 111.784C85.5363 111.177 85.9983 110.644 86.5504 110.216C87.1025 109.788 87.7338 109.473 88.408 109.29C89.0822 109.107 89.786 109.059 90.4787 109.149C91.1715 109.24 91.8396 109.466 92.4447 109.815C93.0497 110.164 93.5796 110.63 94.004 111.185C94.4284 111.74 94.7388 112.373 94.9173 113.048C95.0959 113.724 95.1391 114.428 95.0445 115.12C94.9499 115.812 94.7193 116.479 94.366 117.082L91.0081 122.898L97.7245 122.899C98.423 122.894 99.1157 123.028 99.7624 123.292C100.409 123.556 100.997 123.945 101.493 124.438C101.988 124.93 102.382 125.515 102.65 126.16C102.919 126.805 103.057 127.497 103.057 128.196C103.057 128.894 102.919 129.586 102.65 130.231C102.382 130.876 101.988 131.461 101.493 131.954C100.997 132.446 100.409 132.836 99.7623 133.1C99.1155 133.364 98.4229 133.497 97.7243 133.493L91.008 133.492L94.3664 139.31C95.0689 140.526 95.2592 141.972 94.8956 143.329C94.532 144.686 93.6442 145.843 92.4275 146.546C91.2108 147.248 89.7649 147.439 88.4078 147.075C87.0508 146.711 85.8938 145.823 85.1913 144.607L81.8329 138.79L78.4749 144.606C78.1297 145.214 77.6677 145.747 77.1156 146.175C76.5635 146.603 75.9321 146.917 75.2579 147.101C74.5837 147.284 73.88 147.331 73.1872 147.241C72.4944 147.151 71.8263 146.925 71.2213 146.576C70.6163 146.227 70.0864 145.761 69.662 145.206C69.2376 144.651 68.9272 144.018 68.7486 143.342C68.57 142.667 68.5268 141.963 68.6214 141.271C68.7161 140.579 68.9467 139.912 69.3 139.309L72.6579 133.493L65.9415 133.492C64.5427 133.483 63.2044 132.921 62.2185 131.928C61.2327 130.936 60.6794 129.594 60.6795 128.195C60.6795 126.796 61.2328 125.454 62.2186 124.462C63.2045 123.47 64.5428 122.907 65.9416 122.898L72.658 122.898L69.2996 117.081C68.5971 115.865 68.4067 114.419 68.7704 113.062C69.134 111.705 70.0218 110.548 71.2385 109.845C72.4552 109.143 73.9011 108.952 75.2581 109.316C76.6152 109.68 77.7722 110.567 78.4747 111.784ZM83.9621 163.667L129.838 137.18C131.054 136.478 132.5 136.288 133.857 136.651C135.214 137.015 136.371 137.903 137.074 139.119C137.776 140.336 137.967 141.782 137.603 143.139C137.239 144.496 136.352 145.653 135.135 146.356L89.2593 172.842C88.0426 173.544 86.5967 173.735 85.2397 173.371C83.8826 173.007 82.7256 172.12 82.0231 170.903C81.3207 169.686 81.1303 168.24 81.4939 166.883C81.8576 165.526 82.7454 164.369 83.9621 163.667ZM94.5566 182.017L140.432 155.531C141.649 154.828 143.095 154.638 144.452 155.001C145.809 155.365 146.966 156.253 147.668 157.47C148.371 158.686 148.561 160.132 148.198 161.489C147.834 162.846 146.946 164.003 145.729 164.706L99.8538 191.192C98.6371 191.894 97.1912 192.085 95.8342 191.721C94.4771 191.358 93.3201 190.47 92.6177 189.253C91.9152 188.036 91.7248 186.59 92.0885 185.233C92.4521 183.876 93.3399 182.719 94.5566 182.017Z" fill="white"/>
<path d="M139.569 42.0152L139.57 42.0153C141.515 42.5362 143.174 43.8084 144.181 45.5521C144.181 45.5523 144.182 45.5525 144.182 45.5526L193.409 130.816C195.821 134.994 196.474 139.959 195.226 144.619C193.977 149.278 190.929 153.251 186.751 155.663L113.35 198.041C109.172 200.453 104.208 201.107 99.548 199.858C94.8883 198.61 90.9155 195.561 88.5035 191.383L24.9365 81.2821C22.5245 77.1044 21.8708 72.1396 23.1194 67.4799C24.3679 62.8203 27.4164 58.8475 31.5941 56.4355L80.1574 28.3974C80.1576 28.3973 80.1578 28.3972 80.158 28.3971C81.9023 27.3907 83.9749 27.1183 85.92 27.6398L85.9204 27.6399L139.569 42.0152ZM89.2796 35.5674L82.2837 33.6928L85.905 39.9651L96.4996 58.3154C98.3023 61.4378 101.272 63.7162 104.754 64.6494C108.237 65.5826 111.948 65.094 115.07 63.2913L133.42 52.6968L139.693 49.0755L132.697 47.2009L89.2796 35.5674ZM85.5251 90.8741L84.7649 89.5574C83.6646 87.6516 81.8523 86.261 79.7267 85.6915C77.6012 85.1219 75.3364 85.4201 73.4306 86.5204C71.5249 87.6206 70.1343 89.4329 69.5647 91.5585C68.9952 93.6841 69.2933 95.9489 70.3936 97.8546L71.1538 99.1714L69.6339 99.1713L69.6239 99.1713L69.6139 99.1714C67.4229 99.1859 65.3266 100.066 63.7825 101.621L65.9108 103.735L63.7824 101.621C62.2383 103.175 61.3716 105.277 61.3716 107.468C61.3716 109.659 62.2382 111.761 63.7823 113.316C65.3264 114.87 67.4227 115.751 69.6137 115.766L69.6236 115.766L69.6335 115.766L71.1543 115.766L70.404 117.065C70.402 117.069 70.3999 117.072 70.3979 117.076C69.848 118.017 69.4889 119.058 69.3412 120.138C69.193 121.222 69.2607 122.325 69.5404 123.383C69.8202 124.44 70.3064 125.433 70.9711 126.302C71.6358 127.171 72.4658 127.9 73.4135 128.447C74.3612 128.994 75.4077 129.349 76.4927 129.49L76.8794 126.515L76.4928 129.49C77.5779 129.631 78.6802 129.556 79.7362 129.269C80.7922 128.982 81.781 128.489 82.6458 127.819C83.5076 127.151 84.2292 126.319 84.7694 125.372C84.7713 125.369 84.7732 125.366 84.7751 125.362L85.5251 124.063L86.2854 125.38C87.3857 127.286 89.1979 128.676 91.3235 129.246C93.4491 129.815 95.7139 129.517 97.6196 128.417C99.5254 127.317 100.916 125.504 101.486 123.379C102.055 121.253 101.757 118.988 100.657 117.083L99.8964 115.766L101.397 115.766C101.4 115.766 101.404 115.766 101.408 115.766C102.498 115.772 103.579 115.563 104.589 115.15C105.602 114.737 106.523 114.127 107.299 113.355C108.075 112.584 108.692 111.667 109.112 110.657L106.342 109.504L109.112 110.657C109.532 109.647 109.749 108.563 109.749 107.469C109.749 106.375 109.533 105.291 109.112 104.281C108.692 103.271 108.076 102.354 107.299 101.582C106.523 100.811 105.602 100.201 104.589 99.7875C103.579 99.3752 102.498 99.166 101.408 99.1717C101.404 99.1717 101.4 99.1718 101.397 99.1718L99.896 99.1716L100.646 97.8719C100.648 97.8685 100.65 97.8652 100.652 97.8619C101.202 96.9205 101.561 95.8799 101.709 94.7996C101.857 93.7154 101.79 92.6127 101.51 91.5548C101.23 90.4969 100.744 89.5048 100.079 88.6356C99.4145 87.7663 98.5844 87.0372 97.6368 86.4901C96.6891 85.943 95.6426 85.5887 94.5575 85.4477C93.4724 85.3067 92.3701 85.3817 91.3141 85.6684C90.2581 85.9551 89.2692 86.4479 88.4044 87.1184C87.5426 87.7865 86.821 88.618 86.2808 89.5651L85.5251 90.8741ZM92.8828 163.73L95.7806 164.507L92.8828 163.73C92.3133 165.856 92.6114 168.121 93.7117 170.026C94.812 171.932 96.6243 173.323 98.7498 173.892C100.875 174.462 103.14 174.164 105.046 173.063L150.922 146.577C152.827 145.477 154.218 143.664 154.787 141.539C155.357 139.413 155.059 137.148 153.959 135.243C152.858 133.337 151.046 131.946 148.92 131.377C146.795 130.807 144.53 131.105 142.624 132.206L96.7487 158.692C94.843 159.792 93.4524 161.605 92.8828 163.73ZM132.03 113.856L86.1542 140.342C84.2485 141.442 82.8579 143.254 82.2883 145.38C81.7188 147.506 82.0169 149.77 83.1172 151.676C84.2175 153.582 86.0298 154.972 88.1554 155.542C90.2809 156.112 92.5457 155.813 94.4515 154.713L140.327 128.227C142.233 127.127 143.623 125.314 144.193 123.189C144.763 121.063 144.464 118.798 143.364 116.893C142.264 114.987 140.451 113.596 138.326 113.027C136.2 112.457 133.936 112.755 132.03 113.856Z" stroke="#201F2E" stroke-width="6"/>
</svg>
