<svg width="255" height="266" viewBox="0 0 255 266" fill="none" xmlns="http://www.w3.org/2000/svg">
<path d="M97.7031 162.25L97.1716 166.743C96.0835 175.939 98.6932 185.191 104.427 192.463C110.16 199.736 118.548 204.433 127.744 205.521C136.941 206.609 146.193 203.999 153.465 198.266C160.737 192.532 165.434 184.145 166.522 174.948L168.045 162.08C163.116 159.653 159.204 155.563 157 150.531C154.797 145.499 154.442 139.85 156.001 134.583C157.559 129.315 160.93 124.768 165.516 121.745C170.103 118.723 175.611 117.419 181.066 118.064C186.521 118.709 191.573 121.263 195.327 125.273C199.082 129.282 201.298 134.49 201.584 139.976C201.87 145.462 200.208 150.872 196.89 155.251C193.573 159.629 188.814 162.694 183.456 163.903L181.933 176.772C180.362 190.055 173.577 202.171 163.073 210.452C152.569 218.734 139.204 222.504 125.921 220.932C112.637 219.36 100.522 212.576 92.24 202.071C83.9583 191.567 80.1887 178.203 81.7604 164.919L82.2919 160.427C71.7348 157.328 62.6156 150.592 56.5508 141.412C50.4859 132.232 47.8671 121.201 49.1585 110.274L53.7171 71.7462C54.2007 67.6589 56.2882 63.9311 59.5203 61.3829C62.7524 58.8347 66.8644 57.6748 70.9517 58.1584L78.6574 59.0701C80.701 59.3119 82.5649 60.3557 83.839 61.9717C85.1131 63.5878 85.6931 65.6438 85.4512 67.6874C85.2094 69.7311 84.1657 71.595 82.5496 72.8691C80.9336 74.1432 78.8776 74.7231 76.8339 74.4813L69.1283 73.5696L64.5697 112.098C63.6025 120.272 65.9223 128.496 71.0187 134.961C76.1151 141.425 83.5707 145.6 91.7453 146.567C99.9199 147.534 108.144 145.214 114.608 140.118C121.072 135.022 125.247 127.566 126.215 119.391L130.773 80.8633L123.068 79.9516C121.024 79.7098 119.16 78.6661 117.886 77.05C116.612 75.434 116.032 73.378 116.274 71.3343C116.515 69.2907 117.559 67.4268 119.175 66.1527C120.791 64.8786 122.847 64.2986 124.891 64.5404L132.597 65.4521C136.684 65.9357 140.412 68.0232 142.96 71.2553C145.508 74.4875 146.668 78.5995 146.184 82.6868L141.626 121.215C140.332 132.141 135.211 142.256 127.171 149.767C119.131 157.279 108.692 161.701 97.7031 162.25ZM177.419 148.89C179.462 149.132 181.518 148.552 183.134 147.278C184.751 146.004 185.794 144.14 186.036 142.096C186.278 140.053 185.698 137.997 184.424 136.381C183.15 134.765 181.286 133.721 179.242 133.479C177.199 133.237 175.142 133.817 173.526 135.091C171.91 136.365 170.867 138.229 170.625 140.273C170.383 142.317 170.963 144.373 172.237 145.989C173.511 147.605 175.375 148.648 177.419 148.89Z" fill="white"/>
<path d="M105.143 140.227L102.612 140.354L102.314 142.871L101.782 147.364C100.601 157.35 103.435 167.397 109.661 175.294C115.887 183.191 124.995 188.292 134.982 189.473C144.968 190.655 155.015 187.821 162.912 181.595C170.809 175.369 175.91 166.261 177.091 156.274L178.614 143.406L178.863 141.299L176.96 140.362C172.666 138.248 169.259 134.684 167.339 130.301C165.419 125.917 165.11 120.996 166.468 116.407C167.825 111.818 170.761 107.857 174.757 105.224C178.753 102.59 183.551 101.454 188.304 102.017C193.056 102.579 197.457 104.803 200.728 108.296C203.999 111.79 205.929 116.327 206.178 121.106C206.428 125.885 204.979 130.598 202.089 134.413C199.199 138.227 195.054 140.897 190.386 141.95L188.316 142.417L188.067 144.524L186.544 157.392C185.066 169.886 178.685 181.281 168.806 189.07C158.926 196.859 146.357 200.404 133.863 198.926C121.37 197.448 109.975 191.067 102.186 181.187C94.3969 171.308 90.8515 158.739 92.3297 146.245L92.8612 141.753L93.1591 139.236L90.7269 138.522C80.8498 135.623 72.3181 129.32 66.6439 120.731C60.9698 112.143 58.5197 101.823 59.7278 91.6001C59.7278 91.6 59.7278 91.5999 59.7279 91.5997L64.2864 53.0721C64.6765 49.7749 66.3605 46.7677 68.9678 44.7121C71.5751 42.6565 74.8922 41.7209 78.1893 42.111L85.8949 43.0227C87.1485 43.171 88.2917 43.8112 89.0732 44.8025C89.8547 45.7937 90.2104 47.0548 90.0621 48.3083C89.9138 49.5618 89.2736 50.7051 88.2824 51.4866C87.2911 52.2681 86.03 52.6238 84.7765 52.4755L77.0709 51.5638L74.0917 51.2113L73.7392 54.1905L69.1806 92.7186C68.1199 101.683 70.6639 110.702 76.2529 117.791C81.8419 124.88 90.0181 129.459 98.9829 130.52C107.948 131.58 116.967 129.036 124.056 123.447C131.145 117.858 135.723 109.682 136.784 100.717L141.342 62.1892L141.695 59.21L138.716 58.8575L131.01 57.9458C129.757 57.7975 128.613 57.1573 127.832 56.166C127.05 55.1748 126.695 53.9137 126.843 52.6602C126.991 51.4067 127.632 50.2634 128.623 49.4819C129.614 48.7004 130.875 48.3447 132.129 48.493L139.834 49.4047C143.131 49.7949 146.139 51.4788 148.194 54.0861C150.25 56.6934 151.185 60.0105 150.795 63.3077L146.237 101.835C146.237 101.835 146.237 101.836 146.237 101.836C145.026 112.058 140.235 121.521 132.713 128.549C125.191 135.576 115.424 139.713 105.143 140.227ZM184.656 132.843C187.49 133.178 190.341 132.374 192.582 130.607C194.823 128.841 196.27 126.256 196.605 123.422C196.941 120.588 196.136 117.738 194.37 115.497C192.603 113.256 190.019 111.808 187.185 111.473C184.351 111.138 181.5 111.942 179.259 113.709C177.018 115.475 175.571 118.06 175.236 120.894C174.9 123.728 175.705 126.579 177.471 128.819C179.238 131.06 181.823 132.508 184.656 132.843Z" stroke="#201F2E" stroke-width="6"/>
</svg>
