<svg width="140" height="146" viewBox="0 0 140 146" fill="none" xmlns="http://www.w3.org/2000/svg">
<path d="M5 67.3887C12.7222 45.9382 33.682 37.2381 52.4288 27.8647" stroke="#201F2E" stroke-linecap="round"/>
<path d="M18.1746 66.0711C25.4963 50.3429 38.4979 41.7174 55.0636 38.4043" stroke="#201F2E" stroke-linecap="round"/>
<path d="M102.309 41.0464C94.3192 34.5041 81.9619 35.4417 74.2067 43.22L64.4701 53.0228L75.2294 63.7845C75.8898 64.4452 75.8898 65.532 75.2294 66.1926L72.8218 68.6007C72.1614 69.2613 71.0748 69.2613 70.4143 68.6007L59.6763 57.8389L50.0675 67.5139L60.7842 78.2543C61.4447 78.9149 61.4447 80.0017 60.7842 80.6624L58.3767 83.0704C57.7162 83.7311 56.6296 83.7311 55.9691 83.0704L45.2524 72.3726L35.6436 82.0475L46.3177 92.7453C46.9782 93.406 46.9782 94.4928 46.3177 95.1534L43.9102 97.5615C43.2497 98.2221 42.1631 98.2221 41.5026 97.5615L30.8286 86.8637L21.1771 96.6025V118.105L2.21518 137.071C0.212454 139.074 0.212454 142.313 2.21518 144.295C4.2179 146.298 7.45635 146.298 9.43777 144.295L28.3997 125.329H49.684L103.843 71.3497C111.278 63.9124 112.834 49.7197 102.309 41.0464V41.0464Z" fill="white"/>
<path d="M30.1227 78.2833L38.6658 86.8455L38.668 86.8476C40.5001 88.6801 43.4865 88.6801 45.3186 86.8476L47.7261 84.4395C49.5572 82.6081 49.5579 79.6237 47.7282 77.7914L47.7261 77.7893L30.1227 78.2833ZM30.1227 78.2833L23.464 85.0023V105.27V106.512L22.5856 107.391L3.6236 126.357C2.78583 127.195 2.80223 128.526 3.61223 129.328L3.61793 129.333L3.6236 129.339C4.461 130.177 5.79075 130.16 6.59176 129.35L6.5974 129.345L6.60307 129.339L25.565 110.373L26.4437 109.494H27.6866H47.7311L101.008 56.3937C107.4 50.0004 108.628 37.8977 99.6916 30.5298C93.0052 25.0577 82.3866 25.7166 75.6201 32.5011C75.6194 32.5018 75.6187 32.5025 75.618 32.5032L67.9922 40.1809L76.6378 48.8285C78.4695 50.6606 78.4695 53.6466 76.6378 55.4787L74.2303 57.8868C72.3982 59.7193 69.4117 59.7193 67.5796 57.8868L67.5775 57.8847L58.9681 49.2563L53.5874 54.674L62.1926 63.2982C62.1928 63.2984 62.1929 63.2985 62.1931 63.2987C64.0243 65.1309 64.0242 68.1165 62.1926 69.9485L59.7851 72.3566C57.953 74.1891 54.9665 74.1891 53.1344 72.3566L44.5485 63.7857L39.1635 69.2077L30.1227 78.2833Z" stroke="#201F2E" stroke-width="6"/>
<path d="M85.5361 6.6666C99.4128 6.21251 113 11.8649 121.055 19.9324C127.978 26.8649 130 38.8649 128.959 48.1971" stroke="white" stroke-linecap="round"/>
<path d="M96.5 14.3648C108.5 15.8647 123 27.3647 122 47.8647" stroke="white" stroke-linecap="round"/>
</svg>
