<svg width="109" height="166" viewBox="0 0 109 166" fill="none" xmlns="http://www.w3.org/2000/svg">
<path d="M1.43221 164.407C7.38218 164.59 15.4843 165.576 21.2122 162.795C24.6477 161.127 24.9025 156.169 27.4854 153.849C29.5031 152.037 33.9328 151.926 35.3131 149.812C37.4386 146.557 38.2249 142.916 39.966 139.561C43.5986 132.562 52.0157 140.334 59.1893 135.3C61.8279 133.448 65.6507 125.682 66.0864 122.558C66.2079 121.687 64.4588 113.877 66.4444 115.004C72.3846 118.373 80.492 113.534 82.6198 107.269C84.1521 102.757 83.9575 97.5724 83.2714 92.9221C83.0585 91.4791 81.3314 87.2306 82.1553 85.8271C84.2544 82.2512 97.1309 82.9991 101.014 79.4732C107.348 73.7221 105.281 62.7563 103.755 55.4885C103.267 53.1629 102.953 50.6401 101.636 48.6042C100.001 46.0771 104.541 42.2542 105.602 40.0679C109.561 31.9091 109.465 18.8169 103.803 11.2031C100.16 6.30474 98.4952 11.4789 100.971 12.3213C108.752 14.9686 107.902 4.72602 107.091 0.864691" stroke="white" stroke-linecap="round"/>
</svg>
