<svg width="67" height="134" viewBox="0 0 67 134" fill="none" xmlns="http://www.w3.org/2000/svg">
<path d="M1.38874 0.811768C4.35747 11.4992 12.9373 21.8015 2.99898 29.0641C-3.38299 33.7279 5.14515 45.1523 10.3182 46.6303C13.2449 47.4665 17.8163 45.6381 20.126 47.9478C22.3331 50.1549 21.2571 56.095 21.1507 59.0731C20.9832 63.7633 16.0223 64.0316 15.8809 67.7098C15.6361 74.0739 19.6428 78.737 24.4444 82.4947C31.6927 88.1673 41.1922 88.5857 44.2064 98.2311C45.6388 102.815 39.6937 111.285 43.0353 114.626C46.7992 118.39 56.041 113.439 60.6747 116.749C66.2158 120.707 65.9446 126.305 65.9446 132.558" stroke="white" stroke-linecap="round"/>
</svg>
