<svg width="283" height="280" viewBox="0 0 283 280" fill="none" xmlns="http://www.w3.org/2000/svg">
<path d="M146.676 164.177L145.862 164.218L145.738 165.023C145.254 168.163 144.516 171.225 143.739 174.198C131.561 177.446 120.112 184.494 111.76 195.376C106.76 201.892 103.437 209.102 101.399 216.477C95.8161 216.194 89.7018 213.905 83.8739 209.432C66.7285 196.272 63.5309 183.017 67.2059 173.845C70.9069 164.607 81.7695 158.944 93.9613 161.301C104.863 163.409 114.711 157.751 121.758 151.789L122.4 151.246L121.976 150.521C119.468 146.227 118.097 141.386 118 136.588L117.983 135.756L117.162 135.621C97.2704 132.368 81.0493 123.48 72.416 112.143C68.1074 106.485 65.6997 100.235 65.6235 93.7636C65.5473 87.297 67.7978 80.5201 72.9576 73.7972C86.1193 56.6485 99.3527 53.4053 108.483 57.0348C117.673 60.6882 123.281 71.4998 120.858 83.7023L120.856 83.7113C118.768 94.7544 124.568 104.584 130.668 111.614L131.217 112.248L131.937 111.817C136.079 109.338 140.851 108.04 145.73 108.001L146.574 107.994L146.709 107.16C149.924 87.2409 158.826 71.001 170.188 62.3559C175.858 58.0412 182.122 55.6293 188.606 55.5505C195.084 55.4719 201.87 57.7215 208.592 62.881C225.739 76.0414 228.929 89.262 225.252 98.3985C221.548 107.6 210.683 113.233 198.488 110.876C187.504 108.707 177.595 114.447 170.562 120.55L169.94 121.09L170.35 121.804C172.781 126.035 174.063 130.687 174.235 135.562L174.264 136.384L175.076 136.514C195.063 139.721 211.356 148.633 220.03 160.017C224.359 165.698 226.779 171.976 226.859 178.476C226.938 184.97 224.683 191.774 219.508 198.515C217.175 201.555 214.772 204.09 212.453 206.33C208.538 197.974 202.721 190.641 195.46 184.924C187.973 179.029 179.175 175.028 169.816 173.26C167.807 168.408 164.894 164.035 161.762 160.426L161.222 159.804L160.509 160.214C156.278 162.644 151.622 163.93 146.676 164.177ZM162.62 234.411L162.011 235.204C167.966 239.775 169.083 248.268 164.513 254.223L161.557 258.075C155.331 266.186 143.842 267.697 135.731 261.472L113.417 244.345L124.022 230.527L146.336 247.653L147.13 248.262L147.738 247.469L153.65 239.766L154.259 238.973L153.466 238.364L138.854 227.15L149.46 213.331L164.071 224.546L164.865 225.155L165.473 224.362L171.385 216.659L171.994 215.866L171.201 215.257L148.887 198.131L159.492 184.312L181.806 201.439C185.681 204.413 188.216 208.805 188.854 213.648C189.491 218.491 188.178 223.389 185.203 227.265L182.248 231.116C177.677 237.071 169.183 238.188 163.228 233.618L162.62 234.411ZM137.737 129.636C134.158 134.3 134.874 140.938 139.712 144.652C144.305 148.177 151.137 147.356 154.729 142.677C158.32 137.997 157.346 131.185 152.753 127.661C147.915 123.947 141.317 124.972 137.737 129.636Z" stroke="#FFE9BE" stroke-width="2"/>
<path d="M139.488 156.97L138.703 157.19L138.761 158.003C138.984 161.172 138.943 164.321 138.845 167.392C127.688 173.258 118.087 182.669 112.354 195.131C108.921 202.592 107.278 210.36 106.926 218.003C101.419 218.964 94.9493 218.086 88.275 215.016C68.6399 205.983 62.5846 193.766 64.1357 184.007C65.6978 174.179 75.0354 166.25 87.4464 165.847C98.5446 165.486 106.893 157.787 112.445 150.411L112.95 149.74L112.376 149.126C108.979 145.495 106.569 141.079 105.412 136.421L105.211 135.613L104.38 135.664C84.2621 136.9 66.4748 131.827 55.5439 122.685C50.0885 118.122 46.3559 112.561 44.8475 106.268C43.3403 99.9785 44.0331 92.8714 47.575 85.1723C56.6095 65.5334 68.7953 59.4384 78.5026 60.9546C88.2736 62.4808 96.1387 71.7808 96.4796 84.2169L96.4799 84.226C96.8902 95.4575 104.725 103.758 112.231 109.261L112.907 109.757L113.513 109.178C117.003 105.842 121.369 103.52 126.117 102.4L126.939 102.206L126.886 101.363C125.607 81.2268 130.689 63.4181 139.853 52.4703C144.426 47.0064 150 43.2663 156.305 41.7528C162.605 40.2405 169.72 40.9307 177.419 44.4723C197.056 53.5059 203.096 65.691 201.534 75.4153C199.962 85.2091 190.615 93.1089 178.201 93.5128C167.009 93.8323 158.619 101.625 153.113 109.135L152.626 109.799L153.184 110.404C156.492 113.992 158.773 118.243 160.021 122.96L160.232 123.755L161.052 123.702C181.253 122.399 199.116 127.48 210.096 136.659C215.577 141.24 219.328 146.826 220.846 153.146C222.363 159.461 221.67 166.595 218.119 174.316C216.517 177.797 214.736 180.801 212.97 183.5C207.301 176.219 200.004 170.358 191.657 166.392C183.049 162.301 173.584 160.35 164.065 160.699C161.031 156.413 157.222 152.794 153.368 149.969L152.704 149.483L152.099 150.041C148.512 153.348 144.256 155.633 139.488 156.97ZM170.598 221.925L170.18 222.834C177 225.971 179.972 234.006 176.834 240.825L174.805 245.236C170.532 254.525 159.664 258.545 150.374 254.271L124.82 242.515L132.1 226.691L157.654 238.446L158.563 238.864L158.98 237.956L163.038 229.135L163.456 228.226L162.548 227.809L145.814 220.111L153.094 204.286L169.828 211.984L170.736 212.402L171.154 211.493L175.212 202.672L175.63 201.764L174.722 201.346L149.167 189.59L156.447 173.765L182.002 185.521C186.44 187.562 189.885 191.283 191.579 195.865C193.274 200.447 193.079 205.514 191.037 209.952L189.008 214.363C185.871 221.182 177.836 224.154 171.016 221.017L170.598 221.925ZM123.117 125.268C120.66 130.61 122.829 136.924 128.371 139.474C133.63 141.893 140.111 139.579 142.576 134.22C145.042 128.861 142.582 122.434 137.323 120.015C131.781 117.465 125.575 119.927 123.117 125.268Z" fill="#E1E4F4" stroke="#E1E4F4" stroke-width="2"/>
</svg>
