<svg width="211" height="204" viewBox="0 0 211 204" fill="none" xmlns="http://www.w3.org/2000/svg">
<path d="M75.741 142.863L66.735 106.158C65.7449 102.123 65.5868 98.0595 66.1692 94.1081M154.864 123.449L148.681 98.2488M77.2767 73.1543C83.0149 67.6646 90.1077 63.7967 97.8302 61.9456C115.87 57.5193 133.668 64.3094 141.964 77.5411M101.419 144.951L97.1929 127.726M133.068 137.186L123.076 96.4613C121.09 88.367 112.397 83.5373 103.654 85.6825C94.9112 87.8277 89.441 96.1325 91.4271 104.227L92.9685 110.509" stroke="#FFE9BE" stroke-width="2" stroke-linecap="round" stroke-linejoin="round"/>
<path d="M126.95 180.63C83.2507 191.352 39.1359 164.62 28.4137 120.921C17.6915 77.2212 44.4233 33.1063 88.1229 22.3842C131.823 11.662 175.937 38.3938 186.66 82.0934C188.644 90.1419 189.386 98.4466 188.86 106.719M151.731 161.967L171.439 173.909L201.293 124.64" stroke="#FFE9BE" stroke-width="2" stroke-linecap="round" stroke-linejoin="round"/>
<path d="M50.2832 124.427V86.6332C50.2832 82.4782 51.0979 78.4943 52.6051 74.7956M131.753 124.427V98.4789M68.3858 57.0922C75.2669 53.128 83.077 51.0616 91.0181 51.1042C109.593 51.1042 125.26 61.9396 130.164 76.7671M74.7241 132.574V114.838M107.312 132.574V90.6415C107.312 82.3071 100.021 75.5451 91.0181 75.5451C82.0157 75.5451 74.7241 82.3071 74.7241 90.6415V97.1102" stroke="#E1E4F4" stroke-width="18.75" stroke-linecap="round" stroke-linejoin="round"/>
<path d="M91.0177 173.309C46.0219 173.309 9.54785 136.835 9.54785 91.839C9.54785 46.8432 46.0219 10.3691 91.0177 10.3691C136.013 10.3691 172.487 46.8432 172.487 91.839C172.497 100.129 171.239 108.371 168.756 116.28M119.532 161.088L135.826 177.382L176.561 136.647" stroke="#E1E4F4" stroke-width="18.75" stroke-linecap="round" stroke-linejoin="round"/>
</svg>
