<svg width="211" height="175" viewBox="0 0 211 175" fill="none" xmlns="http://www.w3.org/2000/svg">
<path d="M25.5741 45.0447L25.5794 45.0393L25.5847 45.0338C26.4599 44.1169 35.4395 35.4678 50.5511 29.8077C65.6308 24.1595 87.193 20.9987 113.686 34.5759C132.868 44.4645 149.245 42.8277 160.857 38.6501C166.651 36.5655 171.25 33.8525 174.417 31.6404C176.001 30.5339 177.23 29.5509 178.074 28.8314C178.496 28.4717 178.822 28.1773 179.049 27.9654C179.163 27.8596 179.253 27.7734 179.318 27.7092L179.323 27.7041C179.35 27.678 179.396 27.6331 179.439 27.5864C180.324 26.7012 181.374 25.9986 182.529 25.518C183.691 25.0349 184.936 24.7857 186.194 24.7848C187.452 24.7839 188.698 25.0312 189.86 25.5127L190.243 24.5887L189.86 25.5127C191.023 25.9942 192.08 26.7004 192.971 27.5913C193.862 28.4821 194.569 29.5401 195.052 30.7048C195.535 31.8694 195.784 33.118 195.786 34.3791C195.787 35.6402 195.541 36.889 195.061 38.0543C194.58 39.2196 193.876 40.2784 192.987 41.1705L192.98 41.178L192.973 41.1857C192.097 42.1026 183.118 50.7517 168.006 56.4118L168.002 56.4134C162.337 58.5634 156.426 59.998 150.406 60.6844C137.739 62.1208 122.177 60.5656 104.873 51.6447C85.6907 41.7549 69.3125 43.3916 57.7004 47.5694C51.9061 49.654 47.3076 52.367 44.1404 54.5791C42.5561 55.6857 41.3274 56.6686 40.4835 57.3881C40.0616 57.7478 39.7351 58.0422 39.5078 58.2541C39.3943 58.3599 39.3045 58.4461 39.2391 58.5103L39.2339 58.5154C39.2078 58.5411 39.1632 58.5848 39.1208 58.6305C37.3192 60.4085 34.8925 61.4059 32.3633 61.4078C29.8283 61.4096 27.3937 60.4113 25.5864 58.6282C23.8032 56.8207 22.8014 54.3822 22.7984 51.8404C22.7953 49.2966 23.7929 46.855 25.5741 45.0447ZM31.1328 94.1025L31.1403 94.0949L31.1476 94.0872C32.0141 93.1795 41.9359 84.2393 56.118 78.8596C70.257 73.4963 92.759 70.0537 119.249 83.6294C138.431 93.518 154.808 91.8812 166.42 87.7036C172.214 85.6189 176.813 82.906 179.98 80.6938C181.564 79.5873 182.793 78.6043 183.637 77.8849C184.059 77.5252 184.385 77.2307 184.612 77.0188C184.726 76.9131 184.816 76.8269 184.881 76.7626L184.886 76.7576C184.913 76.7315 184.959 76.6866 185.002 76.6398C186.795 74.8475 189.224 73.8401 191.757 73.8382C194.297 73.8363 196.735 74.8456 198.534 76.6447C200.333 78.4439 201.346 80.8855 201.349 83.4325C201.352 85.9795 200.345 88.4223 198.55 90.2239L198.543 90.2314L198.536 90.2391C197.66 91.156 188.681 99.8051 173.569 105.465L173.565 105.467C167.9 107.617 161.989 109.051 155.969 109.738C143.302 111.174 127.74 109.619 110.436 100.698C91.2536 90.8083 74.8755 92.4451 63.2633 96.6228C57.469 98.7074 52.8705 101.42 49.7033 103.633C48.119 104.739 46.8903 105.722 46.0465 106.442C45.6246 106.801 45.2981 107.096 45.0708 107.308C44.9573 107.413 44.8674 107.5 44.802 107.564L44.7969 107.569C44.7704 107.595 44.7246 107.64 44.6815 107.686C43.796 108.572 42.7459 109.274 41.5907 109.755C40.4292 110.238 39.184 110.487 37.9263 110.488C36.6685 110.489 35.4226 110.242 34.2599 109.76C33.0971 109.279 32.0401 108.573 31.1493 107.682C30.2585 106.791 29.5514 105.733 29.0683 104.568C28.5853 103.404 28.3359 102.155 28.3344 100.894C28.3329 99.6328 28.5793 98.3839 29.0595 97.2187C29.5397 96.0534 30.2442 94.9945 31.1328 94.1025ZM36.6957 143.156L36.7033 143.148L36.7106 143.141C37.5771 142.233 47.4989 133.293 61.681 127.913C75.82 122.55 98.322 119.107 124.812 132.683C143.994 142.571 160.371 140.935 171.983 136.757C177.777 134.672 182.376 131.959 185.543 129.747C187.127 128.641 188.356 127.658 189.2 126.938C189.622 126.579 189.948 126.284 190.175 126.072C190.245 126.007 190.306 125.949 190.358 125.9C190.39 125.869 190.419 125.841 190.444 125.816L190.449 125.811C190.476 125.785 190.522 125.74 190.565 125.693C192.358 123.901 194.787 122.894 197.32 122.892C199.86 122.89 202.298 123.899 204.097 125.698C205.896 127.497 206.909 129.939 206.912 132.486C206.915 135.033 205.908 137.476 204.113 139.277L204.106 139.285L204.098 139.293C203.223 140.209 194.244 148.859 179.132 154.519L179.128 154.52C173.463 156.67 167.552 158.105 161.532 158.791C148.865 160.228 133.303 158.673 115.999 149.752C96.8166 139.862 80.4384 141.499 68.8263 145.676C63.032 147.761 58.4335 150.474 55.2663 152.686C53.682 153.793 52.4533 154.776 51.6095 155.495C51.1875 155.855 50.8611 156.149 50.6338 156.361C50.5203 156.467 50.4304 156.553 50.365 156.617C50.3395 156.642 50.2905 156.69 50.2445 156.74C48.4514 158.532 46.0225 159.54 43.4892 159.542C40.9491 159.543 38.5113 158.534 36.7123 156.735C34.9132 154.936 33.9004 152.494 33.8974 149.947C33.8944 147.4 34.9012 144.958 36.6957 143.156Z" stroke="#FFE9BE" stroke-width="2"/>
<path d="M7.28246 40.2749L7.28762 40.2694L7.2927 40.2638C8.1417 39.3226 16.8741 30.4239 31.8202 24.3402C46.7347 18.2693 68.1993 14.5022 95.0645 27.3275C114.517 36.6717 130.842 34.5741 142.331 30.071C148.065 27.8239 152.585 24.9824 155.688 22.6819C157.241 21.5312 158.441 20.5139 159.265 19.771C159.676 19.3996 159.994 19.096 160.216 18.8778C160.326 18.7689 160.413 18.6802 160.477 18.6141L160.482 18.6089C160.508 18.582 160.552 18.5359 160.594 18.488C161.454 17.5782 162.484 16.8463 163.625 16.3334C164.773 15.8177 166.01 15.5335 167.268 15.4972C168.525 15.4608 169.777 15.6729 170.953 16.1214L171.309 15.1871L170.953 16.1214C172.129 16.57 173.205 17.2462 174.121 18.1116C175.036 18.977 175.773 20.0146 176.289 21.1652C176.804 22.3158 177.089 23.5568 177.126 24.8174C177.163 26.0779 176.952 27.3332 176.505 28.5115C176.058 29.6899 175.383 30.7682 174.52 31.6849L174.513 31.6926L174.506 31.7006C173.657 32.6417 164.924 41.5404 149.978 47.6241L149.974 47.6258C144.372 49.9346 138.504 51.5352 132.506 52.3909C119.884 54.1837 104.284 53.0677 86.7361 44.6378C67.2824 35.2925 50.9569 37.3901 39.4671 41.8934C33.7338 44.1405 29.2136 46.9819 26.11 49.2824C24.5575 50.4332 23.357 51.4504 22.5337 52.1933C22.1221 52.5648 21.8041 52.8683 21.5828 53.0865C21.4724 53.1954 21.385 53.2841 21.3214 53.3502L21.3164 53.3554C21.291 53.3818 21.2477 53.4267 21.2066 53.4737C19.4558 55.3017 17.0582 56.3671 14.53 56.4402C11.9961 56.5135 9.53431 55.5842 7.67744 53.8528C5.84408 52.0962 4.77396 49.6869 4.6993 47.1462C4.62459 44.6035 5.55296 42.1348 7.28246 40.2749ZM14.2212 89.1566L14.2285 89.1489L14.2357 89.141C15.0762 88.2092 24.7422 78.993 38.7671 73.2158C52.7493 67.4562 75.1453 63.3809 102.007 76.2047C121.46 85.5489 137.785 83.4513 149.274 78.9482C155.008 76.7011 159.528 73.8596 162.631 71.5591C164.184 70.4084 165.384 69.3911 166.208 68.6482C166.619 68.2768 166.937 67.9732 167.158 67.755C167.269 67.6461 167.356 67.5574 167.42 67.4913L167.425 67.4862C167.451 67.4594 167.495 67.4131 167.537 67.3652C169.279 65.523 171.678 64.4476 174.211 64.3744C176.75 64.3009 179.215 65.2411 181.064 66.9888C182.913 68.7366 183.994 71.1487 184.069 73.6946C184.144 76.2404 183.206 78.7107 181.463 80.5621L181.456 80.5698L181.449 80.5777C180.6 81.5189 171.867 90.4176 156.921 96.5014L156.917 96.503C151.315 98.8118 145.447 100.412 139.449 101.268C126.827 103.061 111.227 101.945 93.6791 93.515C74.2254 84.1697 57.8999 86.2673 46.4101 90.7706C40.6768 93.0177 36.1566 95.8591 33.053 98.1596C31.5005 99.3104 30.3 100.328 29.4767 101.071C29.0651 101.442 28.7471 101.746 28.5258 101.964C28.4153 102.073 28.328 102.161 28.2644 102.227L28.2594 102.233C28.2336 102.259 28.1892 102.306 28.1473 102.353C27.2871 103.263 26.2573 103.995 25.1161 104.508C23.9687 105.024 22.731 105.308 21.4738 105.344C20.2165 105.381 18.9642 105.169 17.7883 104.72C16.6124 104.272 15.5359 103.595 14.6204 102.73C13.7048 101.865 12.9682 100.827 12.4525 99.6764C11.9369 98.5258 11.6524 97.2847 11.6154 96.0242C11.5784 94.7636 11.7895 93.5083 12.2366 92.33C12.6838 91.1516 13.3582 90.0734 14.2212 89.1566ZM21.1642 138.034L21.1715 138.026L21.1787 138.018C22.0192 137.086 31.6851 127.87 45.7101 122.093C59.6923 116.333 82.0883 112.258 108.95 125.082C128.403 134.426 144.728 132.328 156.217 127.825C161.951 125.578 166.471 122.737 169.574 120.436C171.127 119.286 172.327 118.268 173.151 117.525C173.562 117.154 173.88 116.85 174.101 116.632C174.17 116.565 174.229 116.506 174.279 116.454C174.311 116.423 174.339 116.394 174.363 116.369L174.368 116.363C174.394 116.337 174.438 116.29 174.48 116.242C176.222 114.4 178.621 113.325 181.154 113.252C183.693 113.178 186.158 114.118 188.007 115.866C189.856 117.614 190.937 120.026 191.012 122.572C191.087 125.118 190.149 127.588 188.406 129.439L188.399 129.447L188.392 129.455C187.543 130.396 178.81 139.295 163.864 145.379L163.86 145.38C158.258 147.689 152.39 149.29 146.392 150.145C133.77 151.938 118.17 150.822 100.622 142.392C81.1684 133.047 64.8429 135.145 53.3531 139.648C47.6198 141.895 43.0996 144.736 39.9959 147.037C38.4435 148.188 37.243 149.205 36.4197 149.948C36.0081 150.319 35.6901 150.623 35.4688 150.841C35.3583 150.95 35.2709 151.039 35.2074 151.105C35.1826 151.13 35.135 151.179 35.0903 151.231C33.3485 153.073 30.949 154.148 28.4167 154.222C25.8777 154.295 23.4124 153.355 21.5634 151.607C19.7143 149.859 18.6332 147.447 18.5584 144.901C18.4836 142.356 19.4212 139.885 21.1642 138.034Z" fill="#E1E4F4" stroke="#E1E4F4" stroke-width="2"/>
</svg>
