<svg width="204" height="186" viewBox="0 0 204 186" fill="none" xmlns="http://www.w3.org/2000/svg">
<path d="M26.7208 66.3284L154.599 30.509C157.735 29.6305 161.092 30.0333 163.93 31.6285C166.768 33.2236 168.856 35.8806 169.734 39.0147L194.794 128.48C195.672 131.614 195.268 134.969 193.671 137.807C192.074 140.644 189.416 142.732 186.279 143.61L58.4051 179.429C58.4039 179.429 58.4028 179.429 58.4016 179.43C53.57 180.76 48.4087 180.13 44.0411 177.675C39.6732 175.221 36.453 171.14 35.0815 166.323L6.44284 64.0803C5.11235 59.2514 5.74441 54.0919 8.20164 49.7253C10.6589 45.3587 14.7423 42.1386 19.5628 40.7662L128.257 10.3203C129.698 9.91682 131.239 10.1018 132.543 10.8344C133.847 11.5671 134.805 12.7873 135.208 14.2265C135.612 15.6658 135.426 17.2065 134.693 18.5097C133.96 19.8129 132.738 20.7718 131.298 21.1753L22.6013 51.6217C20.6504 52.1682 18.9961 53.4669 18.0027 55.2324C17.0092 56.9978 16.7579 59.0854 17.3042 61.0358C17.8505 62.9862 19.1497 64.6394 20.9157 65.6319C22.6816 66.6244 24.7698 66.8749 26.7208 66.3284ZM138.26 105.532C140.32 106.205 142.534 106.252 144.621 105.668C147.42 104.884 149.793 103.021 151.218 100.488C152.643 97.9553 153.004 94.9607 152.22 92.1629C151.636 90.0765 150.446 88.2104 148.8 86.8005C147.154 85.3907 145.127 84.5004 142.975 84.2422C140.823 83.984 138.643 84.3695 136.71 85.3499C134.777 86.3303 133.177 87.8616 132.115 89.7503C131.052 91.6389 130.573 93.8001 130.739 95.9605C130.905 98.1209 131.708 100.183 133.047 101.887C134.386 103.591 136.2 104.859 138.26 105.532Z" stroke="#FFE9BE" stroke-width="2"/>
<path d="M54.7812 40.8493L187.557 38.2993C190.813 38.2368 193.961 39.4697 196.308 41.7267C198.654 43.9837 200.008 47.0799 200.07 50.334L201.854 143.226C201.917 146.48 200.683 149.626 198.425 151.971C196.167 154.317 193.068 155.67 189.812 155.732L57.0406 158.282C57.0394 158.282 57.0382 158.282 57.037 158.282C52.026 158.357 47.1885 156.45 43.5776 152.977C39.9663 149.504 37.8743 144.745 37.7568 139.738L35.7181 33.5797C35.6432 28.5714 37.551 23.7362 41.0262 20.1268C44.5015 16.5174 49.2629 14.4262 54.2736 14.3087L167.131 12.1413C168.626 12.1125 170.072 12.6789 171.15 13.7154C172.228 14.752 172.849 16.1739 172.878 17.6683C172.907 19.1627 172.34 20.6074 171.303 21.6846C170.266 22.7618 168.843 23.3832 167.347 23.4119L54.4879 25.5794C52.4622 25.6183 50.5348 26.4599 49.1298 27.9191C47.7247 29.3784 46.9571 31.3359 46.996 33.361C47.0348 35.3861 47.8771 37.3127 49.3371 38.717C50.7972 40.1212 52.7555 40.8882 54.7812 40.8493ZM152.897 106.813C154.722 107.982 156.853 108.584 159.02 108.542C161.926 108.486 164.691 107.279 166.707 105.186C168.723 103.092 169.824 100.284 169.768 97.3791C169.726 95.2127 169.043 93.1075 167.804 91.3294C166.565 89.5514 164.827 88.1806 162.809 87.3901C160.791 86.5997 158.583 86.4251 156.466 86.8885C154.348 87.3519 152.416 88.4324 150.913 89.9935C149.41 91.5547 148.403 93.5263 148.021 95.6591C147.639 97.7919 147.899 99.99 148.767 101.975C149.634 103.961 151.072 105.644 152.897 106.813Z" fill="#E1E4F4" stroke="#E1E4F4" stroke-width="2"/>
</svg>
