<svg width="316" height="250" viewBox="0 0 316 250" fill="none" xmlns="http://www.w3.org/2000/svg">
<path d="M1 237.063C20.9452 237.063 36.4713 237.557 53.8253 246.234C66.1637 252.403 78.5872 250.282 78.5872 234.587C78.5872 222.469 102.853 227.158 110.869 227.158C122.894 227.158 132.631 236.451 138.382 220.922C147.476 196.371 174.734 210.65 193.225 210.65C201.159 210.65 200.456 209.843 203.13 202.763C206.364 194.202 208.42 187.884 215.236 181.303C223.339 173.479 235.066 177.866 243.299 172.682C257.584 163.688 238.05 133.063 264.393 133.063C275.232 133.063 273.38 121.081 273.38 113.621C273.38 102.493 273.174 94.0589 282.918 86.8411C292.463 79.771 293.19 74.322 293.19 63.0881C293.19 51.4774 307.111 54.6366 307.955 47.0387C309.639 31.8847 295.941 8.48359 314.65 1" stroke="#201F2E" stroke-linecap="round"/>
</svg>
