<svg width="78" height="84" viewBox="0 0 78 84" fill="none" xmlns="http://www.w3.org/2000/svg">
<mask id="path-1-inside-1_160_178" fill="white">
<path d="M41.9575 83.692H35.5027C33.7907 83.692 32.1489 83.0137 30.9384 81.8064C29.7279 80.5991 29.0478 78.9616 29.0478 77.2542L29.0579 59.9887C29.0581 59.8473 29.021 59.7084 28.9503 59.5859C28.8795 59.4634 28.7777 59.3616 28.655 59.2909C28.5323 59.2201 28.3931 59.1828 28.2514 59.1827C28.1096 59.1827 27.9704 59.2199 27.8476 59.2906L12.8522 67.9535C11.3939 68.7932 9.66078 69.0208 8.03418 68.5861C6.40759 68.1515 5.02069 67.0903 4.17856 65.6359L0.850283 59.874L0.838181 59.8539C0.0187319 58.4 -0.196059 56.6835 0.239979 55.0733C0.676018 53.4632 1.72807 52.0879 3.16999 51.2432L18.2198 42.5421C18.3421 42.4714 18.4436 42.3698 18.5142 42.2477C18.5847 42.1255 18.6218 41.987 18.6218 41.846C18.6218 41.705 18.5847 41.5665 18.5142 41.4443C18.4436 41.3222 18.3421 41.2206 18.2198 41.1499L3.18411 32.4568C2.46016 32.0428 1.82536 31.4902 1.31615 30.8307C0.806947 30.1713 0.433376 29.4181 0.216892 28.6142C0.000407992 27.8104 -0.0547224 26.9718 0.0546662 26.1467C0.164055 25.3215 0.435809 24.526 0.854318 23.8059L4.17049 18.0622C4.58952 17.336 5.14884 16.7 5.81607 16.191C6.48329 15.682 7.24515 15.31 8.05751 15.0967C8.86061 14.8818 9.69852 14.828 10.5226 14.9385C11.3467 15.049 12.1406 15.3216 12.8583 15.7405L27.8476 24.3914C27.9704 24.4621 28.1096 24.4993 28.2514 24.4992C28.3931 24.4992 28.5323 24.4619 28.655 24.3911C28.7777 24.3203 28.8795 24.2186 28.9503 24.0961C29.021 23.9736 29.0581 23.8346 29.0579 23.6933L29.0478 6.43785C29.0478 4.73042 29.7279 3.09293 30.9384 1.8856C32.1489 0.678271 33.7907 0 35.5027 0H41.9575C43.6694 0 45.3112 0.678271 46.5218 1.8856C47.7323 3.09293 48.4123 4.73042 48.4123 6.43785V23.6832C48.4121 23.8246 48.4493 23.9635 48.52 24.086C48.5907 24.2085 48.6926 24.3103 48.8152 24.381C48.9379 24.4518 49.0772 24.4891 49.2189 24.4891C49.3606 24.4892 49.4999 24.452 49.6226 24.3813L64.618 15.7184C66.0768 14.8803 67.8093 14.6536 69.4354 15.0881C71.0615 15.5227 72.4484 16.5828 73.2917 18.036L76.618 23.7979L76.6301 23.816C77.4589 25.2714 77.6772 26.9946 77.2373 28.6098C76.7975 30.2251 75.7352 31.6014 74.2821 32.4387L59.2484 41.1298C59.1261 41.2005 59.0246 41.3021 58.9541 41.4242C58.8835 41.5464 58.8464 41.6849 58.8464 41.8259C58.8464 41.9669 58.8835 42.1054 58.9541 42.2275C59.0246 42.3497 59.1261 42.4512 59.2484 42.522L74.2821 51.2131C75.006 51.6271 75.6408 52.1797 76.1501 52.8391C76.6593 53.4985 77.033 54.2516 77.2497 55.0554C77.4663 55.8592 77.5217 56.6977 77.4126 57.5229C77.3035 58.3481 77.0321 59.1436 76.6139 59.8639L73.2977 65.6077C72.8787 66.3338 72.3194 66.9698 71.6522 67.4789C70.9849 67.9879 70.2231 68.3598 69.4107 68.5731C68.6076 68.7881 67.7697 68.8419 66.9456 68.7314C66.1215 68.6208 65.3276 68.3482 64.6099 67.9293L49.6206 59.2785C49.498 59.2079 49.3589 59.1707 49.2174 59.1707C49.0758 59.1706 48.9367 59.2077 48.8141 59.2783C48.6915 59.3488 48.5896 59.4503 48.5187 59.5725C48.4478 59.6947 48.4105 59.8334 48.4103 59.9746L48.4123 77.2542C48.4123 78.9616 47.7323 80.5991 46.5218 81.8064C45.3112 83.0137 43.6694 83.692 41.9575 83.692Z"/>
</mask>
<path d="M29.0478 77.2542L27.0478 77.253V77.2542H29.0478ZM29.0579 59.9887L27.0579 59.9857L27.0579 59.9875L29.0579 59.9887ZM27.8476 59.2906L26.8496 57.5574L26.8472 57.5588L27.8476 59.2906ZM12.8522 67.9535L13.8502 69.6867L13.8527 69.6853L12.8522 67.9535ZM4.17856 65.6359L2.44672 66.6362L2.44776 66.638L4.17856 65.6359ZM0.850283 59.874L2.58212 58.8736L2.5732 58.8582L2.564 58.8429L0.850283 59.874ZM0.838181 59.8539L-0.904127 60.8359L-0.89018 60.8606L-0.875536 60.885L0.838181 59.8539ZM3.16999 51.2432L2.16893 49.5118L2.15905 49.5176L3.16999 51.2432ZM18.2198 42.5421L19.2209 44.2735L19.2214 44.2732L18.2198 42.5421ZM18.2198 41.1499L19.2214 39.4188L19.2209 39.4185L18.2198 41.1499ZM3.18411 32.4568L4.18518 30.7253L4.17702 30.7207L3.18411 32.4568ZM0.854318 23.8059L2.5835 24.8109L2.58637 24.806L0.854318 23.8059ZM4.17049 18.0622L5.90254 19.0622L5.90276 19.0618L4.17049 18.0622ZM8.05751 15.0967L8.5654 17.0312L8.57463 17.0287L8.05751 15.0967ZM12.8583 15.7405L11.8501 17.4678L11.8586 17.4727L12.8583 15.7405ZM27.8476 24.3914L26.8479 26.1236L26.8496 26.1246L27.8476 24.3914ZM29.0579 23.6933L27.0579 23.6945L27.0579 23.6962L29.0579 23.6933ZM29.0478 6.43785H27.0478L27.0478 6.43902L29.0478 6.43785ZM35.5027 0V-2V0ZM41.9575 0V-2V0ZM48.4123 23.6832L50.4123 23.6862V23.6832H48.4123ZM49.6226 24.3813L50.6206 26.1145L50.6231 26.1131L49.6226 24.3813ZM64.618 15.7184L63.6217 13.9842L63.6175 13.9866L64.618 15.7184ZM73.2917 18.036L75.0238 17.0361L75.0215 17.0322L73.2917 18.036ZM76.618 23.7979L74.8858 24.7978L74.9187 24.8547L74.9551 24.9092L76.618 23.7979ZM76.6301 23.816L78.368 22.8263L78.3326 22.7641L78.2929 22.7047L76.6301 23.816ZM74.2821 32.4387L73.2836 30.7058L73.2811 30.7072L74.2821 32.4387ZM59.2484 41.1298L58.2474 39.3983L58.2468 39.3986L59.2484 41.1298ZM59.2484 42.522L58.2468 44.2531L58.2474 44.2535L59.2484 42.522ZM74.2821 51.2131L73.2811 52.9446L73.2891 52.9491L74.2821 51.2131ZM76.6139 59.8639L74.8843 58.8598L74.8819 58.8639L76.6139 59.8639ZM73.2977 65.6077L71.5657 64.6077L71.5655 64.6081L73.2977 65.6077ZM69.4107 68.5731L68.9028 66.6387L68.8936 66.6411L69.4107 68.5731ZM64.6099 67.9293L65.6182 66.202L65.6096 66.1971L64.6099 67.9293ZM49.6206 59.2785L50.6203 57.5463L50.6186 57.5453L49.6206 59.2785ZM48.4103 59.9746L46.4103 59.9725V59.9748L48.4103 59.9746ZM48.4123 77.2542H50.4123V77.2539L48.4123 77.2542ZM41.9575 81.692H35.5027V85.692H41.9575V81.692ZM35.5027 81.692C34.3195 81.692 33.1858 81.2232 32.3508 80.3903L29.5261 83.2225C31.112 84.8043 33.262 85.692 35.5027 85.692V81.692ZM32.3508 80.3903C31.5159 79.5577 31.0478 78.4294 31.0478 77.2542H27.0478C27.0478 79.4937 27.9399 81.6405 29.5261 83.2225L32.3508 80.3903ZM31.0478 77.2553L31.0579 59.9898L27.0579 59.9875L27.0478 77.253L31.0478 77.2553ZM31.0579 59.9916C31.0586 59.4979 30.9289 59.013 30.6823 58.5858L27.2182 60.5859C27.113 60.4037 27.0576 60.1967 27.0579 59.9857L31.0579 59.9916ZM30.6823 58.5858C30.4356 58.1586 30.0808 57.8044 29.6543 57.5584L27.6557 61.0233C27.4745 60.9188 27.3235 60.7682 27.2182 60.5859L30.6823 58.5858ZM29.6543 57.5584C29.2278 57.3124 28.7442 57.1829 28.2521 57.1827L28.2506 61.1827C28.042 61.1827 27.8368 61.1278 27.6557 61.0233L29.6543 57.5584ZM28.2521 57.1827C27.7601 57.1826 27.2763 57.3116 26.8496 57.5574L28.8457 61.0237C28.6644 61.1281 28.4592 61.1828 28.2506 61.1827L28.2521 57.1827ZM26.8472 57.5588L11.8518 66.2217L13.8527 69.6853L28.8481 61.0223L26.8472 57.5588ZM11.8543 66.2203C10.8547 66.7958 9.66615 66.952 8.55048 66.6539L7.51789 70.5184C9.65542 71.0895 11.933 70.7906 13.8502 69.6867L11.8543 66.2203ZM8.55048 66.6539C7.43492 66.3559 6.48536 65.6285 5.90936 64.6337L2.44776 66.638C3.55603 68.5521 5.38025 69.9472 7.51789 70.5184L8.55048 66.6539ZM5.91039 64.6355L2.58212 58.8736L-0.881552 60.8744L2.44672 66.6362L5.91039 64.6355ZM2.564 58.8429L2.5519 58.8228L-0.875536 60.885L-0.863434 60.9051L2.564 58.8429ZM2.58049 58.8718C2.01874 57.8752 1.87174 56.6992 2.17045 55.5961L-1.69049 54.5506C-2.26385 56.6678 -1.98128 58.9248 -0.904127 60.8359L2.58049 58.8718ZM2.17045 55.5961C2.46919 54.493 3.19041 53.5492 4.18093 52.9689L2.15905 49.5176C0.265732 50.6267 -1.11715 52.4334 -1.69049 54.5506L2.17045 55.5961ZM4.17103 52.9747L19.2209 44.2735L17.2188 40.8106L2.16894 49.5118L4.17103 52.9747ZM19.2214 44.2732C19.6465 44.0273 20.0001 43.6739 20.2461 43.2479L16.7822 41.2475C16.8871 41.0658 17.0377 40.9154 17.2183 40.8109L19.2214 44.2732ZM20.2461 43.2479C20.4921 42.8218 20.6218 42.3384 20.6218 41.846H16.6218C16.6218 41.6356 16.6773 41.4292 16.7822 41.2475L20.2461 43.2479ZM20.6218 41.846C20.6218 41.3536 20.4921 40.8702 20.2461 40.4441L16.7822 42.4445C16.6773 42.2628 16.6218 42.0564 16.6218 41.846H20.6218ZM20.2461 40.4441C20.0001 40.0181 19.6465 39.6647 19.2214 39.4188L17.2183 42.8811C17.0377 42.7766 16.8871 42.6262 16.7822 42.4445L20.2461 40.4441ZM19.2209 39.4185L4.18516 30.7254L2.18305 34.1882L17.2188 42.8814L19.2209 39.4185ZM4.17702 30.7207C3.68143 30.4372 3.24722 30.0592 2.89913 29.6084L-0.266828 32.0531C0.40349 32.9212 1.23889 33.6483 2.19119 34.1929L4.17702 30.7207ZM2.89913 29.6084C2.55105 29.1576 2.2959 28.643 2.14808 28.0941L-1.7143 29.1343C-1.42915 30.1931 -0.937155 31.185 -0.266828 32.0531L2.89913 29.6084ZM2.14808 28.0941C2.00027 27.5453 1.96264 26.9728 2.03732 26.4095L-1.92799 25.8838C-2.07209 26.9708 -1.99945 28.0755 -1.7143 29.1343L2.14808 28.0941ZM2.03732 26.4095C2.112 25.8462 2.29754 25.3029 2.58349 24.8109L-0.874855 22.801C-1.42592 23.7492 -1.78389 24.7968 -1.92799 25.8838L2.03732 26.4095ZM2.58637 24.806L5.90254 19.0622L2.43844 17.0622L-0.877732 22.8059L2.58637 24.806ZM5.90276 19.0618C6.18937 18.5651 6.57214 18.1298 7.02916 17.7811L4.60297 14.6009C3.72554 15.2703 2.98967 16.1069 2.43822 17.0626L5.90276 19.0618ZM7.02916 17.7811C7.48619 17.4324 8.00833 17.1774 8.5654 17.0312L7.54962 13.1623C6.48197 13.4426 5.48039 13.9315 4.60297 14.6009L7.02916 17.7811ZM8.57463 17.0287C9.1226 16.8821 9.6944 16.8454 10.2568 16.9208L10.7884 12.9563C9.70264 12.8107 8.59863 12.8815 7.54039 13.1648L8.57463 17.0287ZM10.2568 16.9208C10.8192 16.9962 11.3608 17.1822 11.8501 17.4678L13.8665 14.0132C12.9205 13.4611 11.8743 13.1019 10.7884 12.9563L10.2568 16.9208ZM11.8586 17.4727L26.8479 26.1236L28.8474 22.6592L13.858 14.0083L11.8586 17.4727ZM26.8496 26.1246C27.2764 26.3703 27.7601 26.4994 28.2521 26.4992L28.2506 22.4992C28.4592 22.4991 28.6644 22.5538 28.8457 22.6582L26.8496 26.1246ZM28.2521 26.4992C28.7441 26.499 29.2277 26.3696 29.6543 26.1235L27.6557 22.6586C27.8369 22.5541 28.042 22.4993 28.2506 22.4992L28.2521 26.4992ZM29.6543 26.1235C30.0809 25.8775 30.4356 25.5233 30.6823 25.0961L27.2182 23.096C27.3234 22.9138 27.4745 22.7632 27.6557 22.6586L29.6543 26.1235ZM30.6823 25.0961C30.9289 24.6689 31.0586 24.184 31.0579 23.6903L27.0579 23.6962C27.0576 23.4852 27.113 23.2782 27.2182 23.096L30.6823 25.0961ZM31.0579 23.6921L31.0478 6.43668L27.0478 6.43902L27.0579 23.6945L31.0579 23.6921ZM31.0478 6.43785C31.0478 5.26256 31.5159 4.13434 32.3508 3.30168L29.5261 0.469525C27.9399 2.05152 27.0478 4.19829 27.0478 6.43785H31.0478ZM32.3508 3.30168C33.1858 2.46883 34.3195 2 35.5027 2V-2C33.262 -2 31.112 -1.11229 29.5261 0.469525L32.3508 3.30168ZM35.5027 2H41.9575V-2H35.5027V2ZM41.9575 2C43.1407 2 44.2744 2.46883 45.1094 3.30168L47.9341 0.469525C46.3481 -1.11229 44.1982 -2 41.9575 -2V2ZM45.1094 3.30168C45.9443 4.13434 46.4123 5.26256 46.4123 6.43785H50.4123C50.4123 4.19829 49.5203 2.05152 47.9341 0.469525L45.1094 3.30168ZM46.4123 6.43785V23.6832H50.4123V6.43785H46.4123ZM46.4123 23.6803C46.4116 24.174 46.5413 24.6589 46.788 25.0861L50.252 23.0859C50.3572 23.2681 50.4126 23.4752 50.4123 23.6862L46.4123 23.6803ZM46.788 25.0861C47.0346 25.5132 47.3893 25.8674 47.8159 26.1135L49.8145 22.6486C49.9958 22.7531 50.1468 22.9038 50.252 23.0859L46.788 25.0861ZM47.8159 26.1135C48.2425 26.3595 48.7261 26.489 49.2182 26.4891L49.2196 22.4891C49.4282 22.4892 49.6334 22.5441 49.8145 22.6486L47.8159 26.1135ZM49.2182 26.4891C49.7102 26.4893 50.1939 26.3602 50.6206 26.1145L48.6246 22.6481C48.8058 22.5438 49.011 22.4891 49.2196 22.4891L49.2182 26.4891ZM50.6231 26.1131L65.6185 17.4502L63.6175 13.9866L48.6222 22.6495L50.6231 26.1131ZM65.6143 17.4526C66.6146 16.8779 67.8033 16.7222 68.9191 17.0204L69.9517 13.1559C67.8153 12.5851 65.5389 12.8827 63.6217 13.9842L65.6143 17.4526ZM68.9191 17.0204C70.0348 17.3185 70.9848 18.0454 71.5618 19.0398L75.0215 17.0322C73.912 15.1202 72.0882 13.7268 69.9517 13.1559L68.9191 17.0204ZM71.5596 19.0359L74.8858 24.7978L78.35 22.798L75.0238 17.0361L71.5596 19.0359ZM74.9551 24.9092L74.9672 24.9273L78.2929 22.7047L78.2808 22.6866L74.9551 24.9092ZM74.8921 24.8057C75.4592 25.8016 75.6083 26.9799 75.3076 28.0844L79.1671 29.1353C79.746 27.0092 79.4585 24.7412 78.368 22.8263L74.8921 24.8057ZM75.3076 28.0844C75.0068 29.1889 74.28 30.1317 73.2836 30.7058L75.2806 34.1716C77.1905 33.0711 78.5882 31.2613 79.1671 29.1353L75.3076 28.0844ZM73.2811 30.7072L58.2474 39.3983L60.2494 42.8613L75.2831 34.1702L73.2811 30.7072ZM58.2468 39.3986C57.8217 39.6446 57.4682 39.998 57.2221 40.424L60.686 42.4244C60.5811 42.6061 60.4305 42.7565 60.25 42.8609L58.2468 39.3986ZM57.2221 40.424C56.9761 40.8501 56.8464 41.3335 56.8464 41.8259H60.8464C60.8464 42.0363 60.7909 42.2427 60.686 42.4244L57.2221 40.424ZM56.8464 41.8259C56.8464 42.3183 56.9761 42.8017 57.2221 43.2277L60.686 41.2273C60.7909 41.409 60.8464 41.6155 60.8464 41.8259H56.8464ZM57.2221 43.2277C57.4682 43.6538 57.8217 44.0072 58.2468 44.2531L60.25 40.7908C60.4305 40.8953 60.5811 41.0456 60.686 41.2273L57.2221 43.2277ZM58.2474 44.2535L73.2811 52.9445L75.2831 49.4816L60.2494 40.7905L58.2474 44.2535ZM73.2891 52.9491C73.7848 53.2326 74.219 53.6108 74.5672 54.0616L77.7329 51.6166C77.0626 50.7486 76.2273 50.0216 75.2751 49.477L73.2891 52.9491ZM74.5672 54.0616C74.9154 54.5124 75.1706 55.027 75.3186 55.5759L79.1807 54.5349C78.8954 53.4762 78.4033 52.4845 77.7329 51.6166L74.5672 54.0616ZM75.3186 55.5759C75.4665 56.1248 75.5043 56.6974 75.4298 57.2608L79.3953 57.785C79.539 56.6981 79.4661 55.5936 79.1807 54.5349L75.3186 55.5759ZM75.4298 57.2608C75.3554 57.8242 75.17 58.3676 74.8843 58.8598L78.3436 60.8681C78.8941 59.9197 79.2516 58.872 79.3953 57.785L75.4298 57.2608ZM74.8819 58.8639L71.5657 64.6077L75.0298 66.6077L78.346 60.8639L74.8819 58.8639ZM71.5655 64.6081C71.2789 65.1047 70.8961 65.5401 70.4391 65.8888L72.8653 69.069C73.7427 68.3996 74.4786 67.5629 75.03 66.6073L71.5655 64.6081ZM70.4391 65.8888C69.982 66.2375 69.4599 66.4924 68.9028 66.6387L69.9186 70.5076C70.9863 70.2272 71.9878 69.7384 72.8653 69.069L70.4391 65.8888ZM68.8936 66.6411C68.3456 66.7878 67.7738 66.8245 67.2114 66.7491L66.6798 70.7136C67.7656 70.8592 68.8696 70.7884 69.9278 70.5051L68.8936 66.6411ZM67.2114 66.7491C66.649 66.6737 66.1075 66.4877 65.6181 66.202L63.6017 69.6566C64.5477 70.2088 65.594 70.568 66.6798 70.7136L67.2114 66.7491ZM65.6096 66.1971L50.6203 57.5463L48.6209 61.0107L63.6102 69.6616L65.6096 66.1971ZM50.6186 57.5453C50.1924 57.2999 49.7093 57.1708 49.2179 57.1707L49.2169 61.1707C49.0085 61.1706 48.8036 61.1159 48.6226 61.0117L50.6186 57.5453ZM49.2179 57.1707C48.7264 57.1705 48.2433 57.2994 47.817 57.5446L49.8112 61.012C49.6302 61.1161 49.4252 61.1707 49.2169 61.1707L49.2179 57.1707ZM47.817 57.5446C47.3905 57.7898 47.0357 58.143 46.7886 58.5692L50.2489 60.5758C50.1435 60.7575 49.9924 60.9078 49.8112 61.012L47.817 57.5446ZM46.7886 58.5692C46.5414 58.9954 46.4108 59.4794 46.4103 59.9725L50.4103 59.9766C50.4101 60.1874 50.3543 60.394 50.2489 60.5758L46.7886 58.5692ZM46.4103 59.9748L46.4123 77.2544L50.4123 77.2539L50.4103 59.9743L46.4103 59.9748ZM46.4123 77.2542C46.4123 78.4294 45.9443 79.5577 45.1094 80.3903L47.9341 83.2225C49.5203 81.6405 50.4123 79.4937 50.4123 77.2542H46.4123ZM45.1094 80.3903C44.2744 81.2232 43.1407 81.692 41.9575 81.692V85.692C44.1982 85.692 46.3481 84.8043 47.9341 83.2225L45.1094 80.3903Z" fill="#201F2E" mask="url(#path-1-inside-1_160_178)"/>
</svg>
