<svg width="166" height="219" viewBox="0 0 166 219" fill="none" xmlns="http://www.w3.org/2000/svg">
<path d="M91.1625 19H25C18.3696 19 12.0107 21.6339 7.32233 26.3223C2.63392 31.0107 0 37.3696 0 44V194C0 200.63 2.63392 206.989 7.32233 211.678C12.0107 216.366 18.3696 219 25 219H125C131.63 219 137.989 216.366 142.678 211.678C147.366 206.989 150 200.63 150 194V77.8375C149.999 74.5226 148.682 71.3437 146.337 69L100 22.6625C97.6563 20.3181 94.4774 19.0007 91.1625 19V19ZM93.75 62.75V37.75L131.25 75.25H106.25C102.935 75.25 99.7554 73.933 97.4112 71.5888C95.067 69.2446 93.75 66.0652 93.75 62.75ZM56.25 87.75V95.675L63.1125 91.7125C63.8236 91.2956 64.6101 91.0235 65.4267 90.9119C66.2434 90.8002 67.074 90.8512 67.8709 91.0619C68.6678 91.2726 69.4151 91.6388 70.0699 92.1395C70.7246 92.6401 71.2739 93.2654 71.686 93.9792C72.0982 94.693 72.365 95.4813 72.4713 96.2987C72.5775 97.1161 72.521 97.9464 72.3051 98.7418C72.0891 99.5373 71.7179 100.282 71.2129 100.934C70.7079 101.585 70.079 102.13 69.3625 102.537L62.5 106.5L69.3625 110.463C70.079 110.87 70.7079 111.415 71.2129 112.066C71.7179 112.718 72.0891 113.463 72.3051 114.258C72.521 115.054 72.5775 115.884 72.4713 116.701C72.365 117.519 72.0982 118.307 71.686 119.021C71.2739 119.735 70.7246 120.36 70.0699 120.861C69.4151 121.361 68.6678 121.727 67.8709 121.938C67.074 122.149 66.2434 122.2 65.4267 122.088C64.6101 121.976 63.8236 121.704 63.1125 121.287L56.25 117.325V125.25C56.25 126.908 55.5915 128.497 54.4194 129.669C53.2473 130.842 51.6576 131.5 50 131.5C48.3424 131.5 46.7527 130.842 45.5806 129.669C44.4085 128.497 43.75 126.908 43.75 125.25V117.325L36.8875 121.287C36.1764 121.704 35.3899 121.976 34.5733 122.088C33.7566 122.2 32.926 122.149 32.1291 121.938C31.3322 121.727 30.5849 121.361 29.9301 120.861C29.2754 120.36 28.7261 119.735 28.314 119.021C27.9018 118.307 27.635 117.519 27.5287 116.701C27.4225 115.884 27.479 115.054 27.6949 114.258C27.9109 113.463 28.2821 112.718 28.7871 112.066C29.2921 111.415 29.921 110.87 30.6375 110.463L37.5 106.5L30.6375 102.537C29.2137 101.703 28.1779 100.339 27.756 98.7432C27.3342 97.1476 27.5606 95.45 28.3858 94.0207C29.211 92.5914 30.5681 91.5465 32.1608 91.1141C33.7536 90.6816 35.4528 90.8968 36.8875 91.7125L43.75 95.675V87.75C43.75 86.0924 44.4085 84.5027 45.5806 83.3306C46.7527 82.1585 48.3424 81.5 50 81.5C51.6576 81.5 53.2473 82.1585 54.4194 83.3306C55.5915 84.5027 56.25 86.0924 56.25 87.75ZM31.25 144H93.75C95.4076 144 96.9973 144.658 98.1694 145.831C99.3415 147.003 100 148.592 100 150.25C100 151.908 99.3415 153.497 98.1694 154.669C96.9973 155.842 95.4076 156.5 93.75 156.5H31.25C29.5924 156.5 28.0027 155.842 26.8306 154.669C25.6585 153.497 25 151.908 25 150.25C25 148.592 25.6585 147.003 26.8306 145.831C28.0027 144.658 29.5924 144 31.25 144ZM31.25 169H93.75C95.4076 169 96.9973 169.658 98.1694 170.831C99.3415 172.003 100 173.592 100 175.25C100 176.908 99.3415 178.497 98.1694 179.669C96.9973 180.842 95.4076 181.5 93.75 181.5H31.25C29.5924 181.5 28.0027 180.842 26.8306 179.669C25.6585 178.497 25 176.908 25 175.25C25 173.592 25.6585 172.003 26.8306 170.831C28.0027 169.658 29.5924 169 31.25 169Z" fill="#6A79CA"/>
<path d="M160.216 52.1213L160.216 52.1216C161.998 53.9027 162.999 56.3184 163 58.8375C163 58.8377 163 58.8379 163 58.8381V175C163 180.835 160.682 186.431 156.556 190.556C152.431 194.682 146.835 197 141 197H41C35.1652 197 29.5695 194.682 25.4437 190.556C21.3178 186.431 19 180.835 19 175V25C19 19.1652 21.3178 13.5695 25.4437 9.44365C29.5694 5.31785 35.1652 3 41 3H107.162C107.162 3 107.162 3 107.163 3C109.682 3.00071 112.097 4.00193 113.878 5.7835L113.879 5.78382L160.216 52.1213ZM111.871 16.6287L106.75 11.5074V18.75V43.75C106.75 47.8609 108.383 51.8033 111.29 54.7102C114.197 57.617 118.139 59.25 122.25 59.25H147.25H154.493L149.371 54.1287L111.871 16.6287ZM56.75 71.4786L54.3876 70.1145L54.379 70.1095L54.3703 70.1046C52.2469 68.8973 49.7321 68.5789 47.3748 69.2189C45.0175 69.8589 43.0091 71.4053 41.7877 73.5206C40.5664 75.636 40.2313 78.1486 40.8557 80.51C41.48 82.8715 43.0131 84.8902 45.1203 86.1255L45.1288 86.1306L45.1374 86.1355L47.5005 87.5L45.1547 88.8545C45.1515 88.8564 45.1482 88.8583 45.145 88.8601C44.0885 89.4625 43.1612 90.2672 42.4161 91.2283C41.6687 92.1924 41.1194 93.2949 40.7997 94.4721C40.4801 95.6494 40.3965 96.8783 40.5538 98.088C40.711 99.2977 41.106 100.464 41.7159 101.521L44.314 100.021L41.7159 101.521C42.3259 102.577 43.1388 103.503 44.1078 104.244L45.9301 101.861L44.1078 104.244C45.0769 104.985 46.1829 105.527 47.3623 105.838C48.5416 106.15 49.771 106.226 50.9797 106.06C52.1847 105.896 53.3453 105.495 54.3952 104.881C54.3984 104.879 54.4016 104.877 54.4047 104.876L56.75 103.521V106.25C56.75 108.703 57.7245 111.056 59.4593 112.791C61.194 114.525 63.5467 115.5 66 115.5C68.4533 115.5 70.806 114.525 72.5407 112.791C74.2755 111.056 75.25 108.703 75.25 106.25V103.521L77.5953 104.876C77.5984 104.877 77.6016 104.879 77.6048 104.881C78.6547 105.495 79.8153 105.896 81.0203 106.06C82.229 106.226 83.4584 106.15 84.6377 105.838L83.8709 102.938L84.6377 105.838C85.8171 105.527 86.9231 104.985 87.8922 104.244C88.8612 103.503 89.6741 102.577 90.2841 101.521C90.894 100.464 91.289 99.2977 91.4462 98.088C91.6035 96.8783 91.5199 95.6494 91.2003 94.4722L88.3051 95.2582L91.2003 94.4721C90.8806 93.2949 90.3313 92.1925 89.5839 91.2283C88.8389 90.2673 87.9117 89.4627 86.8555 88.8604C86.8521 88.8584 86.8487 88.8565 86.8452 88.8545L84.4995 87.5L86.8452 86.1455C86.8487 86.1435 86.8521 86.1416 86.8555 86.1396C87.9117 85.5373 88.8389 84.7327 89.5839 83.7717C90.3313 82.8075 90.8806 81.7051 91.2003 80.5279L88.3051 79.7418L91.2003 80.5278C91.5199 79.3506 91.6035 78.1217 91.4462 76.912C91.289 75.7023 90.894 74.5356 90.2841 73.4792C89.6741 72.4227 88.8612 71.4974 87.8922 70.7564C86.9231 70.0153 85.8171 69.4733 84.6377 69.1615L83.8709 72.0619L84.6377 69.1615C83.4584 68.8497 82.229 68.7743 81.0203 68.9395C79.8155 69.1043 78.6551 69.5049 77.6054 70.1185C77.602 70.1205 77.5986 70.1225 77.5953 70.1245L75.25 71.4786V68.75C75.25 66.2967 74.2754 63.944 72.5407 62.2093C70.806 60.4746 68.4533 59.5 66 59.5C63.5467 59.5 61.194 60.4746 59.4593 62.2093C57.7246 63.944 56.75 66.2967 56.75 68.75V71.4786ZM109.75 122H47.25C44.7968 122 42.444 122.975 40.7093 124.709C38.9746 126.444 38 128.797 38 131.25C38 133.703 38.9746 136.056 40.7093 137.791C42.444 139.525 44.7968 140.5 47.25 140.5H109.75C112.203 140.5 114.556 139.525 116.291 137.791C118.025 136.056 119 133.703 119 131.25C119 128.797 118.025 126.444 116.291 124.709C114.556 122.975 112.203 122 109.75 122ZM109.75 147H47.25C44.7968 147 42.444 147.975 40.7093 149.709C38.9746 151.444 38 153.797 38 156.25C38 158.703 38.9746 161.056 40.7093 162.791C42.444 164.525 44.7968 165.5 47.25 165.5H109.75C112.203 165.5 114.556 164.525 116.291 162.791C118.025 161.056 119 158.703 119 156.25C119 153.797 118.025 151.444 116.291 149.709C114.556 147.975 112.203 147 109.75 147Z" stroke="#201F2E" stroke-width="6"/>
</svg>
