<svg width="63" height="129" viewBox="0 0 63 129" fill="none" xmlns="http://www.w3.org/2000/svg">
<path d="M0.511628 127.965C0.452421 128.234 0.623076 128.501 0.892796 128.56C1.16252 128.62 1.42917 128.449 1.48837 128.179L0.511628 127.965ZM11.7301 116.516L11.5831 116.039L11.7301 116.516ZM17.5079 90.1038L18.0071 90.1315L17.5079 90.1038ZM27.4126 80.9327L26.9129 80.918L27.4126 80.9327ZM38.1428 59.4724L38.4498 59.8671L38.1428 59.4724ZM62.4511 1.35355C62.6464 1.15829 62.6464 0.841709 62.4511 0.646447C62.2558 0.451184 61.9392 0.451184 61.744 0.646447L62.4511 1.35355ZM1.48837 128.179C2.47908 123.666 3.20251 121.526 4.5493 120.178C5.21746 119.508 6.06437 119.011 7.24714 118.53C8.43737 118.046 9.92856 117.594 11.8772 116.994L11.5831 116.039C9.65415 116.632 8.11149 117.099 6.87053 117.604C5.6221 118.111 4.64048 118.671 3.84169 119.471C2.2546 121.06 1.49053 123.505 0.511628 127.965L1.48837 128.179ZM11.8772 116.994C13.614 116.46 14.8935 115.777 15.8229 114.931C16.7584 114.079 17.3139 113.084 17.6356 111.971C17.9542 110.868 18.0428 109.652 18.0562 108.355C18.0629 107.704 18.0507 107.025 18.037 106.323C18.0232 105.619 18.0079 104.892 18.0079 104.135H17.0079C17.0079 104.904 17.0234 105.641 17.0371 106.342C17.0509 107.046 17.0628 107.711 17.0563 108.344C17.0431 109.615 16.9554 110.723 16.675 111.693C16.3977 112.653 15.9314 113.48 15.1496 114.192C14.3615 114.909 13.228 115.532 11.5831 116.039L11.8772 116.994ZM18.0079 104.135C18.0079 99.442 17.7498 94.763 18.0071 90.1315L17.0087 90.076C16.7496 94.7399 17.0079 99.5203 17.0079 104.135H18.0079ZM18.0071 90.1315C18.0974 88.5073 18.6867 87.6488 19.4734 87.1109C20.3085 86.5399 21.4106 86.2932 22.6361 86.0238C23.8124 85.7653 25.115 85.4838 26.1208 84.7724C27.1763 84.0259 27.8565 82.8498 27.9124 80.9474L26.9129 80.918C26.8647 82.557 26.3035 83.4184 25.5434 83.956C24.7337 84.5286 23.6464 84.7779 22.4214 85.0471C21.2456 85.3056 19.9351 85.5838 18.9089 86.2854C17.8344 87.0201 17.1139 88.1818 17.0087 90.076L18.0071 90.1315ZM27.9124 80.9474C28.0572 76.0252 27.9126 71.063 27.9126 66.1673H26.9126C26.9126 71.1046 27.0571 76.013 26.9129 80.918L27.9124 80.9474ZM27.9126 66.1673C27.9126 64.609 28.3356 63.6741 28.9512 63.0648C29.5839 62.4385 30.4863 62.0884 31.5819 61.8409C32.1259 61.7181 32.7 61.6239 33.2955 61.5295C33.8858 61.4359 34.4988 61.3417 35.0964 61.2204C36.2868 60.9786 37.4858 60.6168 38.4498 59.8671L37.8358 59.0778C37.0584 59.6824 36.0454 60.0072 34.8974 60.2404C34.3258 60.3564 33.738 60.4468 33.1389 60.5418C32.5449 60.636 31.9411 60.7346 31.3615 60.8655C30.2099 61.1257 29.0827 61.5276 28.2477 62.354C27.3956 63.1974 26.9126 64.4157 26.9126 66.1673H27.9126ZM38.4498 59.8671C40.0847 58.5955 41.7793 56.4952 43.176 54.0831C44.5749 51.6671 45.6982 48.8983 46.1623 46.2666C46.6245 43.6456 46.4451 41.0821 45.1311 39.1593C43.7996 37.2109 41.3918 36.0448 37.6842 36.0448V37.0448C41.1833 37.0448 43.2199 38.135 44.3055 39.7235C45.4085 41.3376 45.6186 43.5916 45.1775 46.0929C44.7383 48.5835 43.6657 51.2418 42.3106 53.582C40.9534 55.926 39.3361 57.9109 37.8358 59.0778L38.4498 59.8671ZM37.6842 37.0448C41.4852 37.0448 44.6311 35.0203 47.2641 32.0118C49.8941 29.0068 52.0585 24.9701 53.9083 20.8203C55.758 16.6704 57.314 12.3569 58.7006 8.81081C59.3964 7.03149 60.0486 5.44744 60.6771 4.15848C61.3108 2.85866 61.8985 1.90616 62.4511 1.35355L61.744 0.646447C61.067 1.32338 60.4201 2.40381 59.7782 3.72024C59.1311 5.04755 58.4668 6.66309 57.7693 8.44662C56.3695 12.0263 54.832 16.2915 52.9949 20.4131C51.1577 24.5348 49.0418 28.4621 46.5116 31.3532C43.9843 34.2409 41.0899 36.0448 37.6842 36.0448V37.0448Z" fill="#201F2E"/>
</svg>
