<svg width="62" height="68" viewBox="0 0 62 68" fill="none" xmlns="http://www.w3.org/2000/svg">
<path d="M33.5803 67.5357H28.4142C27.0441 67.5357 25.7301 66.9884 24.7613 66.0141C23.7924 65.0399 23.2482 63.7185 23.2482 62.3407L23.2562 48.4082C23.2564 48.2941 23.2267 48.182 23.1701 48.0831C23.1135 47.9843 23.032 47.9022 22.9338 47.8451C22.8356 47.788 22.7242 47.7579 22.6107 47.7578C22.4973 47.7578 22.3858 47.7878 22.2876 47.8448L10.2862 54.8354C9.11898 55.513 7.73192 55.6967 6.43009 55.346C5.12825 54.9952 4.01827 54.1389 3.34427 52.9652L0.680516 48.3156L0.670831 48.2994C0.0149919 47.1262 -0.156914 45.741 0.192065 44.4417C0.541045 43.1424 1.38305 42.0326 2.53707 41.351L14.5821 34.3296C14.6799 34.2725 14.7612 34.1906 14.8176 34.092C14.8741 33.9934 14.9038 33.8816 14.9038 33.7679C14.9038 33.6541 14.8741 33.5423 14.8176 33.4437C14.7612 33.3452 14.6799 33.2632 14.5821 33.2061L2.54837 26.1912C1.96897 25.8571 1.46091 25.4112 1.05337 24.879C0.645833 24.3469 0.346848 23.7391 0.173587 23.0904C0.000326532 22.4417 -0.0437966 21.765 0.0437516 21.0992C0.1313 20.4333 0.348796 19.7914 0.683746 19.2103L3.33781 14.5754C3.67318 13.9894 4.12083 13.4762 4.65484 13.0654C5.18884 12.6546 5.79859 12.3545 6.44876 12.1824C7.09151 12.0089 7.76212 11.9655 8.42169 12.0547C9.08126 12.1439 9.71665 12.3639 10.291 12.7019L22.2876 19.6828C22.3858 19.7398 22.4973 19.7698 22.6107 19.7698C22.7242 19.7697 22.8356 19.7396 22.9338 19.6825C23.032 19.6254 23.1135 19.5433 23.1701 19.4445C23.2267 19.3456 23.2564 19.2335 23.2562 19.1194L23.2482 5.19506C23.2482 3.81724 23.7924 2.49586 24.7613 1.5216C25.7301 0.547334 27.0441 0 28.4142 0H33.5803C34.9504 0 36.2644 0.547334 37.2333 1.5216C38.2021 2.49586 38.7464 3.81724 38.7464 5.19506V19.1113C38.7462 19.2254 38.7759 19.3375 38.8325 19.4363C38.8891 19.5352 38.9706 19.6173 39.0688 19.6744C39.167 19.7315 39.2785 19.7616 39.3919 19.7617C39.5053 19.7617 39.6168 19.7317 39.715 19.6746L51.7164 12.6841C52.8839 12.0077 54.2706 11.8248 55.572 12.1755C56.8735 12.5261 57.9834 13.3816 58.6583 14.5543L61.3205 19.2038L61.3302 19.2185C61.9935 20.3929 62.1682 21.7834 61.8162 23.0869C61.4642 24.3903 60.614 25.5009 59.451 26.1766L47.4189 33.1899C47.3211 33.247 47.2398 33.3289 47.1834 33.4275C47.1269 33.5261 47.0972 33.6379 47.0972 33.7516C47.0972 33.8654 47.1269 33.9772 47.1834 34.0757C47.2398 34.1743 47.3211 34.2563 47.4189 34.3133L59.451 41.3267C60.0304 41.6608 60.5385 42.1067 60.946 42.6388C61.3536 43.1709 61.6527 43.7787 61.8261 44.4273C61.9995 45.0759 62.0438 45.7525 61.9565 46.4184C61.8692 47.0843 61.6519 47.7263 61.3173 48.3075L58.6632 52.9425C58.3278 53.5285 57.8802 54.0417 57.3462 54.4524C56.8122 54.8632 56.2024 55.1633 55.5522 55.3355C54.9095 55.5089 54.2389 55.5523 53.5793 55.4631C52.9197 55.374 52.2844 55.154 51.71 54.8159L39.7134 47.8351C39.6153 47.7781 39.504 47.7481 39.3907 47.7481C39.2774 47.7481 39.1661 47.778 39.0679 47.8349C38.9698 47.8918 38.8882 47.9737 38.8315 48.0724C38.7748 48.171 38.7449 48.2829 38.7448 48.3968L38.7464 62.3407C38.7464 63.7185 38.2021 65.0399 37.2333 66.0141C36.2644 66.9884 34.9504 67.5357 33.5803 67.5357Z" fill="#E1E4F4"/>
</svg>
