<svg width="557" height="557" viewBox="0 0 557 557" fill="none" xmlns="http://www.w3.org/2000/svg">
<path d="M264.984 5.39106C272.631 -1.61946 284.369 -1.61947 292.016 5.39105L301.711 14.2794C307.911 19.9639 317.005 21.1612 324.466 17.2752L336.131 11.1989C345.331 6.40641 356.669 9.44433 362.241 18.1951L369.305 29.2899C373.823 36.3854 382.297 39.8957 390.509 38.073L403.35 35.2229C413.477 32.975 423.642 38.8438 426.759 48.7385L430.711 61.2836C433.239 69.3066 440.516 74.8907 448.92 75.2555L462.06 75.8259C472.424 76.2757 480.724 84.5755 481.174 94.9397L481.745 108.08C482.109 116.484 487.693 123.761 495.716 126.289L508.262 130.241C518.156 133.358 524.025 143.523 521.777 153.65L518.927 166.491C517.104 174.702 520.615 183.177 527.71 187.695L538.805 194.759C547.556 200.331 550.594 211.669 545.801 220.869L539.725 232.534C535.839 239.995 537.036 249.089 542.721 255.289L551.609 264.984C558.619 272.631 558.62 284.369 551.609 292.016L542.721 301.711C537.036 307.911 535.839 317.005 539.725 324.466L545.801 336.131C550.594 345.331 547.556 356.669 538.805 362.241L527.71 369.305C520.615 373.823 517.104 382.297 518.927 390.509L521.777 403.35C524.025 413.477 518.156 423.642 508.262 426.759L495.716 430.711C487.693 433.239 482.109 440.516 481.745 448.92L481.174 462.06C480.724 472.424 472.424 480.724 462.06 481.174L448.92 481.745C440.516 482.109 433.239 487.693 430.711 495.716L426.759 508.262C423.642 518.156 413.477 524.025 403.35 521.777L390.509 518.927C382.297 517.104 373.823 520.615 369.305 527.71L362.241 538.805C356.669 547.556 345.331 550.594 336.131 545.801L324.466 539.725C317.005 535.839 307.911 537.036 301.711 542.721L292.016 551.609C284.369 558.619 272.631 558.62 264.984 551.609L255.289 542.721C249.089 537.036 239.995 535.839 232.534 539.725L220.869 545.801C211.669 550.594 200.331 547.556 194.759 538.805L187.695 527.71C183.177 520.615 174.703 517.104 166.491 518.927L153.65 521.777C143.523 524.025 133.358 518.156 130.241 508.262L126.289 495.716C123.761 487.693 116.484 482.109 108.08 481.745L94.9397 481.174C84.5755 480.724 76.2757 472.424 75.8259 462.06L75.2555 448.92C74.8907 440.516 69.3066 433.239 61.2836 430.711L48.7385 426.759C38.8438 423.642 32.975 413.477 35.2229 403.35L38.073 390.509C39.8957 382.298 36.3854 373.823 29.2899 369.305L18.1951 362.241C9.44431 356.669 6.4064 345.331 11.1989 336.131L17.2752 324.466C21.1612 317.005 19.9639 307.911 14.2794 301.711L5.39106 292.016C-1.61946 284.369 -1.61947 272.631 5.39105 264.984L14.2794 255.289C19.9639 249.089 21.1612 239.995 17.2752 232.534L11.1989 220.869C6.40641 211.669 9.44433 200.331 18.1951 194.759L29.2899 187.695C36.3854 183.177 39.8957 174.703 38.073 166.491L35.2229 153.65C32.975 143.523 38.8438 133.358 48.7385 130.241L61.2836 126.289C69.3066 123.761 74.8907 116.484 75.2555 108.08L75.8259 94.9398C76.2757 84.5755 84.5755 76.2757 94.9397 75.8259L108.08 75.2555C116.484 74.8907 123.761 69.3066 126.289 61.2836L130.241 48.7385C133.358 38.8438 143.523 32.975 153.65 35.2229L166.491 38.073C174.702 39.8957 183.177 36.3854 187.695 29.2899L194.759 18.1951C200.331 9.44434 211.669 6.4064 220.869 11.1989L232.534 17.2752C239.995 21.1612 249.089 19.9639 255.289 14.2794L264.984 5.39106Z" fill="white"/>
</svg>
