<svg width="386" height="160" viewBox="0 0 386 160" fill="none" xmlns="http://www.w3.org/2000/svg">
<path d="M5.76878 156.944C5.43327 139.162 -5.88306 117.325 19.8005 117.325C32.5272 117.325 39.3356 93.0928 47.8639 86.1438C49.7078 84.6414 54.9304 79.93 57.7687 81.1915C59.9553 82.1633 60.2063 85.3099 62.721 85.8687C70.8426 87.6735 80.5916 65.3215 85.3736 60.6483C88.8378 57.2628 92.1943 60.3225 96.012 58.0804C105.068 52.7616 112.331 44.1701 120.957 38.0875C123.704 36.1504 127.21 31.4843 130.862 31.4843C137.466 31.4843 141.664 33.1354 148.104 29.2833C152.746 26.5063 163.596 12.345 169.564 13.6925C173.469 14.5743 173.599 19.9365 176.534 21.2127C187.855 26.1351 206.805 9.43896 215.419 3.69602C220.275 0.459016 223.433 9.41714 226.058 12.0417C228.686 14.6698 234.653 13.0558 237.705 12.4085C249.429 9.9215 256.041 -0.107436 264.026 12.9588C268.346 20.0281 289.422 12.9459 294.382 9.47378C296.21 8.19443 297.639 18.2062 297.959 19.3785C299.184 23.8729 301.194 24.8079 305.662 24.8812C316.99 25.0669 329.799 18.963 336.477 30.017C343.317 41.3386 361.925 23.4856 370.777 23.9641C373.827 24.1289 373.661 32.6243 374.262 34.7859C375.29 38.4881 378.875 38.8028 382.149 39.7383" stroke="white" stroke-width="6" stroke-linecap="round"/>
</svg>
