<svg width="498" height="489" viewBox="0 0 498 489" fill="none" xmlns="http://www.w3.org/2000/svg">
<path d="M192.5 85.0306L220.352 141.114C224.96 150.393 237.365 152.317 244.568 144.871L288.103 99.863C291.808 96.0329 298.135 99.8826 296.436 104.933L276.474 164.284C273.171 174.104 280.581 184.236 290.94 184.064L353.55 183.023C358.878 182.935 360.629 190.13 355.857 192.501L299.774 220.352C290.494 224.961 288.57 237.365 296.017 244.568L341.024 288.104C344.854 291.809 341.005 298.135 335.954 296.437L276.603 276.474C266.783 273.171 256.651 280.582 256.823 290.941L257.864 353.55C257.953 358.878 250.757 360.63 248.387 355.857L220.535 299.774C215.927 290.495 203.522 288.57 196.319 296.017L152.784 341.025C149.079 344.855 142.752 341.005 144.451 335.955L164.413 276.604C167.716 266.784 160.306 256.652 149.947 256.824L87.3372 257.865C82.0092 257.953 80.2575 250.757 85.0302 248.387L141.113 220.536C150.393 215.927 152.317 203.523 144.87 196.32L99.8626 152.784C96.0325 149.079 99.8822 142.752 104.933 144.451L164.284 164.414C174.104 167.717 184.236 160.306 184.064 149.947L183.023 87.3376C182.934 82.0096 190.13 80.258 192.5 85.0306Z" stroke="#6A79CA" stroke-width="10"/>
<path d="M185.024 124.657C182.599 114.279 195.925 107.814 202.576 116.141L241.554 164.949C245.864 170.346 254.218 169.852 257.863 163.985L290.82 110.925C296.443 101.872 310.438 106.723 309.252 117.314L302.302 179.388C301.534 186.253 307.79 191.811 314.516 190.239L375.339 176.024C385.717 173.599 392.182 186.925 383.855 193.576L335.047 232.554C329.65 236.864 330.144 245.218 336.011 248.863L389.071 281.82C398.124 287.443 393.273 301.438 382.682 300.253L320.608 293.302C313.743 292.534 308.185 298.79 309.757 305.516L323.972 366.339C326.397 376.717 313.071 383.183 306.42 374.855L267.442 326.047C263.132 320.65 254.778 321.144 251.133 327.011L218.176 380.071C212.553 389.124 198.558 384.273 199.743 373.682L206.694 311.608C207.462 304.743 201.206 299.185 194.48 300.757L133.657 314.972C123.279 317.397 116.813 304.071 125.141 297.42L173.949 258.442C179.346 254.132 178.852 245.778 172.985 242.133L119.925 209.176C110.872 203.553 115.723 189.558 126.314 190.744L188.388 197.694C195.253 198.462 200.81 192.206 199.239 185.48L185.024 124.657Z" fill="white"/>
</svg>
