<svg width="512" height="473" viewBox="0 0 512 473" fill="none" xmlns="http://www.w3.org/2000/svg">
<path d="M358.236 366.193C360.173 376.496 346.968 382.457 340.522 374.189L310.586 335.79C306.423 330.449 298.266 330.705 294.444 336.295L266.968 376.491C261.052 385.146 247.5 380.023 248.788 369.619L254.773 321.299C255.605 314.578 249.657 308.991 243.001 310.242L195.15 319.236C184.847 321.173 178.887 307.967 187.154 301.522L225.553 271.586C230.894 267.422 230.639 259.265 225.048 255.444L184.853 227.968C176.198 222.052 181.321 208.499 191.725 209.788L240.045 215.772C246.765 216.605 252.353 210.656 251.102 204.001L242.108 156.15C240.171 145.847 253.376 139.886 259.822 148.154L289.758 186.553C293.921 191.894 302.078 191.638 305.9 186.048L333.376 145.852C339.292 137.197 352.844 142.32 351.556 152.724L345.571 201.044C344.739 207.765 350.687 213.352 357.343 212.101L405.194 203.107C415.497 201.17 421.457 214.376 413.19 220.821L374.791 250.757C369.45 254.921 369.705 263.078 375.296 266.899L415.491 294.375C424.146 300.291 419.023 313.844 408.619 312.555L360.299 306.571C353.579 305.738 347.991 311.687 349.242 318.342L358.236 366.193Z" fill="#FFE9BE"/>
<path d="M309.291 123.553C317.33 122.339 323.381 130.714 319.704 137.964L298.557 179.661C296.347 184.017 297.608 189.333 301.54 192.232L339.167 219.981C345.71 224.806 344.067 235.007 336.34 237.534L291.902 252.064C287.259 253.583 284.393 258.233 285.123 263.063L292.107 309.291C293.322 317.33 284.947 323.381 277.696 319.704L236 298.556C231.643 296.347 226.328 297.608 223.428 301.54L195.679 339.167C190.854 345.71 180.653 344.066 178.126 336.339L163.596 291.902C162.078 287.259 157.427 284.393 152.597 285.122L106.369 292.107C98.3309 293.322 92.2795 284.947 95.9567 277.696L117.104 236C119.314 231.643 118.052 226.328 114.121 223.428L76.4936 195.679C69.9509 190.854 71.594 180.653 79.3209 178.126L123.758 163.596C128.401 162.078 131.268 157.427 130.538 152.597L123.553 106.369C122.339 98.3307 130.714 92.2793 137.964 95.9565L179.661 117.104C184.017 119.313 189.333 118.052 192.232 114.121L219.981 76.4934C224.806 69.9507 235.008 71.5938 237.534 79.3208L252.065 123.758C253.583 128.401 258.233 131.268 263.063 130.538L309.291 123.553Z" fill="url(#paint0_linear_512_370)"/>
<defs>
<linearGradient id="paint0_linear_512_370" x1="137.384" y1="189.567" x2="336.847" y2="253.563" gradientUnits="userSpaceOnUse">
<stop stop-color="#6A79CA"/>
<stop offset="1" stop-color="#6A79CA" stop-opacity="0"/>
</linearGradient>
</defs>
</svg>
