<svg width="188" height="188" viewBox="0 0 188 188" fill="none" xmlns="http://www.w3.org/2000/svg">
<path d="M154.08 72.5266H15.0354C7.83614 72.5266 2 78.3628 2 85.562V172.465C2 179.664 7.83614 185.5 15.0354 185.5H154.08C161.279 185.5 167.115 179.664 167.115 172.465V85.562C167.115 78.3628 161.279 72.5266 154.08 72.5266Z" fill="#6A79CA" stroke="#6A79CA" stroke-width="4" stroke-linejoin="round"/>
<path d="M62.8319 37.7655H106.283V20.385H62.8319V37.7655ZM110.628 42.1107V72.5266H128.009V42.1107H110.628ZM58.4867 72.5266V42.1107H41.1062V72.5266H58.4867ZM106.283 37.7655C107.436 37.7655 108.541 38.2233 109.356 39.0382C110.171 39.8531 110.628 40.9583 110.628 42.1107H128.009C128.009 36.3487 125.72 30.8227 121.646 26.7483C117.571 22.674 112.045 20.385 106.283 20.385V37.7655ZM62.8319 20.385C57.0699 20.385 51.5438 22.674 47.4695 26.7483C43.3951 30.8227 41.1062 36.3487 41.1062 42.1107H58.4867C58.4867 40.9583 58.9445 39.8531 59.7594 39.0382C60.5743 38.2233 61.6795 37.7655 62.8319 37.7655V20.385Z" fill="#6A79CA"/>
<path d="M58.4867 129.013H110.628M84.5575 102.943V155.084" stroke="white" stroke-width="12" stroke-linecap="round" stroke-linejoin="round"/>
<path d="M171.097 55.7671H32.0527C24.8535 55.7671 19.0173 61.6032 19.0173 68.8025V155.705C19.0173 162.904 24.8535 168.74 32.0527 168.74H171.097C178.296 168.74 184.132 162.904 184.132 155.705V68.8025C184.132 61.6032 178.296 55.7671 171.097 55.7671Z" stroke="#201F2E" stroke-width="6" stroke-linejoin="round"/>
<path d="M59.0452 53.6603V23.6394C59.0452 3.6255 69.0521 3.00009 100.949 3.00008L109.08 3L125.341 3.00002C133.472 3.00002 145.981 6.12728 145.981 24.8903C145.981 43.6533 146.189 51.9925 145.981 53.6603H129.094V24.8903C128.885 22.8055 127.218 21.1377 120.338 21.1377C107.829 21.1377 100.949 21.1377 82.8117 21.1377C80.7269 21.1377 76.5574 20.8875 76.5574 24.8903C76.5574 28.8931 76.5574 46.1551 76.5574 53.6603L59.0452 54.2858" stroke="#201F2E" stroke-width="6" stroke-linecap="square"/>
<path d="M75.504 112.254H127.646M101.575 86.183V138.325" stroke="#201F2E" stroke-width="6" stroke-linecap="round" stroke-linejoin="round"/>
</svg>
