<svg width="224" height="222" viewBox="0 0 224 222" fill="none" xmlns="http://www.w3.org/2000/svg">
<path fill-rule="evenodd" clip-rule="evenodd" d="M137.727 31H24.1667C15.7903 31 9 37.7903 9 46.1667V157.389C9 165.765 15.7903 172.556 24.1667 172.556H175.833C184.21 172.556 191 165.765 191 157.389V88.7982C189.518 88.9318 188.017 89 186.5 89C159.162 89 137 66.8381 137 39.5C137 36.6017 137.249 33.7617 137.727 31Z" fill="#6A79CA"/>
<path d="M137.727 31L145.938 32.421C146.358 29.9984 145.686 27.5142 144.102 25.6333C142.519 23.7524 140.186 22.6667 137.727 22.6667V31ZM191 88.7982H199.333C199.333 86.458 198.349 84.2257 196.622 82.6469C194.894 81.0681 192.583 80.2885 190.252 80.4985L191 88.7982ZM137.727 22.6667H24.1667V39.3333H137.727V22.6667ZM24.1667 22.6667C11.188 22.6667 0.666667 33.188 0.666667 46.1667H17.3333C17.3333 42.3927 20.3927 39.3333 24.1667 39.3333V22.6667ZM0.666667 46.1667V157.389H17.3333V46.1667H0.666667ZM0.666667 157.389C0.666667 170.368 11.188 180.889 24.1667 180.889V164.222C20.3927 164.222 17.3333 161.163 17.3333 157.389H0.666667ZM24.1667 180.889H175.833V164.222H24.1667V180.889ZM175.833 180.889C188.812 180.889 199.333 170.368 199.333 157.389H182.667C182.667 161.163 179.607 164.222 175.833 164.222V180.889ZM199.333 157.389V88.7982H182.667V157.389H199.333ZM190.252 80.4985C189.018 80.6097 187.767 80.6667 186.5 80.6667V97.3333C188.267 97.3333 190.017 97.2538 191.748 97.0979L190.252 80.4985ZM186.5 80.6667C163.764 80.6667 145.333 62.2357 145.333 39.5H128.667C128.667 71.4405 154.56 97.3333 186.5 97.3333V80.6667ZM145.333 39.5C145.333 37.0801 145.541 34.7154 145.938 32.421L129.516 29.579C128.957 32.8079 128.667 36.1234 128.667 39.5H145.333Z" fill="#6A79CA"/>
<path d="M49.4443 213H150.555M99.9999 172.556V213" stroke="#6A79CA" stroke-width="16.6667" stroke-linecap="round" stroke-linejoin="round"/>
<path d="M208.718 33.8366C207.895 31.9117 206.71 30.1674 205.227 28.7013C203.743 27.2308 201.994 26.0622 200.074 25.2591C198.083 24.423 195.947 23.995 193.791 24C190.767 24 187.816 24.8373 185.251 26.4189C184.638 26.7972 184.055 27.2128 183.503 27.6655C182.951 27.2128 182.368 26.7972 181.755 26.4189C179.19 24.8373 176.239 24 173.215 24C171.037 24 168.926 24.4218 166.933 25.2591C165.006 26.0654 163.27 27.2252 161.779 28.7013C160.294 30.1657 159.108 31.9105 158.288 33.8366C157.436 35.8399 157 37.9673 157 40.1566C157 42.2219 157.417 44.3741 158.245 46.5634C158.939 48.3931 159.933 50.2909 161.202 52.2074C163.215 55.2402 165.982 58.4033 169.417 61.6099C175.11 66.9251 180.748 70.5968 180.988 70.7456L182.442 71.6883C183.086 72.1039 183.914 72.1039 184.558 71.6883L186.012 70.7456C186.252 70.5906 191.883 66.9251 197.583 61.6099C201.018 58.4033 203.785 55.2402 205.797 52.2074C207.067 50.2909 208.067 48.3931 208.755 46.5634C209.583 44.3741 210 42.2219 210 40.1566C210.006 37.9673 209.57 35.8399 208.718 33.8366Z" fill="#6A79CA"/>
<path d="M148.727 10L151.683 10.5116C151.834 9.63941 151.592 8.74512 151.022 8.06799C150.452 7.39086 149.612 7 148.727 7V10ZM202 67.7982H205C205 66.9557 204.646 66.1521 204.024 65.5837C203.402 65.0154 202.57 64.7347 201.731 64.8103L202 67.7982ZM148.727 7H35.1667V13H148.727V7ZM35.1667 7C25.1335 7 17 15.1335 17 25.1667H23C23 18.4472 28.4472 13 35.1667 13V7ZM17 25.1667V136.389H23V25.1667H17ZM17 136.389C17 146.422 25.1335 154.556 35.1667 154.556V148.556C28.4472 148.556 23 143.108 23 136.389H17ZM35.1667 154.556H186.833V148.556H35.1667V154.556ZM186.833 154.556C196.866 154.556 205 146.422 205 136.389H199C199 143.108 193.553 148.556 186.833 148.556V154.556ZM205 136.389V67.7982H199V136.389H205ZM201.731 64.8103C200.338 64.9358 198.927 65 197.5 65V71C199.107 71 200.698 70.9277 202.269 70.7861L201.731 64.8103ZM197.5 65C171.819 65 151 44.1812 151 18.5H145C145 47.4949 168.505 71 197.5 71V65ZM151 18.5C151 15.7739 151.234 13.105 151.683 10.5116L145.771 9.48844C145.264 12.4183 145 15.4295 145 18.5H151Z" fill="#201F2E"/>
<path d="M60.4443 192H161.555M111 151.556V192" stroke="#201F2E" stroke-width="6" stroke-linecap="round" stroke-linejoin="round"/>
<path d="M219.718 12.8366C218.895 10.9117 217.71 9.16739 216.227 7.70127C214.743 6.23078 212.994 5.0622 211.074 4.25908C209.083 3.42299 206.947 2.99503 204.791 3.00004C201.767 3.00004 198.816 3.83733 196.251 5.41888C195.638 5.79721 195.055 6.21276 194.503 6.66551C193.951 6.21276 193.368 5.79721 192.755 5.41888C190.19 3.83733 187.239 3.00004 184.215 3.00004C182.037 3.00004 179.926 3.42179 177.933 4.25908C176.006 5.06536 174.27 6.22516 172.779 7.70127C171.294 9.16573 170.108 10.9105 169.288 12.8366C168.436 14.8399 168 16.9673 168 19.1566C168 21.2219 168.417 23.3741 169.245 25.5634C169.939 27.3931 170.933 29.2909 172.202 31.2074C174.215 34.2402 176.982 37.4033 180.417 40.6099C186.11 45.9251 191.748 49.5968 191.988 49.7456L193.442 50.6883C194.086 51.1039 194.914 51.1039 195.558 50.6883L197.012 49.7456C197.252 49.5906 202.883 45.9251 208.583 40.6099C212.018 37.4033 214.785 34.2402 216.797 31.2074C218.067 29.2909 219.067 27.3931 219.755 25.5634C220.583 23.3741 221 21.2219 221 19.1566C221.006 16.9673 220.57 14.8399 219.718 12.8366Z" stroke="#201F2E" stroke-width="6"/>
</svg>
