<svg width="203" height="204" viewBox="0 0 203 204" fill="none" xmlns="http://www.w3.org/2000/svg">
<path d="M175.68 21H7.32C3.27112 21 0 24.2711 0 28.32V196.68C0 200.729 3.27112 204 7.32 204H175.68C179.729 204 183 200.729 183 196.68V28.32C183 24.2711 179.729 21 175.68 21ZM66.795 151.616V169.23C66.795 170.236 65.9715 171.06 64.965 171.06H53.985C52.9785 171.06 52.155 170.236 52.155 169.23V151.616C42.6161 148.505 35.685 139.538 35.685 128.97C35.685 118.402 42.6161 109.412 52.155 106.324V55.77C52.155 54.7635 52.9785 53.94 53.985 53.94H64.965C65.9715 53.94 66.795 54.7635 66.795 55.77V106.324C76.3339 109.435 83.265 118.402 83.265 128.97C83.265 139.538 76.3339 148.528 66.795 151.616ZM130.753 118.699C130.799 118.699 130.822 118.676 130.845 118.676V169.23C130.845 170.236 130.021 171.06 129.015 171.06H118.035C117.029 171.06 116.205 170.236 116.205 169.23V118.676C116.251 118.676 116.274 118.699 116.297 118.699C106.689 115.634 99.735 106.644 99.735 96.03C99.735 85.416 106.689 76.4261 116.297 73.3609C116.251 73.3609 116.228 73.3838 116.205 73.3838V55.77C116.205 54.7635 117.029 53.94 118.035 53.94H129.015C130.021 53.94 130.845 54.7635 130.845 55.77V73.3838C130.799 73.3838 130.776 73.3609 130.753 73.3609C140.361 76.4261 147.315 85.416 147.315 96.03C147.315 106.644 140.361 115.634 130.753 118.699ZM115.29 96.03C115.29 98.2141 116.158 100.309 117.702 101.853C119.246 103.397 121.341 104.265 123.525 104.265C125.709 104.265 127.804 103.397 129.348 101.853C130.892 100.309 131.76 98.2141 131.76 96.03C131.76 93.8459 130.892 91.7513 129.348 90.207C127.804 88.6626 125.709 87.795 123.525 87.795C121.341 87.795 119.246 88.6626 117.702 90.207C116.158 91.7513 115.29 93.8459 115.29 96.03ZM66.6578 124.967L66.3146 124.418C66.3146 124.395 66.2917 124.395 66.2917 124.372L66.0859 124.098C66.063 124.075 66.0401 124.052 66.0401 124.029C65.8114 123.732 65.5826 123.457 65.3081 123.205L65.2624 123.16C65.1709 123.068 65.0794 122.977 64.9879 122.908C64.8049 122.725 64.599 122.565 64.3931 122.428H64.3702L64.0958 122.222C64.0729 122.199 64.0271 122.176 64.0042 122.153C63.7297 121.97 63.4324 121.787 63.1121 121.65C63.0664 121.627 62.9978 121.604 62.952 121.558C62.8605 121.513 62.7919 121.49 62.7004 121.444C62.6318 121.421 62.5403 121.376 62.4716 121.353C62.3573 121.307 62.2429 121.261 62.1285 121.238C62.037 121.215 61.9226 121.17 61.8311 121.147L61.6253 121.078L61.305 121.01C61.2593 120.987 61.1906 120.987 61.1449 120.964C60.9847 120.941 60.8246 120.895 60.6645 120.872C60.6188 120.872 60.573 120.872 60.5273 120.849C60.39 120.826 60.2756 120.826 60.1384 120.804C60.0926 120.804 60.0469 120.804 59.9783 120.781C59.7953 120.781 59.6351 120.758 59.4521 120.758C59.2691 120.758 59.109 120.758 58.926 120.781C58.8803 120.781 58.8345 120.781 58.7659 120.804C58.6286 120.804 58.4914 120.826 58.377 120.849C58.3313 120.849 58.2855 120.849 58.2398 120.872C58.0796 120.895 57.9195 120.918 57.7594 120.964C57.7136 120.987 57.645 120.987 57.5992 121.01L57.279 121.078L57.0731 121.147C56.9816 121.17 56.8673 121.215 56.7758 121.238C56.6614 121.284 56.547 121.33 56.4326 121.353C56.364 121.376 56.2725 121.421 56.2039 121.444C56.1124 121.49 56.0438 121.513 55.9523 121.558C55.9065 121.581 55.8379 121.604 55.7921 121.65C55.4948 121.81 55.1974 121.97 54.9 122.153C54.8771 122.176 54.8314 122.199 54.8085 122.222L54.534 122.428H54.5111C54.3052 122.588 54.0994 122.748 53.9164 122.908C53.8249 123 53.7334 123.068 53.6419 123.16L53.5961 123.205C53.3402 123.469 53.0959 123.744 52.8641 124.029C52.8413 124.052 52.8184 124.075 52.8184 124.098L52.6125 124.372C52.6125 124.395 52.5896 124.395 52.5896 124.418L52.2465 124.967C52.2236 125.013 52.2008 125.035 52.1779 125.081C51.5603 126.248 51.1942 127.575 51.1942 128.97C51.1942 130.365 51.5603 131.715 52.1779 132.859C52.2008 132.905 52.2236 132.927 52.2465 132.973L52.5896 133.522C52.5896 133.545 52.6125 133.545 52.6125 133.568L52.8184 133.842C52.8413 133.865 52.8641 133.888 52.8641 133.911C53.0929 134.208 53.3216 134.483 53.5961 134.735L53.6419 134.78C53.7334 134.872 53.8249 134.963 53.9164 135.032C54.0994 135.215 54.3052 135.375 54.5111 135.512H54.534L54.8085 135.718C54.8314 135.741 54.8771 135.764 54.9 135.787C55.1745 135.97 55.4719 136.153 55.7921 136.29C55.8379 136.313 55.9065 136.336 55.9523 136.382C56.0438 136.427 56.1124 136.45 56.2039 136.496C56.2725 136.519 56.364 136.564 56.4326 136.587C56.547 136.633 56.6614 136.679 56.7758 136.702C56.8673 136.725 56.9816 136.77 57.0731 136.793L57.279 136.862L57.5992 136.93C57.645 136.953 57.7136 136.953 57.7594 136.976C57.9195 136.999 58.0796 137.045 58.2398 137.068C58.2855 137.068 58.3313 137.068 58.377 137.091C58.5143 137.114 58.6286 137.114 58.7659 137.136C58.8116 137.136 58.8574 137.136 58.926 137.159C59.109 137.159 59.2691 137.182 59.4521 137.182C59.6351 137.182 59.7953 137.182 59.9783 137.159C60.024 137.159 60.0698 137.159 60.1384 137.136C60.2756 137.136 60.4129 137.114 60.5273 137.091C60.573 137.091 60.6188 137.091 60.6645 137.068C60.8246 137.045 60.9847 137.022 61.1449 136.976C61.1906 136.953 61.2593 136.953 61.305 136.93L61.6253 136.862L61.8311 136.793C61.9226 136.77 62.037 136.725 62.1285 136.702C62.2429 136.656 62.3573 136.61 62.4716 136.587C62.5403 136.564 62.6318 136.519 62.7004 136.496C62.7919 136.45 62.8605 136.427 62.952 136.382C62.9978 136.359 63.0664 136.336 63.1121 136.29C63.4095 136.13 63.7069 135.97 64.0042 135.787C64.0271 135.764 64.0729 135.741 64.0958 135.718L64.3702 135.512H64.3931C64.599 135.352 64.8049 135.192 64.9879 135.032C65.0794 134.94 65.1709 134.872 65.2624 134.78L65.3081 134.735C65.5598 134.483 65.8114 134.185 66.0401 133.911C66.063 133.888 66.0859 133.865 66.0859 133.842L66.2917 133.568C66.2917 133.545 66.3146 133.545 66.3146 133.522L66.6578 132.973C66.6806 132.927 66.7035 132.905 66.7264 132.859C67.344 131.692 67.71 130.365 67.71 128.97C67.71 127.575 67.344 126.225 66.7264 125.081C66.7035 125.035 66.6806 124.99 66.6578 124.967Z" fill="#6A79CA"/>
<mask id="path-2-inside-1_521_236" fill="white">
<path d="M195.64 0H26.36C22.289 0 19 3.27112 19 7.32V175.68C19 179.729 22.289 183 26.36 183H195.64C199.711 183 203 179.729 203 175.68V7.32C203 3.27112 199.711 0 195.64 0ZM86.16 130.616V148.23C86.16 149.236 85.332 150.06 84.32 150.06H73.28C72.268 150.06 71.44 149.236 71.44 148.23V130.616C61.849 127.505 54.88 118.538 54.88 107.97C54.88 97.4017 61.849 88.4119 71.44 85.3238V34.77C71.44 33.7635 72.268 32.94 73.28 32.94H84.32C85.332 32.94 86.16 33.7635 86.16 34.77V85.3238C95.751 88.4348 102.72 97.4017 102.72 107.97C102.72 118.538 95.751 127.528 86.16 130.616ZM150.468 97.6991C150.514 97.6991 150.537 97.6763 150.56 97.6763V148.23C150.56 149.236 149.732 150.06 148.72 150.06H137.68C136.668 150.06 135.84 149.236 135.84 148.23V97.6763C135.886 97.6763 135.909 97.6991 135.932 97.6991C126.272 94.6339 119.28 85.644 119.28 75.03C119.28 64.416 126.272 55.4261 135.932 52.3609C135.886 52.3609 135.863 52.3838 135.84 52.3838V34.77C135.84 33.7635 136.668 32.94 137.68 32.94H148.72C149.732 32.94 150.56 33.7635 150.56 34.77V52.3838C150.514 52.3838 150.491 52.3609 150.468 52.3609C160.128 55.4261 167.12 64.416 167.12 75.03C167.12 85.644 160.128 94.6339 150.468 97.6991ZM134.92 75.03C134.92 77.2141 135.792 79.3087 137.345 80.853C138.898 82.3974 141.004 83.265 143.2 83.265C145.396 83.265 147.502 82.3974 149.055 80.853C150.608 79.3087 151.48 77.2141 151.48 75.03C151.48 72.8459 150.608 70.7513 149.055 69.207C147.502 67.6626 145.396 66.795 143.2 66.795C141.004 66.795 138.898 67.6626 137.345 69.207C135.792 70.7513 134.92 72.8459 134.92 75.03ZM86.022 103.967L85.677 103.418C85.677 103.395 85.654 103.395 85.654 103.372L85.447 103.098C85.424 103.075 85.401 103.052 85.401 103.029C85.171 102.732 84.941 102.457 84.665 102.205L84.619 102.16C84.527 102.068 84.435 101.977 84.343 101.908C84.159 101.725 83.952 101.565 83.745 101.428H83.722L83.446 101.222C83.423 101.199 83.377 101.176 83.354 101.153C83.078 100.97 82.779 100.787 82.457 100.65C82.411 100.627 82.342 100.604 82.296 100.558C82.204 100.513 82.135 100.49 82.043 100.444C81.974 100.421 81.882 100.376 81.813 100.353C81.698 100.307 81.583 100.261 81.468 100.238C81.376 100.215 81.261 100.17 81.169 100.147L80.962 100.078L80.64 100.01C80.594 99.9866 80.525 99.9866 80.479 99.9638C80.318 99.9409 80.157 99.8951 79.996 99.8722C79.95 99.8722 79.904 99.8723 79.858 99.8494C79.72 99.8265 79.605 99.8265 79.467 99.8036C79.421 99.8036 79.375 99.8036 79.306 99.7808C79.122 99.7808 78.961 99.7579 78.777 99.7579C78.593 99.7579 78.432 99.7579 78.248 99.7808C78.202 99.7808 78.156 99.7807 78.087 99.8036C77.949 99.8036 77.811 99.8265 77.696 99.8494C77.65 99.8494 77.604 99.8494 77.558 99.8722C77.397 99.8951 77.236 99.918 77.075 99.9638C77.029 99.9866 76.96 99.9866 76.914 100.01L76.592 100.078L76.385 100.147C76.293 100.17 76.178 100.215 76.086 100.238C75.971 100.284 75.856 100.33 75.741 100.353C75.672 100.376 75.58 100.421 75.511 100.444C75.419 100.49 75.35 100.513 75.258 100.558C75.212 100.581 75.143 100.604 75.097 100.65C74.798 100.81 74.499 100.97 74.2 101.153C74.177 101.176 74.131 101.199 74.108 101.222L73.832 101.428H73.809C73.602 101.588 73.395 101.748 73.211 101.908C73.119 102 73.027 102.068 72.935 102.16L72.889 102.205C72.6316 102.469 72.3861 102.744 72.153 103.029C72.13 103.052 72.107 103.075 72.107 103.098L71.9 103.372C71.9 103.395 71.877 103.395 71.877 103.418L71.532 103.967C71.509 104.013 71.486 104.035 71.463 104.081C70.842 105.248 70.474 106.575 70.474 107.97C70.474 109.365 70.842 110.715 71.463 111.859C71.486 111.905 71.509 111.927 71.532 111.973L71.877 112.522C71.877 112.545 71.9 112.545 71.9 112.568L72.107 112.842C72.13 112.865 72.153 112.888 72.153 112.911C72.383 113.208 72.613 113.483 72.889 113.735L72.935 113.78C73.027 113.872 73.119 113.963 73.211 114.032C73.395 114.215 73.602 114.375 73.809 114.512H73.832L74.108 114.718C74.131 114.741 74.177 114.764 74.2 114.787C74.476 114.97 74.775 115.153 75.097 115.29C75.143 115.313 75.212 115.336 75.258 115.382C75.35 115.427 75.419 115.45 75.511 115.496C75.58 115.519 75.672 115.564 75.741 115.587C75.856 115.633 75.971 115.679 76.086 115.702C76.178 115.725 76.293 115.77 76.385 115.793L76.592 115.862L76.914 115.93C76.96 115.953 77.029 115.953 77.075 115.976C77.236 115.999 77.397 116.045 77.558 116.068C77.604 116.068 77.65 116.068 77.696 116.091C77.834 116.114 77.949 116.114 78.087 116.136C78.133 116.136 78.179 116.136 78.248 116.159C78.432 116.159 78.593 116.182 78.777 116.182C78.961 116.182 79.122 116.182 79.306 116.159C79.352 116.159 79.398 116.159 79.467 116.136C79.605 116.136 79.743 116.114 79.858 116.091C79.904 116.091 79.95 116.091 79.996 116.068C80.157 116.045 80.318 116.022 80.479 115.976C80.525 115.953 80.594 115.953 80.64 115.93L80.962 115.862L81.169 115.793C81.261 115.77 81.376 115.725 81.468 115.702C81.583 115.656 81.698 115.61 81.813 115.587C81.882 115.564 81.974 115.519 82.043 115.496C82.135 115.45 82.204 115.427 82.296 115.382C82.342 115.359 82.411 115.336 82.457 115.29C82.756 115.13 83.055 114.97 83.354 114.787C83.377 114.764 83.423 114.741 83.446 114.718L83.722 114.512H83.745C83.952 114.352 84.159 114.192 84.343 114.032C84.435 113.94 84.527 113.872 84.619 113.78L84.665 113.735C84.918 113.483 85.171 113.185 85.401 112.911C85.424 112.888 85.447 112.865 85.447 112.842L85.654 112.568C85.654 112.545 85.677 112.545 85.677 112.522L86.022 111.973C86.045 111.927 86.068 111.905 86.091 111.859C86.712 110.692 87.08 109.365 87.08 107.97C87.08 106.575 86.712 105.225 86.091 104.081C86.068 104.035 86.045 103.99 86.022 103.967Z"/>
</mask>
<path d="M195.64 0H26.36C22.289 0 19 3.27112 19 7.32V175.68C19 179.729 22.289 183 26.36 183H195.64C199.711 183 203 179.729 203 175.68V7.32C203 3.27112 199.711 0 195.64 0ZM86.16 130.616V148.23C86.16 149.236 85.332 150.06 84.32 150.06H73.28C72.268 150.06 71.44 149.236 71.44 148.23V130.616C61.849 127.505 54.88 118.538 54.88 107.97C54.88 97.4017 61.849 88.4119 71.44 85.3238V34.77C71.44 33.7635 72.268 32.94 73.28 32.94H84.32C85.332 32.94 86.16 33.7635 86.16 34.77V85.3238C95.751 88.4348 102.72 97.4017 102.72 107.97C102.72 118.538 95.751 127.528 86.16 130.616ZM150.468 97.6991C150.514 97.6991 150.537 97.6763 150.56 97.6763V148.23C150.56 149.236 149.732 150.06 148.72 150.06H137.68C136.668 150.06 135.84 149.236 135.84 148.23V97.6763C135.886 97.6763 135.909 97.6991 135.932 97.6991C126.272 94.6339 119.28 85.644 119.28 75.03C119.28 64.416 126.272 55.4261 135.932 52.3609C135.886 52.3609 135.863 52.3838 135.84 52.3838V34.77C135.84 33.7635 136.668 32.94 137.68 32.94H148.72C149.732 32.94 150.56 33.7635 150.56 34.77V52.3838C150.514 52.3838 150.491 52.3609 150.468 52.3609C160.128 55.4261 167.12 64.416 167.12 75.03C167.12 85.644 160.128 94.6339 150.468 97.6991ZM134.92 75.03C134.92 77.2141 135.792 79.3087 137.345 80.853C138.898 82.3974 141.004 83.265 143.2 83.265C145.396 83.265 147.502 82.3974 149.055 80.853C150.608 79.3087 151.48 77.2141 151.48 75.03C151.48 72.8459 150.608 70.7513 149.055 69.207C147.502 67.6626 145.396 66.795 143.2 66.795C141.004 66.795 138.898 67.6626 137.345 69.207C135.792 70.7513 134.92 72.8459 134.92 75.03ZM86.022 103.967L85.677 103.418C85.677 103.395 85.654 103.395 85.654 103.372L85.447 103.098C85.424 103.075 85.401 103.052 85.401 103.029C85.171 102.732 84.941 102.457 84.665 102.205L84.619 102.16C84.527 102.068 84.435 101.977 84.343 101.908C84.159 101.725 83.952 101.565 83.745 101.428H83.722L83.446 101.222C83.423 101.199 83.377 101.176 83.354 101.153C83.078 100.97 82.779 100.787 82.457 100.65C82.411 100.627 82.342 100.604 82.296 100.558C82.204 100.513 82.135 100.49 82.043 100.444C81.974 100.421 81.882 100.376 81.813 100.353C81.698 100.307 81.583 100.261 81.468 100.238C81.376 100.215 81.261 100.17 81.169 100.147L80.962 100.078L80.64 100.01C80.594 99.9866 80.525 99.9866 80.479 99.9638C80.318 99.9409 80.157 99.8951 79.996 99.8722C79.95 99.8722 79.904 99.8723 79.858 99.8494C79.72 99.8265 79.605 99.8265 79.467 99.8036C79.421 99.8036 79.375 99.8036 79.306 99.7808C79.122 99.7808 78.961 99.7579 78.777 99.7579C78.593 99.7579 78.432 99.7579 78.248 99.7808C78.202 99.7808 78.156 99.7807 78.087 99.8036C77.949 99.8036 77.811 99.8265 77.696 99.8494C77.65 99.8494 77.604 99.8494 77.558 99.8722C77.397 99.8951 77.236 99.918 77.075 99.9638C77.029 99.9866 76.96 99.9866 76.914 100.01L76.592 100.078L76.385 100.147C76.293 100.17 76.178 100.215 76.086 100.238C75.971 100.284 75.856 100.33 75.741 100.353C75.672 100.376 75.58 100.421 75.511 100.444C75.419 100.49 75.35 100.513 75.258 100.558C75.212 100.581 75.143 100.604 75.097 100.65C74.798 100.81 74.499 100.97 74.2 101.153C74.177 101.176 74.131 101.199 74.108 101.222L73.832 101.428H73.809C73.602 101.588 73.395 101.748 73.211 101.908C73.119 102 73.027 102.068 72.935 102.16L72.889 102.205C72.6316 102.469 72.3861 102.744 72.153 103.029C72.13 103.052 72.107 103.075 72.107 103.098L71.9 103.372C71.9 103.395 71.877 103.395 71.877 103.418L71.532 103.967C71.509 104.013 71.486 104.035 71.463 104.081C70.842 105.248 70.474 106.575 70.474 107.97C70.474 109.365 70.842 110.715 71.463 111.859C71.486 111.905 71.509 111.927 71.532 111.973L71.877 112.522C71.877 112.545 71.9 112.545 71.9 112.568L72.107 112.842C72.13 112.865 72.153 112.888 72.153 112.911C72.383 113.208 72.613 113.483 72.889 113.735L72.935 113.78C73.027 113.872 73.119 113.963 73.211 114.032C73.395 114.215 73.602 114.375 73.809 114.512H73.832L74.108 114.718C74.131 114.741 74.177 114.764 74.2 114.787C74.476 114.97 74.775 115.153 75.097 115.29C75.143 115.313 75.212 115.336 75.258 115.382C75.35 115.427 75.419 115.45 75.511 115.496C75.58 115.519 75.672 115.564 75.741 115.587C75.856 115.633 75.971 115.679 76.086 115.702C76.178 115.725 76.293 115.77 76.385 115.793L76.592 115.862L76.914 115.93C76.96 115.953 77.029 115.953 77.075 115.976C77.236 115.999 77.397 116.045 77.558 116.068C77.604 116.068 77.65 116.068 77.696 116.091C77.834 116.114 77.949 116.114 78.087 116.136C78.133 116.136 78.179 116.136 78.248 116.159C78.432 116.159 78.593 116.182 78.777 116.182C78.961 116.182 79.122 116.182 79.306 116.159C79.352 116.159 79.398 116.159 79.467 116.136C79.605 116.136 79.743 116.114 79.858 116.091C79.904 116.091 79.95 116.091 79.996 116.068C80.157 116.045 80.318 116.022 80.479 115.976C80.525 115.953 80.594 115.953 80.64 115.93L80.962 115.862L81.169 115.793C81.261 115.77 81.376 115.725 81.468 115.702C81.583 115.656 81.698 115.61 81.813 115.587C81.882 115.564 81.974 115.519 82.043 115.496C82.135 115.45 82.204 115.427 82.296 115.382C82.342 115.359 82.411 115.336 82.457 115.29C82.756 115.13 83.055 114.97 83.354 114.787C83.377 114.764 83.423 114.741 83.446 114.718L83.722 114.512H83.745C83.952 114.352 84.159 114.192 84.343 114.032C84.435 113.94 84.527 113.872 84.619 113.78L84.665 113.735C84.918 113.483 85.171 113.185 85.401 112.911C85.424 112.888 85.447 112.865 85.447 112.842L85.654 112.568C85.654 112.545 85.677 112.545 85.677 112.522L86.022 111.973C86.045 111.927 86.068 111.905 86.091 111.859C86.712 110.692 87.08 109.365 87.08 107.97C87.08 106.575 86.712 105.225 86.091 104.081C86.068 104.035 86.045 103.99 86.022 103.967Z" stroke="#201F2E" stroke-width="12" mask="url(#path-2-inside-1_521_236)"/>
</svg>
