<svg width="196" height="251" viewBox="0 0 196 251" fill="none" xmlns="http://www.w3.org/2000/svg">
<path d="M110.906 24H71.0938C64.7984 24.0002 58.724 26.3155 54.0317 30.5032C49.3395 34.691 46.3587 40.4574 45.6592 46.7H25.5938C18.8059 46.7 12.296 49.3906 7.49624 54.1798C2.69648 58.969 0 65.4645 0 72.2375V225.463C0 232.235 2.69648 238.731 7.49624 243.52C12.296 248.309 18.8059 251 25.5938 251H156.406C159.767 251 163.095 250.339 166.201 249.056C169.306 247.773 172.127 245.892 174.504 243.52C176.88 241.149 178.766 238.334 180.052 235.235C181.338 232.137 182 228.816 182 225.463V72.2375C182 68.8839 181.338 65.5631 180.052 62.4647C178.766 59.3664 176.88 56.5511 174.504 54.1798C172.127 51.8084 169.306 49.9273 166.201 48.6439C163.095 47.3605 159.767 46.7 156.406 46.7H136.341C135.641 40.4574 132.66 34.691 127.968 30.5032C123.276 26.3155 117.202 24.0002 110.906 24ZM71.0938 41.025H110.906C113.169 41.025 115.339 41.9219 116.939 43.5183C118.539 45.1147 119.438 47.2798 119.438 49.5375C119.438 51.7952 118.539 53.9603 116.939 55.5567C115.339 57.1532 113.169 58.05 110.906 58.05H71.0938C68.8311 58.05 66.6612 57.1532 65.0612 55.5567C63.4613 53.9603 62.5625 51.7952 62.5625 49.5375C62.5625 47.2798 63.4613 45.1147 65.0612 43.5183C66.6612 41.9219 68.8311 41.025 71.0938 41.025ZM96.6875 117.638C96.6875 115.38 97.5863 113.215 99.1862 111.618C100.786 110.022 102.956 109.125 105.219 109.125H145.031C147.294 109.125 149.464 110.022 151.064 111.618C152.664 113.215 153.562 115.38 153.562 117.638C153.562 119.895 152.664 122.06 151.064 123.657C149.464 125.253 147.294 126.15 145.031 126.15H105.219C102.956 126.15 100.786 125.253 99.1862 123.657C97.5863 122.06 96.6875 119.895 96.6875 117.638ZM105.219 171.55H145.031C147.294 171.55 149.464 172.447 151.064 174.043C152.664 175.64 153.562 177.805 153.562 180.062C153.562 182.32 152.664 184.485 151.064 186.082C149.464 187.678 147.294 188.575 145.031 188.575H105.219C102.956 188.575 100.786 187.678 99.1862 186.082C97.5863 184.485 96.6875 182.32 96.6875 180.062C96.6875 177.805 97.5863 175.64 99.1862 174.043C100.786 172.447 102.956 171.55 105.219 171.55ZM77.1225 112.303L54.3725 135.003C52.7729 136.597 50.6045 137.493 48.3438 137.493C46.083 137.493 43.9146 136.597 42.315 135.003L30.94 123.653C30.1018 122.874 29.4295 121.934 28.9632 120.89C28.497 119.846 28.2462 118.718 28.226 117.575C28.2058 116.432 28.4165 115.297 28.8456 114.237C29.2747 113.177 29.9133 112.214 30.7234 111.406C31.5336 110.598 32.4985 109.96 33.5608 109.532C34.6231 109.104 35.7609 108.894 36.9064 108.914C38.0519 108.934 39.1816 109.184 40.2281 109.65C41.2746 110.115 42.2165 110.786 42.9975 111.622L48.3438 116.956L65.065 100.272C65.846 99.4357 66.7879 98.7648 67.8344 98.2996C68.8809 97.8343 70.0106 97.5842 71.1561 97.564C72.3016 97.5438 73.4394 97.7541 74.5017 98.1822C75.564 98.6103 76.5289 99.2476 77.3391 100.056C78.1492 100.864 78.7878 101.827 79.2169 102.887C79.646 103.947 79.8567 105.082 79.8365 106.225C79.8163 107.368 79.5655 108.496 79.0993 109.54C78.633 110.584 77.9607 111.524 77.1225 112.303ZM77.1225 162.697C78.7201 164.293 79.6175 166.457 79.6175 168.713C79.6175 170.968 78.7201 173.132 77.1225 174.728L54.3725 197.428C52.7729 199.022 50.6045 199.918 48.3438 199.918C46.083 199.918 43.9146 199.022 42.315 197.428L30.94 186.078C30.1018 185.299 29.4295 184.359 28.9632 183.315C28.497 182.271 28.2462 181.143 28.226 180C28.2058 178.857 28.4165 177.722 28.8456 176.662C29.2747 175.602 29.9133 174.639 30.7234 173.831C31.5336 173.023 32.4985 172.385 33.5608 171.957C34.6231 171.529 35.7609 171.319 36.9064 171.339C38.0519 171.359 39.1816 171.609 40.2281 172.075C41.2746 172.54 42.2165 173.211 42.9975 174.047L48.3438 179.382L65.065 162.697C66.6646 161.103 68.833 160.207 71.0938 160.207C73.3545 160.207 75.5229 161.103 77.1225 162.697Z" fill="#6A79CA"/>
<path d="M59.6592 25.8H62.3432L62.6408 23.1326C63.2586 17.594 65.8915 12.4793 70.0342 8.76573C74.1767 5.05231 79.5383 3.00017 85.0938 3H124.906C130.462 3.00017 135.823 5.05231 139.966 8.76573C144.108 12.4793 146.741 17.594 147.359 23.1326L147.657 25.8H150.341H170.406C173.372 25.8 176.31 26.3855 179.05 27.5232C181.791 28.661 184.282 30.3288 186.38 32.4317C188.478 34.5347 190.143 37.0316 191.279 39.7801C192.415 42.5286 193 45.4746 193 48.45V202.35C193 205.325 192.415 208.271 191.279 211.02C190.143 213.768 188.478 216.265 186.38 218.368C184.282 220.471 181.791 222.139 179.05 223.277C176.31 224.415 173.372 225 170.406 225H39.5938C33.6036 225 27.8575 222.615 23.6199 218.368C19.382 214.121 17 208.359 17 202.35V48.45C17 42.4407 19.382 36.6789 23.6199 32.4317C27.8575 28.1847 33.6036 25.8 39.5938 25.8H59.6592ZM76.9376 17.4852L78.6369 19.1808L76.9376 17.4852C74.7758 19.6518 73.5625 22.5889 73.5625 25.65C73.5625 28.7111 74.7758 31.6482 76.9376 33.8148C79.0996 35.9815 82.0333 37.2 85.0938 37.2H124.906C127.967 37.2 130.9 35.9815 133.062 33.8148C135.224 31.6482 136.438 28.7111 136.438 25.65C136.438 22.5889 135.224 19.6518 133.062 17.4852C130.9 15.3185 127.967 14.1 124.906 14.1H85.0938C82.0333 14.1 79.0996 15.3185 76.9376 17.4852ZM167.187 102.215L165.064 100.096L167.187 102.215C169.349 100.048 170.562 97.1111 170.562 94.05C170.562 90.9889 169.349 88.0518 167.187 85.8853C165.025 83.7185 162.092 82.5 159.031 82.5H119.219C116.158 82.5 113.225 83.7185 111.063 85.8852C108.901 88.0518 107.688 90.9889 107.688 94.05C107.688 97.1111 108.901 100.048 111.063 102.215C113.225 104.382 116.158 105.6 119.219 105.6H159.031C162.092 105.6 165.025 104.382 167.187 102.215ZM70.4948 113.612L70.4961 113.611L93.2116 90.8456C94.325 89.7956 95.2186 88.5343 95.8405 87.1353C96.4702 85.7189 96.8087 84.1902 96.836 82.6404C96.8633 81.0905 96.5788 79.5508 95.9994 78.1131C95.42 76.6755 94.5574 75.369 93.4627 74.272C92.368 73.1749 91.0637 72.3096 89.6274 71.7282C88.191 71.1468 86.6523 70.8611 85.103 70.8885C83.5538 70.9159 82.0261 71.2558 80.6112 71.8876C79.2135 72.5117 77.9544 73.408 76.9067 74.5237L62.3438 89.1187L59.1557 85.9236C58.108 84.8079 56.8489 83.9117 55.4513 83.2876C54.0364 82.6558 52.5087 82.3159 50.9595 82.2885C49.4102 82.2611 47.8715 82.5468 46.4352 83.1282C44.9988 83.7096 43.6945 84.5749 42.5998 85.672C41.5051 86.769 40.6425 88.0755 40.0631 89.5131C39.4837 90.9508 39.1992 92.4905 39.2265 94.0404C39.2538 95.5902 39.5923 97.1189 40.222 98.5353C40.844 99.9343 41.7376 101.196 42.8509 102.246L54.1913 113.611L54.1927 113.612C56.3543 115.776 59.2858 116.992 62.3438 116.992C65.4017 116.992 68.3332 115.776 70.4948 113.612ZM93.2461 153.511L93.2475 153.51C95.4062 151.344 96.6175 148.409 96.6175 145.35C96.6175 142.291 95.4062 139.356 93.2475 137.19L93.2448 137.188C91.0832 135.024 88.1517 133.808 85.0938 133.808C82.0358 133.808 79.1043 135.024 76.9427 137.188L76.9414 137.189L62.3438 151.819L59.1556 148.624C58.108 147.508 56.8489 146.612 55.4514 145.988C54.0364 145.356 52.5087 145.016 50.9595 144.989C49.4102 144.961 47.8715 145.247 46.4351 145.828C44.9988 146.41 43.6945 147.275 42.5998 148.372C41.5051 149.469 40.6425 150.775 40.0631 152.213C39.4837 153.651 39.1992 155.19 39.2265 156.74C39.2538 158.29 39.5923 159.819 40.222 161.235C40.844 162.634 41.7376 163.896 42.851 164.946L54.1914 176.311L54.1927 176.312C56.3543 178.476 59.2858 179.692 62.3438 179.692C65.4017 179.692 68.3332 178.476 70.4948 176.312L70.4961 176.311L93.2461 153.511ZM159.031 145.2H119.219C116.158 145.2 113.225 146.418 111.063 148.585C108.901 150.752 107.688 153.689 107.688 156.75C107.688 159.811 108.901 162.748 111.063 164.915C113.225 167.082 116.158 168.3 119.219 168.3H159.031C162.092 168.3 165.025 167.082 167.187 164.915C169.349 162.748 170.562 159.811 170.562 156.75C170.562 153.689 169.349 150.752 167.187 148.585C165.025 146.418 162.092 145.2 159.031 145.2Z" stroke="#201F2E" stroke-width="6"/>
</svg>
