<svg width="201" height="250" viewBox="0 0 201 250" fill="none" xmlns="http://www.w3.org/2000/svg">
<path d="M0 232.975C0 237.49 1.79765 241.821 4.99749 245.013C8.19733 248.206 12.5372 250 17.0625 250H34.125V23H17.0625C12.5372 23 8.19733 24.7937 4.99749 27.9865C1.79765 31.1793 0 35.5097 0 40.025V232.975ZM45.5 23V250H159.25C165.284 250 171.07 247.608 175.337 243.351C179.603 239.094 182 233.32 182 227.3V45.7C182 39.6796 179.603 33.9058 175.337 29.6487C171.07 25.3916 165.284 23 159.25 23H45.5ZM125.125 113.8H68.25V102.45H125.125V113.8ZM159.25 91.1H68.25V79.75H159.25V91.1Z" fill="#6A79CA"/>
<path d="M16 212.975C16 217.49 17.7977 221.821 20.9975 225.013C24.1973 228.206 28.5372 230 33.0625 230H50.125V3H33.0625C28.5372 3 24.1973 4.7937 20.9975 7.98651C17.7977 11.1793 16 15.5097 16 20.025V212.975ZM61.5 3V230H175.25C181.284 230 187.07 227.608 191.337 223.351C195.603 219.094 198 213.32 198 207.3V25.7C198 19.6796 195.603 13.9058 191.337 9.64868C187.07 5.3916 181.284 3 175.25 3L61.5 3ZM141.125 93.8H84.25V82.45H141.125V93.8ZM175.25 71.1H84.25V59.75H175.25V71.1Z" stroke="#201F2E" stroke-width="6"/>
</svg>
