<svg width="206" height="268" viewBox="0 0 206 268" fill="none" xmlns="http://www.w3.org/2000/svg">
<path d="M109.667 83.6719V17H11.75C5.23854 17 0 22.2455 0 28.7656V256.234C0 262.754 5.23854 268 11.75 268H176.25C182.761 268 188 262.754 188 256.234V95.4375H121.417C114.954 95.4375 109.667 90.143 109.667 83.6719ZM31.3333 52.2969C31.3333 50.13 33.086 48.375 35.25 48.375H74.4167C76.5806 48.375 78.3333 50.13 78.3333 52.2969V60.1406C78.3333 62.3075 76.5806 64.0625 74.4167 64.0625H35.25C33.086 64.0625 31.3333 62.3075 31.3333 60.1406V52.2969ZM31.3333 83.6719C31.3333 81.505 33.086 79.75 35.25 79.75H74.4167C76.5806 79.75 78.3333 81.505 78.3333 83.6719V91.5156C78.3333 93.6825 76.5806 95.4375 74.4167 95.4375H35.25C33.086 95.4375 31.3333 93.6825 31.3333 91.5156V83.6719ZM125.73 205.25H148.833C153.161 205.25 156.667 208.76 156.667 213.094C156.667 217.427 153.161 220.938 148.833 220.938H125.73C117.676 220.938 110.421 216.457 106.812 209.241C105.368 206.338 102.852 206.044 101.833 206.044C100.815 206.044 98.2985 206.333 96.9277 209.079L93.1726 216.599C92.5224 217.902 91.5224 218.998 90.2849 219.763C89.0474 220.529 87.6213 220.934 86.1667 220.933C85.9806 220.933 85.7995 220.923 85.6085 220.908C82.4507 220.687 79.7335 218.579 78.7397 215.569L70.5 190.832L65.3055 206.461C62.4219 215.118 54.3486 220.938 45.2326 220.938H39.1667C34.8387 220.938 31.3333 217.427 31.3333 213.094C31.3333 208.76 34.8387 205.25 39.1667 205.25H45.2326C47.5973 205.25 49.6927 203.74 50.4418 201.495L59.3473 174.708C60.9629 169.899 65.4377 166.664 70.5 166.664C75.5623 166.664 80.0371 169.894 81.6478 174.708L88.4432 195.122C98.1223 187.185 114.905 190.366 120.756 202.063C121.745 204.054 123.674 205.25 125.73 205.25ZM184.573 68.4746L136.643 20.4316C134.44 18.2256 131.453 17 128.32 17H125.333V79.75H188V76.7596C188 73.6711 186.776 70.6807 184.573 68.4746Z" fill="#6A79CA"/>
<path d="M124.667 69.6719V3H26.75C20.2385 3 15 8.24551 15 14.7656V242.234C15 248.754 20.2385 254 26.75 254H191.25C197.761 254 203 248.754 203 242.234V81.4375H136.417C129.954 81.4375 124.667 76.143 124.667 69.6719ZM46.3333 38.2969C46.3333 36.13 48.086 34.375 50.25 34.375H89.4167C91.5806 34.375 93.3333 36.13 93.3333 38.2969V46.1406C93.3333 48.3075 91.5806 50.0625 89.4167 50.0625H50.25C48.086 50.0625 46.3333 48.3075 46.3333 46.1406V38.2969ZM46.3333 69.6719C46.3333 67.505 48.086 65.75 50.25 65.75H89.4167C91.5806 65.75 93.3333 67.505 93.3333 69.6719V77.5156C93.3333 79.6825 91.5806 81.4375 89.4167 81.4375H50.25C48.086 81.4375 46.3333 79.6825 46.3333 77.5156V69.6719ZM140.73 191.25H163.833C168.161 191.25 171.667 194.76 171.667 199.094C171.667 203.427 168.161 206.938 163.833 206.938H140.73C132.676 206.938 125.421 202.457 121.812 195.241C120.368 192.338 117.852 192.044 116.833 192.044C115.815 192.044 113.299 192.333 111.928 195.079L108.173 202.599C107.522 203.902 106.522 204.998 105.285 205.763C104.047 206.529 102.621 206.934 101.167 206.933C100.981 206.933 100.799 206.923 100.609 206.908C97.4507 206.687 94.7335 204.579 93.7397 201.569L85.5 176.832L80.3055 192.461C77.4219 201.118 69.3486 206.938 60.2326 206.938H54.1667C49.8388 206.938 46.3333 203.427 46.3333 199.094C46.3333 194.76 49.8388 191.25 54.1667 191.25H60.2326C62.5973 191.25 64.6927 189.74 65.4418 187.495L74.3473 160.708C75.9629 155.899 80.4377 152.664 85.5 152.664C90.5623 152.664 95.0371 155.894 96.6478 160.708L103.443 181.122C113.122 173.185 129.905 176.366 135.756 188.063C136.745 190.054 138.674 191.25 140.73 191.25ZM199.573 54.4746L151.643 6.43164C149.44 4.22559 146.453 3 143.32 3H140.333V65.75H203V62.7596C203 59.6711 201.776 56.6807 199.573 54.4746Z" stroke="#201F2E" stroke-width="6"/>
</svg>
