<svg width="272" height="272" viewBox="0 0 272 272" fill="none" xmlns="http://www.w3.org/2000/svg">
<path d="M126.944 8.3026C132.068 3.60521 139.932 3.60521 145.056 8.3026V8.3026C149.211 12.1114 155.304 12.9137 160.303 10.3099V10.3099C166.468 7.09868 174.065 9.13424 177.798 14.9977V14.9977C180.825 19.752 186.504 22.1041 192.006 20.8828V20.8828C198.792 19.3766 205.603 23.3089 207.691 29.9388V29.9388C209.385 35.3146 214.261 39.0563 219.892 39.3007V39.3007C226.837 39.6021 232.398 45.1634 232.699 52.1079V52.1079C232.944 57.7388 236.685 62.615 242.061 64.3085V64.3085C248.691 66.3971 252.623 73.2082 251.117 79.9941V79.9941C249.896 85.4964 252.248 91.1748 257.002 94.202V94.202C262.866 97.9353 264.901 105.532 261.69 111.697V111.697C259.086 116.696 259.889 122.789 263.697 126.944V126.944C268.395 132.068 268.395 139.932 263.697 145.056V145.056C259.889 149.211 259.086 155.304 261.69 160.303V160.303C264.901 166.468 262.866 174.065 257.002 177.798V177.798C252.248 180.825 249.896 186.504 251.117 192.006V192.006C252.623 198.792 248.691 205.603 242.061 207.691V207.691C236.685 209.385 232.944 214.261 232.699 219.892V219.892C232.398 226.837 226.837 232.398 219.892 232.699V232.699C214.261 232.944 209.385 236.685 207.691 242.061V242.061C205.603 248.691 198.792 252.623 192.006 251.117V251.117C186.504 249.896 180.825 252.248 177.798 257.002V257.002C174.065 262.866 166.468 264.901 160.303 261.69V261.69C155.304 259.086 149.211 259.889 145.056 263.697V263.697C139.932 268.395 132.068 268.395 126.944 263.697V263.697C122.789 259.889 116.696 259.086 111.697 261.69V261.69C105.532 264.901 97.9353 262.866 94.202 257.002V257.002C91.1748 252.248 85.4964 249.896 79.9941 251.117V251.117C73.2082 252.623 66.3971 248.691 64.3085 242.061V242.061C62.615 236.685 57.7388 232.944 52.1079 232.699V232.699C45.1634 232.398 39.6021 226.837 39.3007 219.892V219.892C39.0563 214.261 35.3146 209.385 29.9388 207.691V207.691C23.3089 205.603 19.3766 198.792 20.8828 192.006V192.006C22.1041 186.504 19.752 180.825 14.9977 177.798V177.798C9.13424 174.065 7.09868 166.468 10.3099 160.303V160.303C12.9137 155.304 12.1114 149.211 8.3026 145.056V145.056C3.60521 139.932 3.60521 132.068 8.3026 126.944V126.944C12.1114 122.789 12.9137 116.696 10.3099 111.697V111.697C7.09868 105.532 9.13424 97.9353 14.9977 94.202V94.202C19.752 91.1748 22.1041 85.4964 20.8828 79.9941V79.9941C19.3766 73.2082 23.3089 66.3971 29.9388 64.3085V64.3085C35.3146 62.615 39.0563 57.7388 39.3007 52.1079V52.1079C39.6021 45.1634 45.1634 39.6021 52.1079 39.3007V39.3007C57.7388 39.0563 62.615 35.3146 64.3085 29.9388V29.9388C66.3971 23.3089 73.2082 19.3766 79.9941 20.8828V20.8828C85.4964 22.1041 91.1748 19.752 94.202 14.9977V14.9977C97.9353 9.13424 105.532 7.09868 111.697 10.3099V10.3099C116.696 12.9137 122.789 12.1114 126.944 8.3026V8.3026Z" fill="white"/>
</svg>
