<svg width="605" height="605" viewBox="0 0 605 605" fill="none" xmlns="http://www.w3.org/2000/svg">
<path d="M196.889 199.095C195.956 191.019 204.538 185.265 211.656 189.193L265.019 218.649C269.296 221.01 274.652 219.935 277.687 216.108L315.559 168.348C320.61 161.978 330.748 163.977 333.002 171.788L349.908 230.35C351.262 235.043 355.81 238.071 360.662 237.51L421.214 230.518C429.29 229.586 435.044 238.168 431.116 245.285L401.66 298.649C399.299 302.925 400.373 308.281 404.201 311.317L451.961 349.189C458.331 354.24 456.332 364.377 448.521 366.632L389.959 383.537C385.266 384.892 382.238 389.439 382.799 394.292L389.791 454.843C390.723 462.919 382.141 468.674 375.024 464.745L321.66 435.289C317.384 432.928 312.027 434.003 308.992 437.83L271.12 485.591C266.069 491.961 255.932 489.961 253.677 482.151L236.772 423.588C235.417 418.895 230.87 415.868 226.017 416.428L165.466 423.42C157.39 424.352 151.635 415.771 155.564 408.653L185.02 355.29C187.381 351.013 186.306 345.657 182.479 342.622L134.718 304.75C128.348 299.699 130.348 289.561 138.158 287.306L196.72 270.401C201.414 269.046 204.441 264.499 203.881 259.646L196.889 199.095Z" fill="url(#paint0_linear_457_389)"/>
<path d="M241.231 153.93C242.378 145.882 252.139 142.493 258.026 148.098L302.172 190.128C305.71 193.496 311.164 193.815 315.071 190.883L363.82 154.292C370.321 149.412 379.62 153.917 379.82 162.044L381.316 222.979C381.436 227.863 385.067 231.945 389.903 232.634L450.247 241.231C458.295 242.377 461.685 252.138 456.079 258.026L414.05 302.172C410.681 305.71 410.362 311.164 413.294 315.07L449.885 363.819C454.765 370.321 450.26 379.62 442.133 379.819L381.198 381.316C376.314 381.436 372.232 385.066 371.543 389.902L362.946 450.247C361.8 458.295 352.039 461.684 346.151 456.079L302.005 414.049C298.467 410.681 293.014 410.362 289.107 413.294L240.358 449.885C233.856 454.765 224.558 450.26 224.358 442.133L222.861 381.198C222.741 376.314 219.111 372.232 214.275 371.543L153.931 362.946C145.882 361.8 142.493 352.039 148.099 346.151L190.128 302.005C193.496 298.467 193.816 293.013 190.883 289.107L154.292 240.358C149.412 233.856 153.917 224.557 162.045 224.358L222.98 222.861C227.863 222.741 231.945 219.111 232.634 214.275L241.231 153.93Z" fill="url(#paint1_linear_457_389)"/>
<defs>
<linearGradient id="paint0_linear_457_389" x1="180.214" y1="409.848" x2="372" y2="303.5" gradientUnits="userSpaceOnUse">
<stop stop-color="#A7ADD6"/>
<stop offset="1" stop-color="#FFE7B8"/>
</linearGradient>
<linearGradient id="paint1_linear_457_389" x1="257.171" y1="376.157" x2="398.359" y2="170.642" gradientUnits="userSpaceOnUse">
<stop stop-color="#6A79CA"/>
<stop offset="1" stop-color="#6A79CA" stop-opacity="0"/>
</linearGradient>
</defs>
</svg>
