<svg width="256" height="305" viewBox="0 0 256 305" fill="none" xmlns="http://www.w3.org/2000/svg">
<path d="M1.2688 303.936C20.6596 299.266 35.8699 296.111 54.7731 300.484C68.2129 303.593 79.7944 298.622 76.1197 283.363C73.2826 271.582 97.972 270.46 105.765 268.583C117.456 265.768 129.098 272.522 131.054 256.079C134.146 230.081 163.99 237.582 181.968 233.252C189.681 231.395 188.808 230.774 189.75 223.265C190.89 214.185 191.409 207.561 196.495 199.567C202.541 190.064 214.97 191.583 221.76 184.616C233.542 172.527 207.381 147.327 232.992 141.159C243.53 138.621 238.924 127.406 237.177 120.153C234.572 109.334 232.397 101.183 240.18 91.8845C247.804 82.7763 247.235 77.3085 244.605 66.3868C241.887 55.0988 256.161 54.911 255.203 47.3265C253.292 32.1995 234.496 12.6559 250.933 0.999983" stroke="#201F2E" stroke-linecap="round"/>
</svg>
