<svg width="774" height="774" viewBox="0 0 774 774" fill="none" xmlns="http://www.w3.org/2000/svg">
<path d="M376.863 9.07657C382.598 3.81868 391.402 3.81868 397.137 9.07658L419.578 29.6504C427.328 36.7559 438.696 38.2525 448.021 33.3951L475.023 19.3304C481.923 15.7361 490.426 18.0145 494.605 24.5776L510.956 50.2585C516.604 59.1278 527.197 63.5158 537.462 61.2374L567.183 54.6404C574.779 52.9544 582.403 57.356 584.74 64.777L593.888 93.8149C597.047 103.844 606.144 110.824 616.648 111.28L647.065 112.6C654.838 112.937 661.063 119.162 661.4 126.936L662.72 157.352C663.176 167.856 670.156 176.953 680.185 180.112L709.223 189.26C716.644 191.597 721.046 199.221 719.36 206.817L712.763 236.538C710.484 246.803 714.872 257.396 723.742 263.044L749.422 279.395C755.986 283.574 758.264 292.077 754.67 298.977L740.605 325.979C735.747 335.304 737.244 346.672 744.35 354.422L764.923 376.863C770.181 382.598 770.181 391.402 764.923 397.137L744.35 419.578C737.244 427.328 735.747 438.696 740.605 448.021L754.67 475.023C758.264 481.923 755.986 490.426 749.422 494.605L723.742 510.956C714.872 516.604 710.484 527.197 712.763 537.462L719.36 567.183C721.046 574.779 716.644 582.403 709.223 584.74L680.185 593.888C670.156 597.047 663.176 606.144 662.72 616.649L661.4 647.065C661.063 654.838 654.838 661.063 647.065 661.4L616.648 662.72C606.144 663.176 597.047 670.156 593.888 680.185L584.74 709.223C582.403 716.644 574.779 721.046 567.183 719.36L537.462 712.763C527.197 710.484 516.604 714.872 510.956 723.742L494.605 749.422C490.426 755.986 481.923 758.264 475.023 754.67L448.021 740.605C438.696 735.747 427.328 737.244 419.578 744.35L397.137 764.923C391.402 770.181 382.598 770.181 376.863 764.923L354.422 744.35C346.672 737.244 335.304 735.747 325.979 740.605L298.977 754.67C292.077 758.264 283.574 755.986 279.395 749.422L263.044 723.742C257.396 714.872 246.803 710.484 236.538 712.763L206.817 719.36C199.221 721.046 191.597 716.644 189.26 709.223L180.112 680.185C176.953 670.156 167.856 663.176 157.351 662.72L126.935 661.4C119.162 661.063 112.937 654.838 112.6 647.065L111.28 616.649C110.824 606.144 103.844 597.047 93.8149 593.888L64.777 584.74C57.356 582.403 52.9544 574.779 54.6404 567.183L61.2374 537.462C63.5158 527.197 59.1278 516.604 50.2585 510.956L24.5776 494.605C18.0145 490.426 15.7361 481.923 19.3304 475.023L33.3951 448.021C38.2526 438.696 36.7559 427.328 29.6504 419.578L9.07657 397.137C3.81868 391.402 3.81868 382.598 9.07658 376.863L29.6504 354.422C36.7559 346.672 38.2525 335.304 33.3951 325.979L19.3304 298.977C15.7361 292.077 18.0145 283.574 24.5776 279.395L50.2585 263.044C59.1279 257.396 63.5158 246.803 61.2374 236.538L54.6404 206.817C52.9544 199.221 57.356 191.597 64.777 189.26L93.8149 180.112C103.844 176.953 110.824 167.856 111.28 157.351L112.6 126.935C112.937 119.162 119.162 112.937 126.935 112.6L157.351 111.28C167.856 110.824 176.953 103.844 180.112 93.8149L189.26 64.777C191.597 57.356 199.221 52.9544 206.817 54.6404L236.538 61.2374C246.803 63.5158 257.396 59.1278 263.044 50.2585L279.395 24.5776C283.574 18.0145 292.077 15.7361 298.977 19.3304L325.979 33.3951C335.304 38.2526 346.672 36.7559 354.422 29.6504L376.863 9.07657Z" stroke="#6A79CA" stroke-width="10"/>
</svg>
