<svg width="280" height="267" viewBox="0 0 280 267" fill="none" xmlns="http://www.w3.org/2000/svg">
<path d="M243.548 74.3819L68.9613 17.9207C64.7627 16.5629 60.2736 18.858 58.9158 23.0566L2.45459 197.643C1.09676 201.841 3.39186 206.331 7.59047 207.688L182.177 264.15C186.375 265.507 190.864 263.212 192.222 259.014L248.683 84.4274C250.041 80.2288 247.746 75.7397 243.548 74.3819ZM86.8324 173.313L80.9254 191.578C80.5879 192.622 79.4578 193.2 78.414 192.862L67.028 189.18C65.9843 188.842 65.4065 187.712 65.744 186.668L71.651 168.403C62.8026 161.978 58.6223 150.355 62.1665 139.396C65.7107 128.437 75.913 121.439 86.8402 121.436L103.794 69.0124C104.131 67.9687 105.262 67.3909 106.305 67.7285L117.691 71.4107C118.735 71.7483 119.313 72.8784 118.975 73.9221L102.022 126.345C110.87 132.77 115.05 144.393 111.506 155.353C107.962 166.312 97.7597 173.31 86.8324 173.313ZM164.195 160.628C164.243 160.643 164.274 160.627 164.298 160.635L147.344 213.058C147.007 214.102 145.876 214.679 144.833 214.342L133.447 210.66C132.403 210.322 131.825 209.192 132.163 208.148L149.116 155.725C149.164 155.74 149.18 155.772 149.204 155.779C140.269 149.379 136.072 137.724 139.632 126.718C143.191 115.711 153.417 108.721 164.408 108.764C164.361 108.749 164.329 108.765 164.306 108.757L170.213 90.4922C170.55 89.4485 171.68 88.8707 172.724 89.2083L184.11 92.8905C185.154 93.2281 185.732 94.3582 185.394 95.4019L179.487 113.667C179.44 113.652 179.424 113.62 179.4 113.613C188.335 120.013 192.531 131.668 188.972 142.674C185.412 153.681 175.186 160.671 164.195 160.628ZM155.762 131.934C155.03 134.199 155.227 136.662 156.311 138.782C157.394 140.901 159.275 142.503 161.54 143.236C163.805 143.968 166.268 143.771 168.387 142.687C170.507 141.604 172.109 139.722 172.841 137.458C173.574 135.193 173.377 132.73 172.293 130.61C171.209 128.491 169.328 126.889 167.063 126.156C164.799 125.424 162.336 125.621 160.216 126.705C158.097 127.788 156.495 129.669 155.762 131.934ZM95.6272 145.632L95.4555 144.948C95.4632 144.924 95.4394 144.916 95.4471 144.893L95.3257 144.539C95.3096 144.507 95.2936 144.476 95.3012 144.452C95.1638 144.067 95.0186 143.706 94.8183 143.353L94.7862 143.29C94.722 143.165 94.6578 143.039 94.586 142.937C94.4576 142.686 94.2978 142.451 94.1303 142.24L94.1066 142.232L93.891 141.926C93.8749 141.895 93.8352 141.856 93.8191 141.824C93.5958 141.543 93.3488 141.253 93.0628 141.003C93.023 140.964 92.9595 140.918 92.9274 140.855C92.8479 140.777 92.7844 140.73 92.7048 140.652C92.6414 140.605 92.5618 140.527 92.4983 140.48C92.3951 140.394 92.2918 140.309 92.1809 140.247C92.0936 140.192 91.9904 140.106 91.9032 140.052L91.7127 139.912L91.4036 139.733C91.3638 139.694 91.2927 139.671 91.2529 139.632C91.0945 139.555 90.9438 139.453 90.7855 139.376C90.738 139.361 90.6906 139.345 90.6508 139.306C90.5162 139.237 90.3975 139.198 90.2629 139.128C90.2155 139.113 90.168 139.098 90.1045 139.051C89.9148 138.99 89.7564 138.912 89.5666 138.851C89.3768 138.789 89.2108 138.736 89.0134 138.698C88.9659 138.683 88.9185 138.667 88.8396 138.668C88.6973 138.622 88.5473 138.6 88.421 138.585C88.3736 138.57 88.3262 138.554 88.271 138.563C88.0973 138.533 87.9236 138.503 87.7422 138.497C87.6871 138.505 87.6159 138.482 87.5608 138.49L87.2057 138.454L86.9692 138.456C86.8667 138.449 86.7327 138.458 86.6302 138.451C86.4962 138.461 86.3623 138.47 86.236 138.455C86.1572 138.456 86.0469 138.472 85.9681 138.473C85.8579 138.49 85.779 138.491 85.6688 138.507C85.6137 138.516 85.5349 138.516 85.4721 138.549C85.11 138.615 84.7479 138.681 84.3782 138.771C84.3468 138.787 84.2917 138.796 84.2603 138.812L83.9066 138.933L83.8829 138.925C83.6157 139.022 83.3485 139.119 83.105 139.224C82.9795 139.288 82.8616 139.329 82.736 139.393L82.6732 139.425C82.3194 139.613 81.974 139.816 81.638 140.034C81.6066 140.05 81.5752 140.066 81.5675 140.089L81.262 140.305C81.2543 140.329 81.2306 140.321 81.2229 140.345L80.683 140.799C80.6439 140.839 80.6125 140.855 80.5735 140.895C79.5418 141.897 78.7173 143.15 78.2493 144.597C77.7814 146.044 77.7083 147.567 77.9652 148.96C77.9736 149.015 77.9896 149.046 77.998 149.101L78.1697 149.786C78.162 149.809 78.1858 149.817 78.1781 149.841L78.2995 150.195C78.3156 150.226 78.3316 150.257 78.3239 150.281C78.4614 150.666 78.6066 151.028 78.8068 151.381L78.8389 151.443C78.9031 151.569 78.9673 151.694 79.0392 151.796C79.1676 152.047 79.3274 152.282 79.4949 152.494L79.5186 152.502L79.7342 152.807C79.7502 152.838 79.79 152.878 79.8061 152.909C80.0293 153.191 80.2763 153.48 80.5624 153.73C80.6022 153.769 80.6657 153.816 80.6978 153.879C80.7773 153.957 80.8408 154.003 80.9203 154.082C80.9838 154.128 81.0634 154.206 81.1269 154.253C81.2301 154.339 81.3334 154.425 81.4443 154.487C81.5315 154.541 81.6348 154.627 81.722 154.681L81.9125 154.822L82.2216 155C82.2613 155.039 82.3325 155.062 82.3723 155.101C82.5306 155.179 82.6813 155.28 82.8397 155.357C82.8872 155.373 82.9346 155.388 82.9744 155.427C83.109 155.497 83.2276 155.535 83.3623 155.605C83.4097 155.62 83.4572 155.636 83.5207 155.682C83.7104 155.744 83.8688 155.821 84.0586 155.883C84.2483 155.944 84.4144 155.998 84.6118 156.035C84.6593 156.051 84.7067 156.066 84.7855 156.065C84.9279 156.111 85.0779 156.134 85.2041 156.148C85.2516 156.164 85.299 156.179 85.3541 156.17C85.5279 156.2 85.7016 156.23 85.883 156.237C85.9381 156.228 86.0092 156.251 86.0644 156.243L86.4195 156.279L86.656 156.277C86.7585 156.284 86.8925 156.275 86.995 156.282C87.129 156.273 87.2629 156.264 87.3892 156.278C87.468 156.278 87.5783 156.261 87.6571 156.26C87.7673 156.243 87.8462 156.243 87.9564 156.226C88.0115 156.218 88.0903 156.217 88.1531 156.185C88.5152 156.118 88.8773 156.052 89.247 155.962C89.2784 155.946 89.3335 155.938 89.3649 155.922L89.7186 155.8L89.7423 155.808C90.0095 155.711 90.2767 155.614 90.5202 155.509C90.6457 155.445 90.7636 155.405 90.8892 155.34L90.952 155.308C91.2973 155.132 91.658 154.908 91.9872 154.7C92.0186 154.684 92.05 154.668 92.0577 154.644L92.3632 154.428C92.3709 154.405 92.3946 154.412 92.4023 154.389L92.9422 153.934C92.9813 153.895 93.0127 153.879 93.0517 153.839C94.0834 152.836 94.9079 151.583 95.3759 150.136C95.8438 148.689 95.9169 147.167 95.66 145.774C95.6516 145.718 95.6432 145.663 95.6272 145.632Z" fill="#6A79CA"/>
<mask id="path-2-inside-1_590_230" fill="white">
<path d="M271.549 59.397L95.5379 2.47487C91.305 1.10596 86.7883 3.3921 85.4304 7.59071L28.9692 182.177C27.6114 186.376 29.9342 190.874 34.1671 192.243L210.179 249.165C214.411 250.534 218.928 248.247 220.286 244.049L276.747 69.4625C278.105 65.2639 275.782 60.7659 271.549 59.397ZM113.912 158.03L108.006 176.295C107.668 177.339 106.531 177.914 105.479 177.574L93.9996 173.862C92.9474 173.521 92.3626 172.389 92.7002 171.345L98.6071 153.08C89.678 146.629 85.4391 134.987 88.9832 124.028C92.5274 113.069 102.788 106.09 113.796 106.113L130.75 53.6893C131.088 52.6456 132.225 52.0701 133.277 52.4104L144.756 56.1227C145.808 56.463 146.393 57.5954 146.055 58.6391L129.102 111.062C138.031 117.514 142.27 129.156 138.726 140.115C135.181 151.074 124.92 158.053 113.912 158.03ZM191.817 145.52C191.865 145.535 191.896 145.519 191.92 145.527L174.966 197.95C174.629 198.994 173.492 199.569 172.44 199.229L160.961 195.517C159.908 195.177 159.324 194.044 159.661 193L176.615 140.577C176.663 140.593 176.679 140.624 176.703 140.632C167.687 134.205 163.431 122.531 166.991 111.525C170.55 100.518 180.835 93.5472 191.907 93.6168C191.86 93.6014 191.828 93.6174 191.804 93.6096L197.711 75.3445C198.049 74.3008 199.186 73.7252 200.238 74.0655L211.717 77.7778C212.769 78.1181 213.354 79.2505 213.016 80.2942L207.109 98.5594C207.062 98.5439 207.045 98.5124 207.021 98.5047C216.038 104.932 220.293 116.605 216.733 127.612C213.174 138.618 202.889 145.589 191.817 145.52ZM183.253 116.784C182.52 119.049 182.725 121.514 183.822 123.638C184.918 125.761 186.817 127.369 189.1 128.108C191.384 128.846 193.864 128.655 195.997 127.575C198.129 126.496 199.739 124.617 200.471 122.352C201.204 120.088 200.999 117.622 199.903 115.499C198.806 113.375 196.907 111.767 194.624 111.029C192.34 110.29 189.86 110.482 187.727 111.561C185.595 112.64 183.985 114.519 183.253 116.784ZM122.706 130.349L122.531 129.663C122.539 129.64 122.515 129.632 122.523 129.608L122.4 129.254C122.384 129.222 122.367 129.191 122.375 129.167C122.236 128.782 122.088 128.42 121.886 128.066L121.853 128.003C121.788 127.877 121.723 127.751 121.651 127.649C121.521 127.397 121.359 127.162 121.19 126.95L121.166 126.942L120.948 126.636C120.932 126.604 120.892 126.565 120.876 126.534C120.65 126.251 120.4 125.961 120.112 125.71C120.072 125.671 120.007 125.624 119.975 125.561C119.895 125.483 119.831 125.436 119.75 125.358C119.686 125.311 119.606 125.232 119.542 125.185C119.438 125.099 119.333 125.013 119.221 124.951C119.133 124.896 119.029 124.81 118.941 124.755L118.749 124.615L118.437 124.435C118.397 124.396 118.325 124.373 118.285 124.334C118.125 124.256 117.973 124.154 117.814 124.076C117.766 124.061 117.718 124.045 117.678 124.006C117.542 123.936 117.422 123.897 117.287 123.827C117.239 123.812 117.191 123.796 117.127 123.749C116.936 123.687 116.776 123.61 116.585 123.548C116.393 123.486 116.226 123.432 116.027 123.394C115.979 123.378 115.931 123.363 115.852 123.363C115.708 123.317 115.557 123.294 115.43 123.279C115.382 123.264 115.334 123.248 115.279 123.256C115.104 123.226 114.929 123.196 114.746 123.189C114.69 123.197 114.619 123.174 114.563 123.182L114.205 123.145L113.967 123.147C113.864 123.139 113.729 123.148 113.625 123.141C113.491 123.15 113.356 123.159 113.228 123.144C113.149 123.144 113.038 123.161 112.959 123.161C112.848 123.178 112.768 123.178 112.657 123.195C112.602 123.203 112.522 123.203 112.459 123.235C112.094 123.301 111.73 123.366 111.358 123.456C111.326 123.472 111.27 123.48 111.239 123.496L110.883 123.617L110.859 123.609C110.59 123.705 110.321 123.802 110.076 123.906C109.95 123.97 109.831 124.01 109.705 124.074L109.642 124.106C109.286 124.293 108.938 124.495 108.6 124.712C108.569 124.728 108.537 124.744 108.529 124.768L108.222 124.983C108.214 125.007 108.19 124.999 108.183 125.023L107.64 125.476C107.601 125.516 107.569 125.532 107.53 125.572C106.493 126.573 105.665 127.825 105.197 129.272C104.729 130.719 104.659 132.242 104.922 133.637C104.93 133.692 104.946 133.723 104.955 133.779L105.13 134.464C105.122 134.488 105.146 134.495 105.138 134.519L105.261 134.873C105.278 134.905 105.294 134.936 105.286 134.96C105.426 135.346 105.573 135.708 105.775 136.061L105.808 136.124C105.873 136.25 105.938 136.376 106.01 136.478C106.14 136.73 106.302 136.965 106.471 137.177L106.495 137.185L106.713 137.491C106.729 137.523 106.769 137.562 106.785 137.593C107.011 137.876 107.261 138.166 107.549 138.417C107.589 138.456 107.654 138.503 107.686 138.566C107.766 138.644 107.83 138.691 107.911 138.77C107.975 138.816 108.055 138.895 108.119 138.942C108.223 139.028 108.328 139.114 108.44 139.176C108.528 139.231 108.632 139.317 108.72 139.372L108.912 139.513L109.224 139.692C109.264 139.731 109.336 139.754 109.376 139.794C109.536 139.871 109.688 139.973 109.847 140.051C109.895 140.066 109.943 140.082 109.983 140.121C110.119 140.191 110.239 140.23 110.374 140.3C110.422 140.315 110.47 140.331 110.534 140.378C110.725 140.44 110.885 140.518 111.076 140.579C111.268 140.641 111.435 140.695 111.634 140.734C111.682 140.749 111.73 140.764 111.809 140.764C111.953 140.81 112.104 140.833 112.231 140.848C112.279 140.863 112.327 140.879 112.382 140.871C112.557 140.901 112.732 140.932 112.915 140.938C112.971 140.93 113.042 140.953 113.098 140.945L113.456 140.982L113.694 140.98C113.797 140.988 113.932 140.979 114.036 140.986C114.171 140.977 114.305 140.969 114.433 140.984C114.512 140.983 114.623 140.967 114.703 140.966C114.814 140.949 114.893 140.949 115.004 140.932C115.059 140.924 115.139 140.924 115.202 140.892C115.567 140.826 115.931 140.761 116.303 140.671C116.335 140.655 116.391 140.647 116.422 140.631L116.778 140.511L116.802 140.518C117.071 140.422 117.34 140.325 117.585 140.221C117.711 140.157 117.83 140.117 117.956 140.053L118.019 140.021C118.367 139.845 118.73 139.622 119.061 139.415C119.092 139.399 119.124 139.383 119.132 139.359L119.439 139.144C119.447 139.12 119.471 139.128 119.478 139.104L120.021 138.651C120.06 138.611 120.092 138.595 120.131 138.556C121.168 137.555 121.996 136.303 122.464 134.856C122.932 133.409 123.002 131.885 122.739 130.49C122.731 130.435 122.722 130.38 122.706 130.349Z"/>
</mask>
<path d="M271.549 59.397L95.5379 2.47487C91.305 1.10596 86.7883 3.3921 85.4304 7.59071L28.9692 182.177C27.6114 186.376 29.9342 190.874 34.1671 192.243L210.179 249.165C214.411 250.534 218.928 248.247 220.286 244.049L276.747 69.4625C278.105 65.2639 275.782 60.7659 271.549 59.397ZM113.912 158.03L108.006 176.295C107.668 177.339 106.531 177.914 105.479 177.574L93.9996 173.862C92.9474 173.521 92.3626 172.389 92.7002 171.345L98.6071 153.08C89.678 146.629 85.4391 134.987 88.9832 124.028C92.5274 113.069 102.788 106.09 113.796 106.113L130.75 53.6893C131.088 52.6456 132.225 52.0701 133.277 52.4104L144.756 56.1227C145.808 56.463 146.393 57.5954 146.055 58.6391L129.102 111.062C138.031 117.514 142.27 129.156 138.726 140.115C135.181 151.074 124.92 158.053 113.912 158.03ZM191.817 145.52C191.865 145.535 191.896 145.519 191.92 145.527L174.966 197.95C174.629 198.994 173.492 199.569 172.44 199.229L160.961 195.517C159.908 195.177 159.324 194.044 159.661 193L176.615 140.577C176.663 140.593 176.679 140.624 176.703 140.632C167.687 134.205 163.431 122.531 166.991 111.525C170.55 100.518 180.835 93.5472 191.907 93.6168C191.86 93.6014 191.828 93.6174 191.804 93.6096L197.711 75.3445C198.049 74.3008 199.186 73.7252 200.238 74.0655L211.717 77.7778C212.769 78.1181 213.354 79.2505 213.016 80.2942L207.109 98.5594C207.062 98.5439 207.045 98.5124 207.021 98.5047C216.038 104.932 220.293 116.605 216.733 127.612C213.174 138.618 202.889 145.589 191.817 145.52ZM183.253 116.784C182.52 119.049 182.725 121.514 183.822 123.638C184.918 125.761 186.817 127.369 189.1 128.108C191.384 128.846 193.864 128.655 195.997 127.575C198.129 126.496 199.739 124.617 200.471 122.352C201.204 120.088 200.999 117.622 199.903 115.499C198.806 113.375 196.907 111.767 194.624 111.029C192.34 110.29 189.86 110.482 187.727 111.561C185.595 112.64 183.985 114.519 183.253 116.784ZM122.706 130.349L122.531 129.663C122.539 129.64 122.515 129.632 122.523 129.608L122.4 129.254C122.384 129.222 122.367 129.191 122.375 129.167C122.236 128.782 122.088 128.42 121.886 128.066L121.853 128.003C121.788 127.877 121.723 127.751 121.651 127.649C121.521 127.397 121.359 127.162 121.19 126.95L121.166 126.942L120.948 126.636C120.932 126.604 120.892 126.565 120.876 126.534C120.65 126.251 120.4 125.961 120.112 125.71C120.072 125.671 120.007 125.624 119.975 125.561C119.895 125.483 119.831 125.436 119.75 125.358C119.686 125.311 119.606 125.232 119.542 125.185C119.438 125.099 119.333 125.013 119.221 124.951C119.133 124.896 119.029 124.81 118.941 124.755L118.749 124.615L118.437 124.435C118.397 124.396 118.325 124.373 118.285 124.334C118.125 124.256 117.973 124.154 117.814 124.076C117.766 124.061 117.718 124.045 117.678 124.006C117.542 123.936 117.422 123.897 117.287 123.827C117.239 123.812 117.191 123.796 117.127 123.749C116.936 123.687 116.776 123.61 116.585 123.548C116.393 123.486 116.226 123.432 116.027 123.394C115.979 123.378 115.931 123.363 115.852 123.363C115.708 123.317 115.557 123.294 115.43 123.279C115.382 123.264 115.334 123.248 115.279 123.256C115.104 123.226 114.929 123.196 114.746 123.189C114.69 123.197 114.619 123.174 114.563 123.182L114.205 123.145L113.967 123.147C113.864 123.139 113.729 123.148 113.625 123.141C113.491 123.15 113.356 123.159 113.228 123.144C113.149 123.144 113.038 123.161 112.959 123.161C112.848 123.178 112.768 123.178 112.657 123.195C112.602 123.203 112.522 123.203 112.459 123.235C112.094 123.301 111.73 123.366 111.358 123.456C111.326 123.472 111.27 123.48 111.239 123.496L110.883 123.617L110.859 123.609C110.59 123.705 110.321 123.802 110.076 123.906C109.95 123.97 109.831 124.01 109.705 124.074L109.642 124.106C109.286 124.293 108.938 124.495 108.6 124.712C108.569 124.728 108.537 124.744 108.529 124.768L108.222 124.983C108.214 125.007 108.19 124.999 108.183 125.023L107.64 125.476C107.601 125.516 107.569 125.532 107.53 125.572C106.493 126.573 105.665 127.825 105.197 129.272C104.729 130.719 104.659 132.242 104.922 133.637C104.93 133.692 104.946 133.723 104.955 133.779L105.13 134.464C105.122 134.488 105.146 134.495 105.138 134.519L105.261 134.873C105.278 134.905 105.294 134.936 105.286 134.96C105.426 135.346 105.573 135.708 105.775 136.061L105.808 136.124C105.873 136.25 105.938 136.376 106.01 136.478C106.14 136.73 106.302 136.965 106.471 137.177L106.495 137.185L106.713 137.491C106.729 137.523 106.769 137.562 106.785 137.593C107.011 137.876 107.261 138.166 107.549 138.417C107.589 138.456 107.654 138.503 107.686 138.566C107.766 138.644 107.83 138.691 107.911 138.77C107.975 138.816 108.055 138.895 108.119 138.942C108.223 139.028 108.328 139.114 108.44 139.176C108.528 139.231 108.632 139.317 108.72 139.372L108.912 139.513L109.224 139.692C109.264 139.731 109.336 139.754 109.376 139.794C109.536 139.871 109.688 139.973 109.847 140.051C109.895 140.066 109.943 140.082 109.983 140.121C110.119 140.191 110.239 140.23 110.374 140.3C110.422 140.315 110.47 140.331 110.534 140.378C110.725 140.44 110.885 140.518 111.076 140.579C111.268 140.641 111.435 140.695 111.634 140.734C111.682 140.749 111.73 140.764 111.809 140.764C111.953 140.81 112.104 140.833 112.231 140.848C112.279 140.863 112.327 140.879 112.382 140.871C112.557 140.901 112.732 140.932 112.915 140.938C112.971 140.93 113.042 140.953 113.098 140.945L113.456 140.982L113.694 140.98C113.797 140.988 113.932 140.979 114.036 140.986C114.171 140.977 114.305 140.969 114.433 140.984C114.512 140.983 114.623 140.967 114.703 140.966C114.814 140.949 114.893 140.949 115.004 140.932C115.059 140.924 115.139 140.924 115.202 140.892C115.567 140.826 115.931 140.761 116.303 140.671C116.335 140.655 116.391 140.647 116.422 140.631L116.778 140.511L116.802 140.518C117.071 140.422 117.34 140.325 117.585 140.221C117.711 140.157 117.83 140.117 117.956 140.053L118.019 140.021C118.367 139.845 118.73 139.622 119.061 139.415C119.092 139.399 119.124 139.383 119.132 139.359L119.439 139.144C119.447 139.12 119.471 139.128 119.478 139.104L120.021 138.651C120.06 138.611 120.092 138.595 120.131 138.556C121.168 137.555 121.996 136.303 122.464 134.856C122.932 133.409 123.002 131.885 122.739 130.49C122.731 130.435 122.722 130.38 122.706 130.349Z" stroke="#201F2E" stroke-width="12" mask="url(#path-2-inside-1_590_230)"/>
</svg>
