<svg width="104" height="103" viewBox="0 0 104 103" fill="none" xmlns="http://www.w3.org/2000/svg">
<mask id="path-1-inside-1_108_297" fill="white">
<path d="M85.8894 0.587123L3.57873 14.0913C1.59924 14.4161 0.260253 16.2647 0.582384 18.2282L13.9772 99.8724C14.2993 101.836 16.1588 103.16 18.1383 102.835L100.449 89.3308C102.429 89.0061 103.768 87.1574 103.445 85.194L90.0505 3.54973C89.7284 1.58628 87.8689 0.262361 85.8894 0.587123ZM43.0478 72.6616L44.4492 81.2032C44.5292 81.6913 44.1921 82.1567 43.7001 82.2374L38.332 83.1181C37.8399 83.1989 37.3718 82.8656 37.2917 82.3775L35.8903 73.8359C30.9793 73.0924 26.8773 69.2999 26.0365 64.1749C25.1956 59.05 27.869 54.1345 32.2868 51.8718L28.2647 27.3564C28.1847 26.8683 28.5218 26.4029 29.0138 26.3222L34.3819 25.4415C34.874 25.3607 35.3421 25.694 35.4222 26.1821L39.4443 50.6976C44.3553 51.4411 48.4574 55.2336 49.2982 60.3585C50.139 65.4835 47.4656 70.399 43.0478 72.6616ZM71.698 51.5687C71.7204 51.5651 71.7297 51.5521 71.7409 51.5503L75.763 76.0658C75.8431 76.5538 75.506 77.0192 75.0139 77.1L69.6458 77.9807C69.1538 78.0614 68.6856 77.7281 68.6056 77.24L64.5835 52.7246C64.6058 52.7209 64.6188 52.7302 64.63 52.7283C59.6891 52.0125 55.574 48.2107 54.7296 43.0636C53.8851 37.9165 56.5697 32.9992 61.0229 30.7421C61.0005 30.7457 60.9912 30.7587 60.98 30.7605L59.5786 22.2189C59.4985 21.7308 59.8356 21.2654 60.3277 21.1847L65.6958 20.304C66.1879 20.2233 66.656 20.5566 66.7361 21.0447L68.1374 29.5862C68.1151 29.5899 68.102 29.5806 68.0909 29.5825C73.0318 30.2983 77.1468 34.1001 77.9913 39.2472C78.8358 44.3943 76.1512 49.3117 71.698 51.5687ZM62.3344 41.8159C62.5081 42.8751 63.099 43.8212 63.9769 44.4463C64.8548 45.0713 65.9478 45.3241 67.0156 45.1489C68.0834 44.9737 69.0384 44.3849 69.6706 43.5122C70.3028 42.6394 70.5603 41.554 70.3865 40.4949C70.2128 39.4357 69.6219 38.4896 68.744 37.8645C67.8661 37.2395 66.773 36.9868 65.7053 37.1619C64.6375 37.3371 63.6825 37.9259 63.0503 38.7987C62.4181 39.6715 62.1606 40.7568 62.3344 41.8159ZM40.8605 59.7493L40.649 59.5106C40.6472 59.4995 40.636 59.5014 40.6342 59.4903L40.5117 59.3737C40.4987 59.3644 40.4857 59.3552 40.4839 59.3441C40.3484 59.2182 40.2147 59.1034 40.0605 59.0034L40.0345 58.9849C39.9825 58.9479 39.9305 58.9109 39.8803 58.8849C39.7762 58.8108 39.6628 58.7497 39.5513 58.6997L39.5401 58.7015L39.3895 58.6237C39.3765 58.6144 39.3523 58.607 39.3393 58.5977C39.1905 58.531 39.0306 58.4661 38.8631 58.4253C38.8389 58.4178 38.8036 58.4122 38.7775 58.3937C38.7292 58.3789 38.6938 58.3733 38.6454 58.3584C38.6101 58.3528 38.5617 58.338 38.5263 58.3324C38.4668 58.3194 38.4072 58.3064 38.3495 58.3045C38.3029 58.3007 38.2433 58.2877 38.1968 58.284L38.0907 58.2672L37.9287 58.2596C37.9045 58.2522 37.8709 58.2577 37.8467 58.2503C37.7666 58.252 37.6847 58.2427 37.6046 58.2444C37.5822 58.2481 37.5599 58.2518 37.5357 58.2443C37.4668 58.2442 37.4108 58.2534 37.3419 58.2533C37.3195 58.257 37.2972 58.2607 37.2618 58.2551C37.1723 58.2698 37.0922 58.2715 37.0028 58.2862C36.9133 58.3009 36.835 58.3137 36.7474 58.3395C36.725 58.3432 36.7026 58.3468 36.6709 58.3634C36.6038 58.3744 36.5385 58.3965 36.4844 58.4168C36.4621 58.4205 36.4397 58.4241 36.4191 58.4389C36.3427 58.4628 36.2662 58.4868 36.1916 58.5218C36.171 58.5366 36.1375 58.5421 36.1169 58.5568L35.9658 58.6158L35.8706 58.6656C35.8277 58.684 35.7754 58.7154 35.7325 58.7338C35.6802 58.7652 35.628 58.7965 35.5739 58.8168C35.5421 58.8334 35.501 58.8629 35.4693 58.8795C35.4282 58.909 35.3965 58.9256 35.3554 58.9552C35.3348 58.9699 35.3031 58.9865 35.2844 59.0124C35.1517 59.1139 35.0191 59.2154 34.8883 59.328C34.8789 59.3409 34.8584 59.3557 34.849 59.3686L34.7312 59.4905L34.72 59.4923C34.6321 59.5865 34.5442 59.6806 34.4674 59.773C34.43 59.8247 34.3907 59.8653 34.3533 59.917L34.3345 59.9429C34.2304 60.0912 34.1328 60.2441 34.0422 60.4009C34.0328 60.4138 34.0234 60.4268 34.0253 60.4379L33.9465 60.5875C33.9483 60.5986 33.9371 60.6004 33.9389 60.6115L33.8148 60.9053C33.8073 60.9293 33.7979 60.9422 33.7904 60.9662C33.5812 61.5815 33.5079 62.2543 33.6189 62.9309C33.7299 63.6076 34.0162 64.2327 34.4092 64.7378C34.424 64.7582 34.437 64.7675 34.4518 64.7878L34.6632 65.0265C34.6651 65.0376 34.6762 65.0358 34.6781 65.0469L34.8006 65.1635C34.8136 65.1727 34.8266 65.182 34.8284 65.1931C34.9639 65.3189 35.0976 65.4337 35.2518 65.5337L35.2778 65.5522C35.3298 65.5893 35.3818 65.6263 35.432 65.6522C35.536 65.7263 35.6494 65.7874 35.761 65.8375L35.7722 65.8356L35.9228 65.9135C35.9358 65.9227 35.96 65.9301 35.973 65.9394C36.1217 66.0061 36.2817 66.071 36.4492 66.1119C36.4733 66.1193 36.5087 66.1249 36.5347 66.1434C36.5831 66.1583 36.6185 66.1639 36.6668 66.1787C36.7022 66.1843 36.7506 66.1991 36.786 66.2047C36.8455 66.2177 36.9051 66.2307 36.9628 66.2327C37.0094 66.2364 37.0689 66.2494 37.1155 66.2532L37.2216 66.27L37.3836 66.2775C37.4078 66.285 37.4413 66.2795 37.4655 66.2869C37.5456 66.2851 37.6276 66.2945 37.7077 66.2927C37.73 66.2891 37.7524 66.2854 37.7766 66.2928C37.8455 66.2929 37.9014 66.2837 37.9703 66.2838C37.9927 66.2801 38.0151 66.2765 38.0505 66.2821C38.1399 66.2674 38.22 66.2656 38.3095 66.2509C38.399 66.2363 38.4772 66.2234 38.5649 66.1977C38.5873 66.194 38.6096 66.1903 38.6414 66.1737C38.7085 66.1627 38.7737 66.1406 38.8278 66.1203C38.8502 66.1167 38.8726 66.113 38.8931 66.0982C38.9696 66.0743 39.0461 66.0504 39.1207 66.0153C39.1412 66.0006 39.1748 65.9951 39.1953 65.9803L39.3464 65.9213L39.4416 65.8715C39.4846 65.8531 39.5368 65.8218 39.5797 65.8033C39.632 65.772 39.6843 65.7406 39.7384 65.7203C39.7701 65.7037 39.8112 65.6742 39.843 65.6576C39.8841 65.6281 39.9158 65.6115 39.9569 65.582C39.9774 65.5672 40.0092 65.5506 40.0279 65.5247C40.1605 65.4232 40.2932 65.3217 40.424 65.2091C40.4334 65.1962 40.4539 65.1815 40.4633 65.1685L40.5811 65.0467L40.5923 65.0448C40.6802 64.9507 40.7681 64.8565 40.8448 64.7642C40.8823 64.7125 40.9216 64.6719 40.959 64.6201L40.9777 64.5943C41.0807 64.4521 41.1801 64.2877 41.2701 64.1362C41.2795 64.1233 41.2888 64.1104 41.287 64.0993L41.3658 63.9496C41.364 63.9386 41.3752 63.9367 41.3734 63.9256L41.4974 63.6319C41.505 63.6079 41.5143 63.5949 41.5219 63.5709C41.731 62.9556 41.8044 62.2829 41.6934 61.6062C41.5824 60.9295 41.2961 60.3044 40.9031 59.7993C40.8883 59.7789 40.8735 59.7586 40.8605 59.7493Z"/>
</mask>
<path d="M85.8894 0.587123L3.57873 14.0913C1.59924 14.4161 0.260253 16.2647 0.582384 18.2282L13.9772 99.8724C14.2993 101.836 16.1588 103.16 18.1383 102.835L100.449 89.3308C102.429 89.0061 103.768 87.1574 103.445 85.194L90.0505 3.54973C89.7284 1.58628 87.8689 0.262361 85.8894 0.587123ZM43.0478 72.6616L44.4492 81.2032C44.5292 81.6913 44.1921 82.1567 43.7001 82.2374L38.332 83.1181C37.8399 83.1989 37.3718 82.8656 37.2917 82.3775L35.8903 73.8359C30.9793 73.0924 26.8773 69.2999 26.0365 64.1749C25.1956 59.05 27.869 54.1345 32.2868 51.8718L28.2647 27.3564C28.1847 26.8683 28.5218 26.4029 29.0138 26.3222L34.3819 25.4415C34.874 25.3607 35.3421 25.694 35.4222 26.1821L39.4443 50.6976C44.3553 51.4411 48.4574 55.2336 49.2982 60.3585C50.139 65.4835 47.4656 70.399 43.0478 72.6616ZM71.698 51.5687C71.7204 51.5651 71.7297 51.5521 71.7409 51.5503L75.763 76.0658C75.8431 76.5538 75.506 77.0192 75.0139 77.1L69.6458 77.9807C69.1538 78.0614 68.6856 77.7281 68.6056 77.24L64.5835 52.7246C64.6058 52.7209 64.6188 52.7302 64.63 52.7283C59.6891 52.0125 55.574 48.2107 54.7296 43.0636C53.8851 37.9165 56.5697 32.9992 61.0229 30.7421C61.0005 30.7457 60.9912 30.7587 60.98 30.7605L59.5786 22.2189C59.4985 21.7308 59.8356 21.2654 60.3277 21.1847L65.6958 20.304C66.1879 20.2233 66.656 20.5566 66.7361 21.0447L68.1374 29.5862C68.1151 29.5899 68.102 29.5806 68.0909 29.5825C73.0318 30.2983 77.1468 34.1001 77.9913 39.2472C78.8358 44.3943 76.1512 49.3117 71.698 51.5687ZM62.3344 41.8159C62.5081 42.8751 63.099 43.8212 63.9769 44.4463C64.8548 45.0713 65.9478 45.3241 67.0156 45.1489C68.0834 44.9737 69.0384 44.3849 69.6706 43.5122C70.3028 42.6394 70.5603 41.554 70.3865 40.4949C70.2128 39.4357 69.6219 38.4896 68.744 37.8645C67.8661 37.2395 66.773 36.9868 65.7053 37.1619C64.6375 37.3371 63.6825 37.9259 63.0503 38.7987C62.4181 39.6715 62.1606 40.7568 62.3344 41.8159ZM40.8605 59.7493L40.649 59.5106C40.6472 59.4995 40.636 59.5014 40.6342 59.4903L40.5117 59.3737C40.4987 59.3644 40.4857 59.3552 40.4839 59.3441C40.3484 59.2182 40.2147 59.1034 40.0605 59.0034L40.0345 58.9849C39.9825 58.9479 39.9305 58.9109 39.8803 58.8849C39.7762 58.8108 39.6628 58.7497 39.5513 58.6997L39.5401 58.7015L39.3895 58.6237C39.3765 58.6144 39.3523 58.607 39.3393 58.5977C39.1905 58.531 39.0306 58.4661 38.8631 58.4253C38.8389 58.4178 38.8036 58.4122 38.7775 58.3937C38.7292 58.3789 38.6938 58.3733 38.6454 58.3584C38.6101 58.3528 38.5617 58.338 38.5263 58.3324C38.4668 58.3194 38.4072 58.3064 38.3495 58.3045C38.3029 58.3007 38.2433 58.2877 38.1968 58.284L38.0907 58.2672L37.9287 58.2596C37.9045 58.2522 37.8709 58.2577 37.8467 58.2503C37.7666 58.252 37.6847 58.2427 37.6046 58.2444C37.5822 58.2481 37.5599 58.2518 37.5357 58.2443C37.4668 58.2442 37.4108 58.2534 37.3419 58.2533C37.3195 58.257 37.2972 58.2607 37.2618 58.2551C37.1723 58.2698 37.0922 58.2715 37.0028 58.2862C36.9133 58.3009 36.835 58.3137 36.7474 58.3395C36.725 58.3432 36.7026 58.3468 36.6709 58.3634C36.6038 58.3744 36.5385 58.3965 36.4844 58.4168C36.4621 58.4205 36.4397 58.4241 36.4191 58.4389C36.3427 58.4628 36.2662 58.4868 36.1916 58.5218C36.171 58.5366 36.1375 58.5421 36.1169 58.5568L35.9658 58.6158L35.8706 58.6656C35.8277 58.684 35.7754 58.7154 35.7325 58.7338C35.6802 58.7652 35.628 58.7965 35.5739 58.8168C35.5421 58.8334 35.501 58.8629 35.4693 58.8795C35.4282 58.909 35.3965 58.9256 35.3554 58.9552C35.3348 58.9699 35.3031 58.9865 35.2844 59.0124C35.1517 59.1139 35.0191 59.2154 34.8883 59.328C34.8789 59.3409 34.8584 59.3557 34.849 59.3686L34.7312 59.4905L34.72 59.4923C34.6321 59.5865 34.5442 59.6806 34.4674 59.773C34.43 59.8247 34.3907 59.8653 34.3533 59.917L34.3345 59.9429C34.2304 60.0912 34.1328 60.2441 34.0422 60.4009C34.0328 60.4138 34.0234 60.4268 34.0253 60.4379L33.9465 60.5875C33.9483 60.5986 33.9371 60.6004 33.9389 60.6115L33.8148 60.9053C33.8073 60.9293 33.7979 60.9422 33.7904 60.9662C33.5812 61.5815 33.5079 62.2543 33.6189 62.9309C33.7299 63.6076 34.0162 64.2327 34.4092 64.7378C34.424 64.7582 34.437 64.7675 34.4518 64.7878L34.6632 65.0265C34.6651 65.0376 34.6762 65.0358 34.6781 65.0469L34.8006 65.1635C34.8136 65.1727 34.8266 65.182 34.8284 65.1931C34.9639 65.3189 35.0976 65.4337 35.2518 65.5337L35.2778 65.5522C35.3298 65.5893 35.3818 65.6263 35.432 65.6522C35.536 65.7263 35.6494 65.7874 35.761 65.8375L35.7722 65.8356L35.9228 65.9135C35.9358 65.9227 35.96 65.9301 35.973 65.9394C36.1217 66.0061 36.2817 66.071 36.4492 66.1119C36.4733 66.1193 36.5087 66.1249 36.5347 66.1434C36.5831 66.1583 36.6185 66.1639 36.6668 66.1787C36.7022 66.1843 36.7506 66.1991 36.786 66.2047C36.8455 66.2177 36.9051 66.2307 36.9628 66.2327C37.0094 66.2364 37.0689 66.2494 37.1155 66.2532L37.2216 66.27L37.3836 66.2775C37.4078 66.285 37.4413 66.2795 37.4655 66.2869C37.5456 66.2851 37.6276 66.2945 37.7077 66.2927C37.73 66.2891 37.7524 66.2854 37.7766 66.2928C37.8455 66.2929 37.9014 66.2837 37.9703 66.2838C37.9927 66.2801 38.0151 66.2765 38.0505 66.2821C38.1399 66.2674 38.22 66.2656 38.3095 66.2509C38.399 66.2363 38.4772 66.2234 38.5649 66.1977C38.5873 66.194 38.6096 66.1903 38.6414 66.1737C38.7085 66.1627 38.7737 66.1406 38.8278 66.1203C38.8502 66.1167 38.8726 66.113 38.8931 66.0982C38.9696 66.0743 39.0461 66.0504 39.1207 66.0153C39.1412 66.0006 39.1748 65.9951 39.1953 65.9803L39.3464 65.9213L39.4416 65.8715C39.4846 65.8531 39.5368 65.8218 39.5797 65.8033C39.632 65.772 39.6843 65.7406 39.7384 65.7203C39.7701 65.7037 39.8112 65.6742 39.843 65.6576C39.8841 65.6281 39.9158 65.6115 39.9569 65.582C39.9774 65.5672 40.0092 65.5506 40.0279 65.5247C40.1605 65.4232 40.2932 65.3217 40.424 65.2091C40.4334 65.1962 40.4539 65.1815 40.4633 65.1685L40.5811 65.0467L40.5923 65.0448C40.6802 64.9507 40.7681 64.8565 40.8448 64.7642C40.8823 64.7125 40.9216 64.6719 40.959 64.6201L40.9777 64.5943C41.0807 64.4521 41.1801 64.2877 41.2701 64.1362C41.2795 64.1233 41.2888 64.1104 41.287 64.0993L41.3658 63.9496C41.364 63.9386 41.3752 63.9367 41.3734 63.9256L41.4974 63.6319C41.505 63.6079 41.5143 63.5949 41.5219 63.5709C41.731 62.9556 41.8044 62.2829 41.6934 61.6062C41.5824 60.9295 41.2961 60.3044 40.9031 59.7993C40.8883 59.7789 40.8735 59.7586 40.8605 59.7493Z" stroke="#201F2E" stroke-width="8" mask="url(#path-1-inside-1_108_297)"/>
</svg>
