<svg width="246" height="171" viewBox="0 0 246 171" fill="none" xmlns="http://www.w3.org/2000/svg">
<path d="M1.98876 165.19C-5.42034 176.792 34.9074 164.113 38.0066 162.382C43.8316 159.128 46.4709 153.455 51.1096 148.98C56.314 143.959 68.6791 150.278 75.6853 148.319C104.965 140.134 60.824 102.543 68.3274 95.3971C70.412 93.4117 90.9804 105.455 96.3173 105.248C106.819 104.841 118.496 102.29 124.114 92.646C126.926 87.8204 122.846 79.2496 124.692 77.0248C130.818 69.6434 147.788 74.1945 155.779 73.5926C166.248 72.804 184.361 68.1171 189.035 57.0985C193.049 47.6366 182.376 38.067 185.54 31.1618C192.12 16.8022 227.504 42.7309 234.118 23.6664C237.546 13.7821 221.076 9.5814 221.649 1.67769C221.72 0.70841 242.004 1.54467 245.03 1.26333" stroke="black" stroke-linecap="round"/>
</svg>
