<svg width="160" height="39" viewBox="0 0 160 39" fill="none" xmlns="http://www.w3.org/2000/svg">
<path d="M18.1035 13.8888C18.2185 14.3066 17.8884 14.6985 17.4551 14.6985C17.1205 14.6985 16.8367 14.4598 16.7464 14.1377C16.5884 13.5739 16.3578 13.0245 16.0545 12.4898C15.6516 11.7718 15.1315 11.1272 14.4941 10.5558C13.8641 9.97701 13.1315 9.51915 12.2964 9.18216C11.4612 8.84517 10.5382 8.67668 9.52722 8.67668C8.04741 8.67668 6.68481 9.07227 5.43942 9.86346C4.20135 10.6473 3.20871 11.8011 2.46147 13.3249C1.72157 14.8487 1.35161 16.7131 1.35161 18.9182C1.35161 21.1379 1.72157 23.0096 2.46147 24.5334C3.20871 26.0572 4.20135 27.211 5.43942 27.9949C6.68481 28.7714 8.04741 29.1597 9.52722 29.1597C10.5382 29.1597 11.4612 28.9948 12.2964 28.6652C13.1315 28.3282 13.8641 27.874 14.4941 27.3026C15.1315 26.7238 15.6516 26.0755 16.0545 25.3576C16.358 24.8168 16.5888 24.2635 16.7468 23.6978C16.8367 23.3761 17.1201 23.1378 17.4541 23.1378C17.8875 23.1378 18.2171 23.5304 18.1004 23.9478C17.9244 24.5769 17.6747 25.197 17.3512 25.8081C16.897 26.6799 16.2963 27.4711 15.549 28.1817C14.8091 28.8849 13.9337 29.4454 12.9227 29.8629C11.9191 30.2732 10.7873 30.4783 9.52722 30.4783C7.65181 30.4783 5.99984 30.0021 4.57131 29.0498C3.14277 28.0901 2.02193 26.7421 1.20876 25.0059C0.40292 23.2697 0 21.2405 0 18.9182C0 16.5959 0.40292 14.5666 1.20876 12.8304C2.02193 11.0942 3.14277 9.74991 4.57131 8.79755C5.99984 7.83787 7.65181 7.35803 9.52722 7.35803C10.7873 7.35803 11.9191 7.56682 12.9227 7.98439C13.9337 8.39464 14.8091 8.9514 15.549 9.65467C16.2963 10.3506 16.897 11.1345 17.3512 12.0063C17.6767 12.621 17.9274 13.2485 18.1035 13.8888Z" fill="#201F2E"/>
<path d="M24.0965 29.7184C23.9996 29.9896 23.7428 30.1706 23.4548 30.1706C22.9826 30.1706 22.6535 29.702 22.8138 29.2579L30.3668 8.3263C30.5098 7.9299 30.886 7.66572 31.3074 7.66572H31.4852C31.9066 7.66572 32.2828 7.9299 32.4259 8.3263L39.9788 29.2579C40.1391 29.702 39.81 30.1706 39.3379 30.1706C39.0499 30.1706 38.793 29.9896 38.6961 29.7184L31.4697 9.48664C31.4587 9.45561 31.4293 9.4349 31.3963 9.4349C31.3634 9.4349 31.334 9.45561 31.3229 9.48664L24.0965 29.7184ZM25.9899 22.3357C25.9899 21.9837 26.2752 21.6983 26.6272 21.6983H36.1654C36.5174 21.6983 36.8028 21.9837 36.8028 22.3357C36.8028 22.6877 36.5174 22.973 36.1654 22.973H26.6272C26.2752 22.973 25.9899 22.6877 25.9899 22.3357Z" fill="#201F2E"/>
<path d="M42.2575 8.94041C41.9055 8.94041 41.6201 8.65506 41.6201 8.30306C41.6201 7.95107 41.9055 7.66572 42.2575 7.66572H56.7516C57.1036 7.66572 57.3889 7.95107 57.3889 8.30306C57.3889 8.65506 57.1036 8.94041 56.7516 8.94041H51.1913C50.639 8.94041 50.1913 9.38812 50.1913 9.94041V29.4838C50.1913 29.8631 49.8838 30.1706 49.5045 30.1706C49.1252 30.1706 48.8177 29.8631 48.8177 29.4838V9.94041C48.8177 9.38812 48.37 8.94041 47.8177 8.94041H42.2575Z" fill="#201F2E"/>
<path d="M63.6321 8.34702C63.6321 7.97075 63.9371 7.66572 64.3134 7.66572C64.6896 7.66572 64.9947 7.97075 64.9947 8.34702V27.611C64.9947 27.6592 65.0337 27.6982 65.0818 27.6982C65.1099 27.6982 65.1362 27.6846 65.1526 27.6618L79.2238 8.03538C79.3901 7.80334 79.6581 7.66572 79.9436 7.66572C80.4328 7.66572 80.8294 8.06229 80.8294 8.55149V29.4838C80.8294 29.8631 80.5219 30.1706 80.1426 30.1706C79.7633 30.1706 79.4558 29.8631 79.4558 29.4838V10.2473C79.4558 10.1992 79.4168 10.1602 79.3687 10.1602C79.3406 10.1602 79.3143 10.1737 79.2979 10.1965L65.2508 29.7978C65.0832 30.0318 64.8129 30.1706 64.525 30.1706C64.0319 30.1706 63.6321 29.7708 63.6321 29.2777V8.34702Z" fill="#201F2E"/>
<path d="M86.6715 30.1706C86.4348 30.1706 86.2429 29.9788 86.2429 29.7421V29.4124C86.2429 29.109 86.4889 28.863 86.7923 28.863C87.7154 28.863 88.4553 28.5443 89.0121 27.9069C89.5761 27.2696 89.9974 26.255 90.2758 24.8631C90.5615 23.4712 90.741 21.6397 90.8142 19.3687L91.1974 8.63006C91.2166 8.09199 91.6583 7.66572 92.1967 7.66572H102.913C103.465 7.66572 103.913 8.11343 103.913 8.66572V29.4838C103.913 29.8631 103.605 30.1706 103.226 30.1706C102.847 30.1706 102.539 29.8631 102.539 29.4838V9.94041C102.539 9.38812 102.091 8.94041 101.539 8.94041H93.5155C92.977 8.94041 92.5353 9.36675 92.5161 9.90486L92.1658 19.7533C92.0852 22.1489 91.8618 24.1158 91.4955 25.6543C91.1366 27.1927 90.5725 28.3318 89.8033 29.0717C89.034 29.8043 87.9901 30.1706 86.6715 30.1706Z" fill="#201F2E"/>
<path d="M139.282 18.0684L136.658 15.4449L135.951 16.152L138.575 18.7755L139.282 18.0684ZM133.123 15.4449L130.904 17.6636L131.611 18.3707L133.83 16.152L133.123 15.4449ZM130.904 21.1991L143.091 33.3858L143.798 32.6787L131.611 20.492L130.904 21.1991ZM146.626 33.3858L158.939 21.0729L158.232 20.3658L145.919 32.6787L146.626 33.3858ZM158.939 17.5374L146.753 5.3507L146.046 6.0578L158.232 18.2445L158.939 17.5374ZM143.217 5.3507L140.215 8.3527L140.922 9.05981L143.924 6.0578L143.217 5.3507ZM140.922 8.3527L138.046 5.47688L137.339 6.18398L140.215 9.05981L140.922 8.3527ZM134.511 5.47688L122.576 17.4112L123.284 18.1183L135.218 6.18398L134.511 5.47688ZM122.576 20.9468L134.511 32.8811L135.218 32.174L123.284 20.2397L122.576 20.9468ZM138.046 32.8811L149.981 20.9468L149.274 20.2397L137.339 32.174L138.046 32.8811ZM149.981 17.4112L140.922 8.3527L140.215 9.05981L149.274 18.1183L149.981 17.4112ZM149.981 20.9468C150.957 19.9704 150.957 18.3875 149.981 17.4112L149.274 18.1183C149.859 18.7041 149.859 19.6539 149.274 20.2397L149.981 20.9468ZM134.511 32.8811C135.487 33.8574 137.07 33.8574 138.046 32.8811L137.339 32.174C136.753 32.7598 135.804 32.7598 135.218 32.174L134.511 32.8811ZM122.576 17.4112C121.6 18.3875 121.6 19.9705 122.576 20.9468L123.284 20.2397C122.698 19.6539 122.698 18.7041 123.284 18.1183L122.576 17.4112ZM138.046 5.47688C137.07 4.50056 135.487 4.50057 134.511 5.47688L135.218 6.18398C135.804 5.5982 136.753 5.5982 137.339 6.18398L138.046 5.47688ZM146.753 5.3507C145.776 4.37439 144.193 4.37439 143.217 5.3507L143.924 6.0578C144.51 5.47202 145.46 5.47202 146.046 6.0578L146.753 5.3507ZM158.939 21.0729C159.916 20.0966 159.916 18.5137 158.939 17.5374L158.232 18.2445C158.818 18.8303 158.818 19.78 158.232 20.3658L158.939 21.0729ZM143.091 33.3858C144.067 34.3621 145.65 34.3621 146.626 33.3858L145.919 32.6787C145.334 33.2645 144.384 33.2645 143.798 32.6787L143.091 33.3858ZM130.904 17.6636C129.928 18.6399 129.928 20.2228 130.904 21.1991L131.611 20.492C131.026 19.9062 131.026 18.9565 131.611 18.3707L130.904 17.6636ZM136.658 15.4449C135.682 14.4686 134.099 14.4686 133.123 15.4449L133.83 16.152C134.416 15.5662 135.366 15.5662 135.951 16.152L136.658 15.4449Z" fill="#201F2E"/>
<path d="M141.63 19.727C141.63 20.7951 140.764 21.661 139.696 21.661C138.628 21.661 137.762 20.7951 137.762 19.727C137.762 18.6589 138.628 17.793 139.696 17.793C140.764 17.793 141.63 18.6589 141.63 19.727Z" fill="#201F2E"/>
</svg>
